<svg width="462" height="351" viewBox="0 0 462 351" fill="none" xmlns="http://www.w3.org/2000/svg">
<path d="M438.939 2.35981C436.85 3.63647 434.838 4.68101 434.452 4.68101C434.026 4.68101 432.208 3.98465 430.312 3.09486C428.455 2.24375 426.521 1.35396 426.057 1.16053C425.438 0.928407 423.194 1.2379 418.667 2.20506C415.108 2.94011 409.46 4.06202 406.172 4.71969C402.883 5.33868 399.402 6.03504 398.434 6.26716C397.467 6.46059 388.337 8.27886 378.124 10.2906C358.084 14.2366 356.576 14.5074 352.784 15.3198C351.392 15.6293 346.091 16.6739 340.985 17.641C335.878 18.6082 331.004 19.5753 330.153 19.7688C329.301 19.9622 326.245 20.5812 323.382 21.1228C316.032 22.5155 313.827 23.0958 309.533 24.682C307.482 25.417 302.995 26.9645 299.59 28.1251L293.4 30.2142H285.47C277.732 30.2142 277.461 30.2528 273.67 31.4134C271.542 32.0711 267.983 33.1543 265.739 33.812C263.186 34.5857 258.814 36.4427 253.94 38.88L246.203 42.7099L237.692 42.9808L229.181 43.2516L221.637 46.2304L214.093 49.248L207.593 54.5867C201.055 59.9255 201.055 59.9255 193.821 63.2138C189.836 65.0321 185.271 66.8117 183.685 67.1599C179.662 68.0883 176.412 68.8234 174.942 69.0942C173.627 69.365 173.511 69.4811 159.119 84.8396C153.2 91.1456 147.939 95.2463 144.38 96.2909C142.909 96.7164 138.886 97.9157 135.366 98.9216L128.982 100.817L125.5 103.951C122.792 106.388 120.742 107.781 116.487 110.102C111.457 112.81 110.413 113.584 105.461 118.11L99.9673 123.139L96.0987 130.412C93.9709 134.397 91.9979 137.918 91.6884 138.266C91.4176 138.614 89.3285 139.852 87.046 141.013C78.5737 145.345 77.5291 146.003 77.5291 147.048C77.5291 148.247 77.4904 148.247 84.1832 146.39C88.4001 145.268 90.1796 144.533 94.2417 142.251C99.0002 139.62 99.3097 139.349 102.598 135.442C104.494 133.198 107.705 128.865 109.716 125.77C111.767 122.675 113.778 119.851 114.243 119.503C114.668 119.116 116.873 117.646 119.079 116.253C122.792 113.855 123.45 113.545 128.75 112.191C131.845 111.417 136.449 109.87 139.002 108.787C141.517 107.703 145.618 106.311 148.093 105.653C150.569 104.995 152.929 104.299 153.355 104.144C153.78 103.951 155.792 102.326 157.842 100.508L161.518 97.2194L166.47 96.7938C169.178 96.5617 171.731 96.3682 172.118 96.3682C172.621 96.3682 173.743 94.9368 175.87 91.5324C178.23 87.7798 179.081 86.6966 179.739 86.6966C180.165 86.6966 182.989 87.7411 185.968 89.0178C188.985 90.2945 191.655 91.339 191.964 91.339C192.274 91.339 194.44 90.0236 196.8 88.4375C201.171 85.4973 202.68 84.917 202.68 86.271C202.68 87.1608 199.353 93.2733 198.502 93.931C198.077 94.2792 196.413 94.4339 193.434 94.4339L188.947 94.4726L187.592 96.2909C183.492 101.9 183.569 101.862 177.07 104.106C168.675 106.968 166.663 107.974 163.878 110.605C160.164 114.125 146.585 126.234 140.743 131.264C135.791 135.519 131.187 140.239 126.39 145.926L124.263 148.479L124.069 152.309C123.953 154.398 123.953 156.294 124.03 156.526C124.185 156.874 127.783 159.93 132.658 163.799C134.36 165.153 134.979 165.346 141.014 166.623C147.707 168.016 150.066 168.093 153.935 167.165C154.67 167.01 156.45 166.739 157.842 166.584C160.202 166.352 160.512 166.43 161.247 167.203C162.33 168.364 162.291 169.795 161.208 170.221C160.705 170.414 158.578 170.879 156.45 171.265C153.626 171.768 150.879 172.658 146.237 174.554C142.755 176.024 139.776 177.339 139.621 177.494C139.466 177.649 137.3 180.589 134.785 183.993C131.845 187.939 128.247 192.195 124.765 195.793C118.73 202.021 109.639 213.666 110.026 214.672C110.142 214.981 110.413 216.567 110.645 218.192C110.877 219.817 111.264 221.326 111.535 221.558C111.844 221.868 113.469 221.906 117.376 221.635C120.355 221.442 123.334 221.249 123.953 221.21C124.882 221.133 125.114 221.287 125.114 221.945C125.114 222.487 124.146 223.531 122.096 225.156C120.471 226.471 119.117 227.825 119.117 228.212C119.04 232.081 118.266 239.006 117.802 239.663C117.338 240.437 116.719 240.553 111.728 240.979C108.672 241.25 106.119 241.559 106.002 241.675C105.77 241.869 107.434 245.234 108.943 247.71L109.832 249.18H120.316H130.801L136.062 246.859L141.362 244.538L146.43 245.08C151.846 245.621 151.807 245.621 158.075 249.219C161.827 251.385 163.375 251.888 164.226 251.192C164.419 250.999 166.547 250.031 168.907 248.987L173.278 247.13L177.805 248.213C182.757 249.374 183.917 249.993 182.95 250.844C181.751 251.966 170.377 255.68 165.735 256.492C163.181 256.956 160.667 257.421 160.125 257.537C159.622 257.653 157.224 259.703 154.825 262.063L150.453 266.357L144.38 265.622C141.014 265.197 137.88 264.887 137.455 264.926C136.178 264.964 128.711 270.806 123.953 275.448C121.593 277.731 119.233 279.897 118.692 280.246C118.189 280.555 115.597 281.406 112.927 282.064C110.258 282.76 105.538 284.076 102.443 285.004C96.1374 286.9 95.5958 286.938 89.522 286.126C82.9452 285.236 83.8737 284.811 78.5737 291.039C75.9817 294.095 72.5772 297.925 70.9524 299.589L68.0509 302.645L61.7837 302.374L55.4778 302.104L50.6806 305.701C48.0499 307.674 43.601 310.692 40.8156 312.433C35.7863 315.528 35.7476 315.566 31.9563 320.402L28.2037 325.238L22.8263 328.256L17.4102 331.273L13.2707 336.148C10.9495 338.856 7.1969 343.189 4.87571 345.819C2.55451 348.45 0.774929 350.694 0.890989 350.81C1.04574 350.965 3.71511 350.849 6.84872 350.578L12.5357 350.114L16.6364 346.052L20.6985 341.989L26.8884 342.26L33.0782 342.531L33.9293 340.442C35.206 337.154 37.3724 331.467 37.6433 330.693C38.0301 329.571 38.9586 329.494 42.6338 330.383C44.6068 330.886 47.5857 331.583 49.2879 332.008L52.4215 332.782L57.2187 330.577C59.888 329.378 62.2866 328.217 62.5574 327.985C62.8282 327.753 64.7239 325.161 66.7356 322.221L70.4495 316.843L75.5174 314.29C78.3415 312.897 80.9722 311.775 81.3978 311.775C81.8233 311.775 84.9956 312.472 88.4774 313.323L94.7447 314.87L100.354 313.4L105.925 311.93L110.684 308.177C113.508 305.934 117.183 302.529 119.659 299.821C122.367 296.842 124.224 295.14 124.882 294.985C127.551 294.405 129.64 294.018 132.735 293.515C135.559 293.012 137.068 292.432 141.904 289.995L147.668 287.093H154.167C158.423 287.093 161.479 286.9 162.988 286.552C164.303 286.242 166.973 285.623 168.907 285.159L172.505 284.308L175.445 279.008C177.07 276.106 178.811 273.127 179.314 272.315L180.203 270.922L187.09 270.767L193.976 270.574L199.005 268.562C204.305 266.396 206.82 265.661 210.611 265.235C211.888 265.08 214.054 264.732 215.408 264.423C217.884 263.92 218 263.843 222.372 259.471C227.362 254.558 226.821 254.867 239.239 249.374L247.75 245.582L254.133 247.788C260.478 249.954 260.594 249.954 266.126 250.225L271.736 250.457L277.539 246.279L283.342 242.101L286.243 241.791C287.829 241.598 290.886 241.327 293.013 241.211L296.921 240.94L303.033 243.919C306.438 245.544 309.455 246.859 309.803 246.859C310.925 246.859 323.344 243.687 323.924 243.223C324.195 242.99 325.82 239.663 327.445 235.833C329.301 231.578 330.926 228.367 331.661 227.554C332.319 226.858 335.143 224.227 337.89 221.751C342.107 217.96 343.964 216.645 349.496 213.434C353.132 211.306 356.189 209.41 356.343 209.178C356.692 208.637 356.692 205.774 356.343 203.84L356.073 202.37L352.204 204.691C350.076 205.967 348.064 207.012 347.755 207.012C347.407 207.012 345.279 204.923 342.958 202.37C340.675 199.816 338.664 197.727 338.509 197.727C338.354 197.727 336.265 199.468 333.866 201.596L329.534 205.464L323.46 205.426C320.133 205.426 316.032 205.271 314.407 205.116C311.622 204.807 311.08 204.613 306.708 201.983C303.343 199.971 301.795 199.275 301.215 199.429C300.751 199.545 297.927 199.894 294.948 200.203C283.535 201.402 284.464 201.402 279.589 200.048L275.179 198.81L270.73 201.132C264.617 204.343 257.151 206.586 250.265 207.244L247.75 207.476L243.301 204.11C240.051 201.673 238.659 200.822 238.078 201.015C237.653 201.132 235.486 201.402 233.243 201.596C229.529 201.983 228.832 201.944 225.312 201.132C222.41 200.435 221.405 200.048 221.327 199.545C221.25 199.12 222.333 197.804 224.422 195.831C227.44 192.969 227.749 192.504 229.567 188.404C231.27 184.535 231.889 183.529 234.867 180.279C237.266 177.649 238.272 176.256 238.272 175.56C238.272 174.36 239.2 173.355 240.361 173.355C240.941 173.355 242.295 172.155 244.694 169.563C247.634 166.43 248.795 165.463 251.928 163.76C253.979 162.638 255.836 161.478 256.068 161.168C256.3 160.897 256.764 158.499 257.035 155.868C257.577 151.497 257.77 150.8 259.55 147.125C260.594 144.959 261.755 143.063 262.142 142.908C262.528 142.753 264.811 143.334 267.519 144.262C270.15 145.152 272.471 145.771 272.78 145.655C273.051 145.539 274.831 143.527 276.765 141.167L280.247 136.912L282.761 137.144C284.154 137.26 286.901 137.608 288.874 137.879C291.427 138.266 292.627 138.266 292.975 137.995C293.246 137.763 295.219 134.707 297.385 131.186L301.292 124.764L308.372 120.625C313.943 117.375 315.645 116.176 316.38 115.054C316.922 114.241 318.856 111.224 320.713 108.361L324.117 103.138L323.034 98.6894C322.261 95.6719 321.758 94.2018 321.332 94.1244C320.829 94.0084 314.446 95.0142 309.068 96.0201C307.908 96.2522 303.265 96.4069 298.778 96.3682L290.576 96.3296L283.767 98.3026C276.262 100.469 277.036 100.43 268.602 99.2311C262.296 98.3413 261.832 98.4186 254.288 101.243C250.536 102.635 244.23 104.802 240.245 106.04C226.705 110.257 213.899 115.982 203.918 122.211C199.585 124.919 199.121 125.074 192.893 126.002C190.068 126.428 188.56 126.505 188.289 126.234C188.095 126.041 187.592 124.145 187.206 122.056C186.78 119.928 186.277 117.375 186.006 116.369C185.658 114.783 185.658 114.396 186.161 113.893C186.664 113.39 187.283 113.468 191.693 114.744C194.44 115.518 197.071 116.176 197.496 116.176C197.96 116.176 200.011 115.286 202.061 114.203C205.775 112.191 205.775 112.152 208.599 108.052C210.495 105.227 211.656 103.873 212.236 103.796C212.7 103.719 215.176 104.222 217.729 104.841C220.321 105.498 222.72 106.04 223.145 106.04C223.571 106.04 225.196 104.647 226.975 102.752C229.722 99.8887 230.419 98.8055 232.585 94.2792C235.061 89.1339 235.138 89.0565 236.608 88.7857C239.084 88.3214 247.092 88.4375 251.58 88.9791L255.797 89.5207L259.704 85.4586C261.871 83.2148 263.96 81.2418 264.385 81.1257C270.266 79.5009 274.715 78.5724 278.08 78.3403L282.104 78.0695L286.514 74.2782C288.951 72.1504 291.079 70.4482 291.311 70.4482C291.505 70.4482 294.097 71.1446 297.114 71.9957L302.608 73.5432L305.935 72.9242C312.666 71.6862 314.755 71.2607 317.579 70.5256C319.166 70.1001 324.311 68.7847 328.992 67.5467C338.857 65.0321 349.148 62.3627 355.492 60.7379C357.93 60.0802 364.042 58.5328 369.033 57.2561C374.023 55.9408 379.362 54.5867 380.832 54.1999C382.341 53.813 387.989 52.3816 393.405 50.9502C398.821 49.5575 405.978 47.7005 409.267 46.8107C415.224 45.1472 415.302 45.1472 423.078 45.0311L430.892 44.8764L435.496 39.3829C438.011 36.3653 440.293 33.5025 440.525 33.077C440.796 32.6127 442.112 28.8601 443.504 24.7593C444.858 20.6973 446.29 17.022 446.599 16.6739C446.947 16.287 450.042 14.5461 453.485 12.8052C456.929 11.0256 460.023 9.36208 460.372 9.09128C460.991 8.54967 462.113 2.6693 461.726 2.01163C461.61 1.85689 459.018 1.58608 456 1.47002C452.944 1.35396 449.888 1.08315 449.191 0.851034C448.495 0.657601 446.754 0.348108 445.323 0.232048L442.731 -7.10616e-05L438.939 2.35981ZM215.834 83.0601C217.42 83.4082 217.652 84.0659 216.762 85.9616C215.679 88.3988 215.176 88.4762 210.688 87.0448C206.355 85.6907 205.311 85.0718 206.085 84.298C207.284 83.0987 212.623 82.4411 215.834 83.0601Z" fill="url(#paint0_linear_88_2772)"/>
<defs>
<linearGradient id="paint0_linear_88_2772" x1="231.345" y1="350.879" x2="231.345" y2="-6.10352e-05" gradientUnits="userSpaceOnUse">
<stop stop-color="#FF20CE"/>
<stop offset="0.0001" stop-color="#FF20CE"/>
<stop offset="0.713542" stop-color="#34DAE7"/>
<stop offset="1" stop-color="#55F2FE"/>
</linearGradient>
</defs>
</svg>
