<svg width="355" height="347" viewBox="0 0 355 347" fill="none" xmlns="http://www.w3.org/2000/svg">
<g clip-path="url(#clip0_34_2777)">
<path d="M125.731 66.9175C121.792 69.5865 118.841 73.1325 118.143 76.0591C117.588 78.3216 117.344 78.5843 114.056 80.5528C106.383 85.0916 98.2889 92.6678 93.3597 99.8696C90.0528 104.716 85.8063 114.075 84.6545 119.224C81.7831 131.459 82.0866 141.881 85.7533 156.817C88.4193 167.625 88.2175 173.556 85.0828 179.714C80.9654 187.642 79.8907 190.497 79.5092 194.512C78.7027 202.726 81.137 210.755 87.1976 219.718C91.3053 225.813 92.3148 228.061 93.1987 233.506C94.3619 240.384 93.5458 243.744 87.915 255.034C86.0633 258.86 85.3158 265.173 86.2975 269.254C87.267 273.45 89.8128 277.517 93.6138 281.084C96.7226 283.934 96.9243 284.295 97.2176 286.497C97.5308 289.187 97.2141 291.024 95.9081 294.468C94.7519 297.412 94.9796 301.35 96.5665 306.515C98.7727 313.532 104.151 320.337 111.359 325.311L114.561 327.516L112.004 321.08C109.435 314.76 108.566 310.524 109.759 310.161C110.631 309.869 118.261 315.172 121.483 318.308C124.12 320.848 124.845 321.94 126.152 325.229C127.073 327.402 127.824 329.146 127.824 329.146C127.874 329.126 129.705 327.295 131.823 325.018C139.922 316.722 153.527 306.626 165.122 300.253C172.928 296.048 173.191 295.833 176.984 292.063C181.598 287.58 184.104 283.935 186.554 278.105C191.494 266.538 191.107 255.322 185.343 240.667L183.752 236.663L180.634 235.693C175.242 233.972 163.133 228.958 158.424 226.469C146.344 220.063 138.208 212.754 135.443 205.794C134.969 204.602 132.786 196.473 130.576 187.691L126.493 171.706L128.016 166.906C130.138 160.102 132.225 151.16 132.463 147.808L132.671 144.966L133.954 146.002C140.045 151.088 142.403 158.927 139.816 165.585C139.31 166.945 139.067 168.09 139.294 168.221C140.124 168.554 144.485 163.289 145.861 160.313C149.376 152.625 148.051 143.437 142.197 134.116C140.162 130.896 140.105 130.753 140.432 127.918C140.857 123.72 142.324 119.218 143.36 118.752C143.511 118.692 144.618 119.577 145.851 120.632C150.885 125.255 160.505 129.713 168.315 131.081C175.441 132.334 185.503 131.759 190.242 129.931C191.246 129.532 192.414 129.399 192.779 129.586C193.162 129.82 194.522 131.487 195.801 133.242C203.221 143.431 213.624 150.447 221.98 150.991C223.94 151.095 225.962 151.064 226.515 150.845C227.318 150.526 227.589 150.915 228.782 153.918C231.8 161.661 234.531 176.583 234.612 185.713C234.691 196.886 232.917 205.152 228.669 213.629L225.759 219.477L227.256 223.243C231.517 233.968 238.608 243.184 247.15 249.173C248.377 250.066 252.105 251.841 255.425 253.171C260.592 255.203 262.308 255.57 267.61 255.892C274.137 256.224 280.386 255.563 285.948 253.905C287.812 253.33 289.815 252.81 290.455 252.666L291.604 252.486L292.014 256.297C292.302 259.218 292.928 261.233 294.348 264.367C297.521 271.33 301.535 274.262 308.401 274.569C313.973 274.839 314.004 274.772 312.054 269.862C308.278 260.212 309.389 253.203 315.448 249.139C316.59 248.355 317.65 247.658 317.851 247.578C318.052 247.498 320.774 248.79 323.937 250.458L329.622 253.499L330.165 251.793C332.319 245.362 333.394 233.289 332.395 226.676C331.287 219.058 327.109 212.494 323.069 211.836C319.801 211.368 313.904 208.522 311.519 206.324C308.039 203.125 305.53 198.713 304.358 193.714C303.737 190.98 303.589 188.997 303.938 187.975C306.374 180.936 303.676 176.047 295.768 173.117C289.67 170.793 289.033 169.335 291.551 162.649C296.6 149.163 287.187 135.13 265.601 124.112L260.879 121.738L257.775 114.802C247.314 91.6917 247.371 91.8347 243.845 87.9366C225.06 67.14 197.311 55.5347 165.042 54.9426C161.926 54.8558 157.605 55.2477 155.194 55.7641C148.802 57.0892 129.407 64.4636 125.731 66.9175Z" fill="url(#paint0_linear_34_2777)"/>
</g>
<defs>
<linearGradient id="paint0_linear_34_2777" x1="230.877" y1="306.933" x2="133.986" y2="63.0536" gradientUnits="userSpaceOnUse">
<stop stop-color="#FF20CE"/>
<stop offset="0.0001" stop-color="#FF20CE"/>
<stop offset="0.713542" stop-color="#34DAE7"/>
<stop offset="1" stop-color="#55F2FE"/>
</linearGradient>
<clipPath id="clip0_34_2777">
<rect width="276.631" height="262.631" fill="white" transform="translate(0.772461 102.18) rotate(-21.6676)"/>
</clipPath>
</defs>
</svg>
