<svg width="302" height="302" viewBox="0 0 302 302" fill="none" xmlns="http://www.w3.org/2000/svg">
<g clip-path="url(#clip0_104_2840)">
<path d="M140.993 15.3709C135.921 16.5506 131.497 19.0869 129.609 21.9182C128.135 24.1006 127.781 24.2775 123.652 24.9854C114.037 26.5779 102.771 31.2377 94.8674 36.8412C89.5588 40.6162 81.4779 48.815 78.2338 53.8287C70.3889 65.6846 66.4959 76.9506 64.1955 94.4689C62.544 107.151 59.9487 113.403 54.2862 118.653C46.9131 125.377 44.6717 127.972 42.6662 132.101C38.5373 140.536 37.7705 150.15 40.3069 162.301C42.0174 170.559 42.1354 173.39 40.8377 179.583C39.2451 187.428 37.0627 190.672 26.7994 200.346C23.3783 203.649 20.0752 210.078 19.4264 214.856C18.7186 219.752 19.6623 225.178 22.0807 230.605C24.0861 234.97 24.1451 235.442 23.5553 237.919C22.7885 240.927 21.7268 242.756 19.0135 245.882C16.6541 248.536 15.2975 252.842 14.8256 259.035C14.2358 267.47 16.949 277.026 22.2576 285.401L24.617 289.117V281.154C24.558 273.31 25.3838 268.414 26.7404 268.532C27.7432 268.591 33.3467 277.497 35.3522 282.216C37.0037 286.05 37.2986 287.525 37.2986 291.595C37.3576 294.308 37.4166 296.49 37.4166 296.49C37.4756 296.49 40.0709 295.311 43.1381 293.777C54.699 288.351 72.5713 283.337 86.9045 281.449C96.519 280.27 96.8729 280.152 102.24 277.733C108.729 274.902 112.74 272.071 117.576 266.88C127.25 256.617 131.379 244.466 131.438 226.358V221.403L128.665 219.044C123.888 214.915 113.624 204.416 109.849 199.756C100.176 187.782 94.8674 176.516 94.8674 167.904C94.8674 166.43 95.9291 156.815 97.2268 146.493L99.5272 127.677L103.007 123.194C107.903 116.824 113.624 108.153 115.217 104.673L116.574 101.724L117.458 103.376C121.587 111.397 120.821 120.776 115.512 126.792C114.45 128.031 113.742 129.152 113.919 129.388C114.627 130.096 121.174 126.321 123.77 123.725C130.435 117.001 132.794 106.62 130.612 94.174C129.845 89.8682 129.845 89.6912 131.32 86.801C133.443 82.4951 136.746 78.3072 137.985 78.2482C138.162 78.2482 138.929 79.6639 139.755 81.3154C142.999 88.3936 150.962 97.2412 158.335 102.019C165.059 106.384 175.499 110.041 181.044 110.1C182.223 110.1 183.462 110.454 183.757 110.808C184.052 111.221 184.76 113.58 185.349 115.998C188.771 130.037 196.497 141.951 204.755 146.08C206.702 147.024 208.766 147.85 209.415 147.85C210.359 147.85 210.477 148.381 210.477 152.097C210.418 161.652 207.174 178.758 203.576 188.549C199.152 200.523 194.02 208.604 186.293 215.859L180.985 220.872V225.532C180.985 238.804 184.465 251.662 190.717 261.69C191.602 263.164 194.669 266.644 197.5 269.476C201.924 273.84 203.517 274.961 208.766 277.556C215.255 280.683 221.861 282.629 228.172 283.219C230.296 283.396 232.537 283.691 233.245 283.809L234.483 284.104L233.363 288.351C232.478 291.595 232.301 294.013 232.478 297.965C232.891 306.754 235.781 311.59 242.623 314.835C248.168 317.489 248.227 317.43 248.227 311.354C248.286 299.44 252.238 292.42 260.024 290.651C261.498 290.297 262.855 290.002 263.091 290.002C263.327 290.002 265.568 292.538 268.105 295.665L272.646 301.327L273.885 299.735C278.663 293.777 284.62 281.331 286.272 273.84C288.218 265.229 286.626 256.44 282.792 254.022C279.665 252.134 274.829 246.59 273.295 243.228C271.054 238.332 270.287 232.551 271.113 226.712C271.585 223.527 272.233 221.344 273 220.401C278.309 213.912 277.542 207.542 270.7 201.054C265.45 195.981 265.391 194.153 270.641 188.077C281.199 175.808 277.306 156.815 259.847 135.876L256.013 131.334L255.659 122.604C254.361 93.4662 254.361 93.6432 252.356 87.9807C241.68 57.7807 218.204 33.5971 185.703 19.2639C182.577 17.8482 178.035 16.4326 175.381 15.9607C168.362 14.6631 145.712 14.3092 140.993 15.3709Z" fill="#973F2F"/>
</g>
<defs>
<clipPath id="clip0_104_2840">
<rect width="302" height="302" fill="white"/>
</clipPath>
</defs>
</svg>
