<svg width="311" height="311" viewBox="0 0 311 311" fill="none" xmlns="http://www.w3.org/2000/svg">
<path d="M225.582 17.0247C220.766 28.4124 211.245 47.6631 197.29 61.1641C190.84 61.0535 184.501 61.2626 178.985 61.5205C178.715 61.5327 178.457 61.5451 178.199 61.5573C177.658 61.5941 177.13 61.6187 176.614 61.6433C176.012 61.6677 175.447 61.7045 174.882 61.7291C174.796 61.7413 174.698 61.7413 174.612 61.7537C174.6 61.6923 174.587 61.6433 174.587 61.5816C174.562 61.4466 174.526 61.3116 174.501 61.1641C174.44 60.8448 174.366 60.5374 174.28 60.2182C174.243 60.0585 174.206 59.911 174.157 59.7636C174.059 59.4445 173.961 59.1374 173.838 58.8176C173.789 58.695 173.752 58.5597 173.691 58.4247C173.519 57.9945 173.334 57.5526 173.113 57.1348C172.904 56.7298 172.683 56.3488 172.438 55.9678C172.364 55.845 172.278 55.7346 172.192 55.6115C172.02 55.3658 171.86 55.1201 171.676 54.8741C171.565 54.7391 171.455 54.6163 171.356 54.4812C171.172 54.2726 171 54.0635 170.816 53.8546C170.693 53.7317 170.57 53.6089 170.447 53.486C170.263 53.2893 170.066 53.1051 169.858 52.9211C169.735 52.7982 169.612 52.6878 169.477 52.5771C169.256 52.3926 169.035 52.2086 168.801 52.0368C168.678 51.9507 168.556 51.8523 168.433 51.7665C168.138 51.5573 167.843 51.3609 167.536 51.1769C167.462 51.1276 167.401 51.0784 167.327 51.0416C166.959 50.8324 166.59 50.636 166.209 50.452C179.685 30.7592 202.167 18.1056 225.582 17.0247Z" fill="#1EE2E2"/>
<path d="M155.717 49.5428C155.582 49.5796 155.447 49.6167 155.312 49.6657C154.87 49.7883 154.452 49.9357 154.071 50.1078C154.035 50.12 153.998 50.1324 153.961 50.1571C149.121 52.1716 145.718 56.5082 144.882 61.6309C144.833 61.9748 144.784 62.319 144.759 62.6629C144.735 62.9454 144.723 63.2279 144.71 63.535V63.6335L144.489 63.6456L138.052 64.0632C115.632 55.5501 97.3153 35.7834 90.3618 12.9583C97.2906 18.6953 105.89 22.0738 113.617 24.6535C115.546 25.2923 117.487 25.9066 119.44 26.5332C126.848 28.8795 134.513 31.3242 141.258 35.243C147.72 39.0144 152.806 44.0392 155.717 49.5428Z" fill="#1EE2E2"/>
<path d="M172.142 61.8522C172.142 61.8644 172.142 61.8768 172.142 61.8768V61.8887C169.636 62.0362 167.13 62.1959 164.612 62.3558L162.511 62.491C161.245 62.5768 159.993 62.6629 158.654 62.7243C158.346 62.7611 158.003 62.7857 157.597 62.8101C154.133 63.0438 150.656 63.2525 147.179 63.4735C147.192 63.2771 147.192 63.0807 147.204 62.8839C147.634 58.2158 150.595 54.1987 154.944 52.4053C154.944 52.4053 154.956 52.4053 154.968 52.3926C154.993 52.3926 155.005 52.3807 155.03 52.368C155.325 52.2454 155.644 52.1226 156.012 52.0119C156.639 51.8274 157.192 51.6926 157.72 51.6063C159.747 51.2746 161.934 51.4591 163.948 52.1713C166.97 53.2401 169.452 55.4148 170.926 58.2524C171.11 58.5963 171.258 58.9526 171.405 59.3212C171.454 59.4197 171.491 59.5298 171.528 59.6405C171.626 59.9108 171.712 60.1687 171.798 60.439C171.835 60.5496 171.86 60.66 171.896 60.7707C171.995 61.1273 172.081 61.4958 172.142 61.8522Z" fill="#1EE2E2"/>
<path d="M245.004 135.807C241.208 126.851 240.84 117.392 240.496 108.252C240.324 103.953 240.152 99.5177 239.636 95.1318C238.849 88.4857 237.879 80.218 233.297 74.3951C226.81 66.1274 214.709 64.4687 206.159 63.9406C203.69 63.7807 201.012 63.6827 197.757 63.6335H197.744C196.479 63.6088 195.214 63.5966 193.961 63.5966H192.425C190.361 63.6088 188.334 63.6459 186.369 63.7073C186.037 63.7073 185.705 63.7195 185.374 63.7317C184.796 63.7444 184.219 63.769 183.654 63.7934C183.273 63.8053 182.904 63.8177 182.536 63.8299C182.008 63.8545 181.492 63.8667 180.988 63.8913C180.57 63.9035 180.152 63.9281 179.735 63.9527C179.28 63.9649 178.838 63.9895 178.396 64.0142C177.88 64.0385 177.388 64.0631 176.885 64.0878C176.578 64.1005 176.258 64.1246 175.951 64.137C175.14 64.1863 174.354 64.2231 173.592 64.2723C170.644 64.4319 167.708 64.6162 164.772 64.8127L162.671 64.9479C161.406 65.0337 160.128 65.1198 158.838 65.1812C158.568 65.2058 158.199 65.2304 157.855 65.2551C153.851 65.5254 149.944 65.7708 146.025 66.0165L145.767 66.0287L99.8458 68.9772C93.8264 69.3582 87.0204 69.8006 81.9837 73.5227C75.2024 78.5104 73.3965 87.8223 72.1434 96.9498C69.8954 112.92 67.6593 128.903 65.4235 144.886L61.5171 172.76C59.2688 189.05 64.7971 205.635 76.6768 218.251C85.4605 227.587 96.4186 234.872 107.021 241.912C110.644 244.332 114.391 246.826 118.015 249.369C139.649 264.565 154.403 280.511 163.052 298.041C172.13 284.319 183.555 272.243 194.612 260.536C197.744 257.218 200.988 253.791 204.133 250.376C217.548 235.782 232.633 218.497 241.761 198.055C251.441 176.433 252.621 153.743 245.004 135.807ZM181.098 212.883L167.105 209.185L153.113 205.536C148.433 204.32 143.764 203.116 139.084 201.765C143.936 202.109 148.752 202.797 153.518 203.669C158.297 204.516 163.027 205.61 167.732 206.814C172.425 208.067 177.081 209.442 181.651 211.052C186.245 212.649 190.766 214.418 195.164 216.494C190.435 215.377 185.767 214.123 181.098 212.883ZM196.639 138.707C191.319 142.564 185.508 145.771 179.452 148.326C173.371 150.857 167.02 152.748 160.545 153.842C154.071 154.947 147.462 155.304 140.963 154.702C147.474 154.284 153.887 153.399 160.165 151.962C166.442 150.512 172.585 148.571 178.506 146.065C184.427 143.596 190.128 140.574 195.557 137.122C200.975 133.645 206.098 129.69 210.963 125.341C206.835 130.402 201.958 134.861 196.639 138.707ZM189.833 113.228C187.781 113.67 185.668 114.076 183.506 114.444C181.332 114.812 179.12 115.157 176.848 115.464C171.172 116.238 165.189 116.803 158.986 117.135C155.14 117.331 151.332 117.429 147.597 117.429C133.163 117.429 119.76 115.955 109.047 113.117C95.1284 109.444 87.2661 103.818 86.9343 97.2821C86.2955 85.108 112.082 73.9042 148.236 70.624C151.037 70.3783 153.826 70.1943 156.528 70.0465C161.688 69.7762 166.786 69.6902 171.688 69.7887C188.15 70.0836 202.228 72.3072 212.265 75.8573C222.302 79.3952 228.297 84.2849 228.591 89.8992C229.083 99.3824 213.432 108.228 189.833 113.228Z" fill="#1EE2E2"/>
<path d="M195.164 216.494C190.435 215.377 185.767 214.124 181.098 212.883L167.106 209.185L153.113 205.536C148.433 204.32 143.764 203.116 139.084 201.765C143.936 202.109 148.752 202.797 153.518 203.669C158.297 204.516 163.027 205.61 167.732 206.814C172.425 208.067 177.081 209.442 181.651 211.052C186.245 212.649 190.766 214.418 195.164 216.494Z" fill="#1EE2E2"/>
</svg>
