<?xml version="1.0" encoding="utf-8"?>
<!-- Generator: Adobe Illustrator 23.0.3, SVG Export Plug-In . SVG Version: 6.00 Build 0)  -->
<svg version="1.1" id="Layer_1" xmlns="http://www.w3.org/2000/svg" xmlns:xlink="http://www.w3.org/1999/xlink" x="0px" y="0px"
	 viewBox="0 0 1200 1200" enable-background="new 0 0 1200 1200" xml:space="preserve">
<g>
	<path fill="#032E38" d="M870.412,65.69c-18.582,43.94-55.318,118.219-109.166,170.313c-24.886-0.427-49.345,0.38-70.628,1.375
		c-1.043,0.047-2.039,0.095-3.034,0.142c-2.085,0.142-4.124,0.237-6.115,0.332c-2.323,0.094-4.503,0.236-6.683,0.331
		c-0.332,0.047-0.711,0.047-1.043,0.095c-0.047-0.237-0.095-0.426-0.095-0.664c-0.095-0.521-0.237-1.042-0.332-1.611
		c-0.237-1.232-0.521-2.418-0.853-3.65c-0.142-0.616-0.285-1.185-0.474-1.754c-0.379-1.231-0.758-2.416-1.232-3.65
		c-0.189-0.473-0.332-0.995-0.568-1.516c-0.664-1.66-1.375-3.365-2.228-4.977c-0.807-1.563-1.659-3.033-2.607-4.503
		c-0.285-0.474-0.616-0.9-0.948-1.375c-0.664-0.948-1.28-1.896-1.992-2.845c-0.426-0.521-0.853-0.995-1.232-1.516
		c-0.711-0.805-1.375-1.612-2.086-2.418c-0.474-0.474-0.948-0.948-1.422-1.422c-0.711-0.759-1.469-1.47-2.275-2.18
		c-0.473-0.474-0.948-0.9-1.469-1.327c-0.853-0.712-1.706-1.422-2.607-2.085c-0.474-0.332-0.948-0.712-1.422-1.043
		c-1.138-0.807-2.275-1.565-3.46-2.275c-0.285-0.19-0.522-0.38-0.806-0.522c-1.422-0.807-2.844-1.565-4.314-2.275
		C693.319,118.685,780.064,69.861,870.412,65.69z"/>
	<path fill="#032E38" d="M600.839,191.162c-0.521,0.142-1.043,0.285-1.564,0.474c-1.706,0.473-3.318,1.042-4.787,1.706
		c-0.142,0.047-0.285,0.095-0.427,0.19c-18.676,7.773-31.806,24.506-35.03,44.272c-0.189,1.327-0.379,2.655-0.474,3.982
		c-0.095,1.09-0.142,2.18-0.19,3.365v0.38l-0.853,0.047l-24.838,1.611C446.168,214.341,375.493,138.071,348.663,50
		c26.735,22.136,59.916,35.172,89.731,45.126c7.442,2.465,14.932,4.835,22.468,7.253c28.583,9.053,58.161,18.486,84.185,33.607
		C569.981,150.538,589.605,169.926,600.839,191.162z"/>
	<path fill="#032E38" d="M664.215,238.658c0,0.047,0,0.095,0,0.095v0.046c-9.67,0.569-19.34,1.185-29.058,1.802l-8.105,0.522
		c-4.883,0.331-9.717,0.663-14.884,0.9c-1.185,0.142-2.512,0.237-4.077,0.331c-13.367,0.902-26.781,1.707-40.196,2.56
		c0.047-0.758,0.047-1.516,0.095-2.275c1.659-18.012,13.083-33.512,29.863-40.432c0,0,0.047,0,0.095-0.049
		c0.095,0,0.142-0.046,0.237-0.095c1.138-0.473,2.37-0.947,3.792-1.374c2.418-0.712,4.551-1.232,6.589-1.565
		c7.821-1.28,16.258-0.568,24.032,2.18c11.661,4.124,21.236,12.515,26.924,23.464c0.711,1.327,1.28,2.702,1.848,4.124
		c0.19,0.38,0.332,0.805,0.474,1.232c0.379,1.043,0.711,2.038,1.043,3.081c0.142,0.427,0.237,0.853,0.379,1.28
		C663.646,235.861,663.978,237.283,664.215,238.658z"/>
	<path fill="#032E38" d="M945.354,524.015c-14.647-34.556-16.069-71.055-17.397-106.321c-0.663-16.591-1.327-33.703-3.318-50.626
		c-3.034-25.644-6.778-57.545-24.459-80.013c-25.028-31.901-71.719-38.301-104.71-40.339c-9.528-0.617-19.861-0.995-32.422-1.185
		H763c-4.883-0.095-9.764-0.142-14.599-0.142h-5.925c-7.964,0.047-15.785,0.19-23.369,0.427c-1.28,0-2.559,0.047-3.839,0.094
		c-2.228,0.049-4.456,0.144-6.637,0.238c-1.469,0.046-2.891,0.094-4.313,0.141c-2.038,0.095-4.029,0.142-5.973,0.237
		c-1.612,0.047-3.223,0.142-4.835,0.237c-1.754,0.047-3.46,0.142-5.167,0.237c-1.991,0.094-3.887,0.189-5.83,0.284
		c-1.185,0.049-2.417,0.142-3.603,0.19c-3.129,0.19-6.162,0.332-9.101,0.522c-11.376,0.616-22.706,1.327-34.034,2.085l-8.105,0.522
		c-4.883,0.331-9.812,0.663-14.79,0.9c-1.043,0.095-2.465,0.19-3.792,0.285c-15.452,1.043-30.526,1.99-45.647,2.938l-0.995,0.047
		L385.257,266.15c-23.226,1.47-49.487,3.177-68.921,17.539c-26.166,19.245-33.134,55.175-37.969,90.394
		c-8.674,61.622-17.302,123.293-25.929,184.961l-15.073,107.554c-8.675,62.856,12.656,126.848,58.494,175.529
		c33.892,36.024,76.174,64.133,117.082,91.294c13.983,9.339,28.441,18.961,42.424,28.773
		c83.474,58.636,140.403,120.163,173.774,187.805c35.03-52.948,79.113-99.543,121.775-144.717
		c12.087-12.799,24.601-26.023,36.736-39.201c51.762-56.312,109.971-123.007,145.19-201.883
		C970.192,680.772,974.743,593.221,945.354,524.015z M698.771,821.412l-53.991-14.268l-53.99-14.078
		c-18.06-4.693-36.073-9.338-54.133-14.553c18.724,1.327,37.305,3.982,55.697,7.347c18.439,3.27,36.689,7.49,54.843,12.135
		c18.108,4.835,36.073,10.143,53.706,16.353c17.728,6.162,35.172,12.988,52.142,20.999
		C734.796,831.035,716.784,826.2,698.771,821.412z M758.734,535.203c-20.525,14.884-42.946,27.256-66.315,37.115
		c-23.464,9.765-47.97,17.065-72.951,21.283c-24.98,4.266-50.483,5.641-75.558,3.319c25.123-1.612,49.866-5.025,74.089-10.572
		c24.222-5.593,47.923-13.083,70.77-22.753c22.848-9.527,44.842-21.187,65.793-34.507c20.904-13.415,40.67-28.678,59.442-45.458
		C798.077,503.158,779.259,520.365,758.734,535.203z M732.473,436.891c-7.916,1.707-16.069,3.272-24.411,4.694
		c-8.39,1.421-16.923,2.749-25.692,3.934c-21.899,2.987-44.984,5.167-68.921,6.447c-14.837,0.758-29.532,1.138-43.941,1.138
		c-55.697,0-107.412-5.688-148.747-16.638c-53.706-14.173-84.043-35.883-85.323-61.101c-2.465-46.974,97.031-90.204,236.534-102.861
		c10.807-0.948,21.567-1.658,31.996-2.228c19.908-1.043,39.58-1.375,58.493-0.995c63.519,1.138,117.841,9.718,156.567,23.416
		c38.727,13.651,61.859,32.518,62.997,54.181C883.921,383.469,823.532,417.599,732.473,436.891z"/>
	<path fill="#032E38" d="M753.046,835.348c-18.25-4.313-36.262-9.148-54.275-13.936l-53.991-14.268l-53.99-14.078
		c-18.06-4.693-36.073-9.338-54.133-14.553c18.724,1.327,37.305,3.982,55.697,7.347c18.439,3.27,36.689,7.49,54.843,12.135
		c18.108,4.835,36.073,10.143,53.706,16.353C718.632,820.512,736.076,827.338,753.046,835.348z"/>
</g>
</svg>
