<svg width="189" height="287" viewBox="0 0 189 287" fill="none" xmlns="http://www.w3.org/2000/svg">
<path d="M164.582 5.02466C159.766 16.4124 150.245 35.6631 136.29 49.1641C129.84 49.0535 123.501 49.2626 117.985 49.5205C117.715 49.5327 117.457 49.5451 117.199 49.5573C116.658 49.5941 116.13 49.6187 115.614 49.6433C115.012 49.6677 114.447 49.7045 113.882 49.7291C113.796 49.7413 113.698 49.7413 113.612 49.7537C113.6 49.6923 113.587 49.6433 113.587 49.5816C113.562 49.4466 113.526 49.3116 113.501 49.1641C113.44 48.8448 113.366 48.5374 113.28 48.2182C113.243 48.0585 113.206 47.911 113.157 47.7636C113.059 47.4445 112.961 47.1374 112.838 46.8176C112.789 46.695 112.752 46.5597 112.691 46.4247C112.519 45.9945 112.334 45.5526 112.113 45.1348C111.904 44.7298 111.683 44.3488 111.438 43.9678C111.364 43.845 111.278 43.7346 111.192 43.6115C111.02 43.3658 110.86 43.1201 110.676 42.8741C110.565 42.7391 110.455 42.6163 110.356 42.4812C110.172 42.2726 110 42.0635 109.816 41.8546C109.693 41.7317 109.57 41.6089 109.447 41.486C109.263 41.2893 109.066 41.1051 108.858 40.9211C108.735 40.7982 108.612 40.6878 108.477 40.5771C108.256 40.3926 108.035 40.2086 107.801 40.0368C107.678 39.9507 107.556 39.8523 107.433 39.7665C107.138 39.5573 106.843 39.3609 106.536 39.1769C106.462 39.1276 106.401 39.0784 106.327 39.0416C105.959 38.8324 105.59 38.636 105.209 38.452C118.685 18.7592 141.167 6.10564 164.582 5.02466Z" fill="#D3751E"/>
<path d="M94.7174 37.5428C94.5824 37.5796 94.4471 37.6167 94.3121 37.6657C93.87 37.7883 93.4522 37.9357 93.0715 38.1078C93.0347 38.12 92.9976 38.1324 92.9608 38.1571C88.1206 40.1716 84.7178 44.5082 83.8822 49.6309C83.8332 49.9748 83.784 50.319 83.7594 50.6629C83.7347 50.9454 83.7226 51.2279 83.7101 51.535V51.6335L83.489 51.6456L77.0519 52.0632C54.6319 43.5501 36.3153 23.7834 29.3618 0.958344C36.2906 6.69526 44.8901 10.0738 52.6171 12.6535C54.5458 13.2923 56.487 13.9066 58.4401 14.5332C65.8478 16.8795 73.5135 19.3242 80.258 23.243C86.7201 27.0144 91.806 32.0392 94.7174 37.5428Z" fill="#D3751E"/>
<path d="M111.142 49.8522C111.142 49.8644 111.142 49.8768 111.142 49.8768V49.8887C108.636 50.0362 106.13 50.1959 103.612 50.3558L101.511 50.491C100.245 50.5768 98.9927 50.6629 97.6536 50.7243C97.3465 50.7611 97.0025 50.7857 96.5969 50.8101C93.1327 51.0438 89.6562 51.2525 86.1795 51.4735C86.1917 51.2771 86.1916 51.0807 86.2041 50.8839C86.634 46.2158 89.5948 42.1987 93.9436 40.4053C93.9436 40.4053 93.9558 40.4053 93.9682 40.3926C93.9928 40.3926 94.005 40.3807 94.0296 40.368C94.3246 40.2454 94.6439 40.1226 95.0124 40.0119C95.6391 39.8274 96.1918 39.6926 96.72 39.6063C98.747 39.2746 100.934 39.4591 102.948 40.1713C105.97 41.2401 108.452 43.4148 109.926 46.2524C110.11 46.5963 110.258 46.9526 110.405 47.3212C110.454 47.4197 110.491 47.5298 110.528 47.6405C110.626 47.9108 110.712 48.1687 110.798 48.439C110.835 48.5496 110.86 48.66 110.896 48.7707C110.995 49.1273 111.081 49.4958 111.142 49.8522Z" fill="#D3751E"/>
<path d="M184.004 123.807C180.208 114.851 179.84 105.392 179.496 96.2524C179.324 91.9525 179.152 87.5177 178.636 83.1318C177.849 76.4857 176.879 68.218 172.297 62.3951C165.81 54.1274 153.709 52.4687 145.159 51.9406C142.69 51.7807 140.012 51.6827 136.757 51.6335H136.744C135.479 51.6088 134.214 51.5966 132.961 51.5966H131.425C129.361 51.6088 127.334 51.6459 125.369 51.7073C125.037 51.7073 124.705 51.7195 124.374 51.7317C123.796 51.7444 123.219 51.769 122.654 51.7934C122.273 51.8053 121.904 51.8177 121.536 51.8299C121.008 51.8545 120.492 51.8667 119.988 51.8913C119.57 51.9035 119.152 51.9281 118.735 51.9527C118.28 51.9649 117.838 51.9895 117.396 52.0142C116.88 52.0385 116.388 52.0631 115.885 52.0878C115.578 52.1005 115.258 52.1246 114.951 52.137C114.14 52.1863 113.354 52.2231 112.592 52.2723C109.644 52.4319 106.708 52.6162 103.772 52.8127L101.671 52.9479C100.406 53.0337 99.1282 53.1198 97.8381 53.1812C97.5678 53.2058 97.1992 53.2304 96.8553 53.2551C92.8507 53.5254 88.944 53.7708 85.0251 54.0165L84.7672 54.0287L38.8458 56.9772C32.8264 57.3582 26.0204 57.8006 20.9837 61.5227C14.2024 66.5104 12.3965 75.8223 11.1434 84.9498C8.89544 100.92 6.65935 116.903 4.42352 132.886L0.517096 160.76C-1.73117 177.05 3.79711 193.635 15.6768 206.251C24.4605 215.587 35.4186 222.872 46.0205 229.912C49.6445 232.332 53.3915 234.826 57.0154 237.369C78.6491 252.565 93.4032 268.511 102.052 286.041C111.13 272.319 122.555 260.243 133.612 248.536C136.744 245.218 139.988 241.791 143.133 238.376C156.548 223.782 171.633 206.497 180.761 186.055C190.441 164.433 191.621 141.743 184.004 123.807ZM120.098 200.883L106.105 197.185L92.1131 193.536C87.4325 192.32 82.7641 191.116 78.0836 189.765C82.9362 190.109 87.7518 190.797 92.5184 191.669C97.2972 192.516 102.027 193.61 106.732 194.814C111.425 196.067 116.081 197.442 120.651 199.052C125.245 200.649 129.766 202.418 134.164 204.494C129.435 203.377 124.767 202.123 120.098 200.883ZM135.639 126.707C130.319 130.564 124.508 133.771 118.452 136.326C112.371 138.857 106.02 140.748 99.5455 141.842C93.0715 142.947 86.4619 143.304 79.9633 142.702C86.4744 142.284 92.8869 141.399 99.1647 139.962C105.442 138.512 111.585 136.571 117.506 134.065C123.427 131.596 129.128 128.574 134.557 125.122C139.975 121.645 145.098 117.69 149.963 113.341C145.835 118.402 140.958 122.861 135.639 126.707ZM128.833 101.228C126.781 101.67 124.668 102.076 122.506 102.444C120.332 102.812 118.12 103.157 115.848 103.464C110.172 104.238 104.189 104.803 97.9855 105.135C94.1403 105.331 90.3318 105.429 86.5975 105.429C72.1627 105.429 58.7599 103.955 48.0472 101.117C34.1284 97.4443 26.2661 91.8178 25.9343 85.2821C25.2955 73.108 51.0815 61.9042 87.2361 58.624C90.0369 58.3783 92.8255 58.1943 95.5284 58.0465C100.688 57.7762 105.786 57.6902 110.688 57.7887C127.15 58.0836 141.228 60.3072 151.265 63.8573C161.302 67.3952 167.297 72.2849 167.591 77.8992C168.083 87.3824 152.432 96.2277 128.833 101.228Z" fill="#D3751E"/>
<path d="M134.164 204.494C129.435 203.377 124.767 202.124 120.098 200.883L106.106 197.185L92.1131 193.536C87.4325 192.32 82.7642 191.116 78.0836 189.765C82.9363 190.109 87.7518 190.797 92.5184 191.669C97.2972 192.516 102.027 193.61 106.732 194.814C111.425 196.067 116.081 197.442 120.651 199.052C125.245 200.649 129.766 202.418 134.164 204.494Z" fill="#D3751E"/>
</svg>
