<?xml version="1.0" encoding="utf-8"?>
<!-- Designed by Vexels.com - 2019 All Rights Reserved - https://vexels.com/terms-and-conditions/  -->
<svg version="1.1" id="Layer_1" xmlns="http://www.w3.org/2000/svg" xmlns:xlink="http://www.w3.org/1999/xlink" x="0px" y="0px"
	 viewBox="0 0 500 500" enable-background="new 0 0 500 500" xml:space="preserve">
<g>
	<g>
		<path d="M138.987,377.144c-0.731,0-1.492-0.056-2.287-0.167c-1.505-0.211-3.487-0.522-5.475-1.064
			c-1.592-0.435-3.895-1.245-5.502-3.27c-1.998-2.517-2.174-4.817-0.568-7.461c0.228-0.375,0.482-0.735,0.738-1.095
			c0.342-0.479,0.664-0.932,0.896-1.402c0.593-1.196,0.646-2.125,0.17-2.923c-0.41-0.686-1.042-0.71-2.387-0.6
			c-0.486,0.039-0.954,0.224-1.449,0.418l-0.875,0.341c-1.024,0.4-2.084,0.815-3.239,1.042c-1.804,0.351-3.475-0.452-4.36-2.105
			c-1.321-2.466-0.792-4.901-0.183-6.748c1.128-3.423,3.387-6.035,5.229-7.93c5.446-5.603,11.715-10.231,18.632-13.756l0.498-0.254
			c2.458-1.25,5-2.543,7.148-4.325c0.373-0.309,0.546-0.495,0.626-0.599c-0.104-0.105-0.342-0.305-0.87-0.618
			c-1.196-0.711-2.542-0.962-3.968-1.229l-0.474-0.089c-1.958-0.374-4.395-0.839-6.322-2.555c-1.389-1.236-2.12-2.682-2.115-4.18
			c0.006-1.52,0.777-2.997,2.23-4.271c0.986-0.864,2.069-1.532,3.116-2.179l0.557-0.345c1.705-1.063,2.665-2.139,3.113-3.486
			c0.19-0.573,0.149-1.139-0.117-1.634c-0.293-0.543-0.826-0.941-1.502-1.122c-1.472-0.393-2.951-0.13-4.515,0.148
			c-0.908,0.161-1.766,0.302-2.624,0.442c-2.066,0.339-4.202,0.689-6.244,1.191c-1.387,0.339-2.629,0.225-3.831,0.11
			c-0.291-0.027-0.584-0.055-0.882-0.076c-1.323-0.089-2.817,0.049-4.709,0.442c-1.087,0.227-2.185,0.375-3.245,0.52
			c-0.907,0.123-1.845,0.251-2.746,0.424c-1.382,0.267-2.786,0.463-4.144,0.652c-1.106,0.155-2.214,0.31-3.316,0.503
			c-2.188,0.383-4.429,0.682-6.596,0.972l-0.619,0.083c-1.209,0.162-2.286,0.246-3.293,0.255c-0.01,0-0.021,0-0.031,0
			c-1.164,0-2.258-0.52-3.006-1.428c-0.81-0.983-1.125-2.281-0.864-3.559c0.871-4.279,3.51-7.554,6.23-10.455
			c3.569-3.807,7.786-6.885,11.864-9.861c2.197-1.604,4.469-3.262,6.595-5.004c4.759-3.9,8.134-8.2,10.317-13.146
			c0.478-1.08,0.862-2.178,1.146-3.264c0.079-0.3,0.054-0.377-0.179-0.547c-2.327-1.708-5.357-4.006-8.146-6.641
			c-4.063-3.839-6.338-7.856-6.953-12.28c-0.544-3.898-0.135-7.745,1.214-11.435c1.853-5.065,4.975-9.857,9.825-15.079l0.41-0.442
			c0.701-0.76,1.427-1.546,2.203-2.276c0.998-0.941,2.129-2.008,3.976-2.415c1.187-0.262,2.385-0.951,3.545-1.617l0.699-0.399
			c5.166-2.898,10.664-6.092,15.869-9.807c6.823-4.868,12.865-9.396,17.71-15.515c2.681-3.386,4.495-6.819,5.547-10.497
			c0.239-0.836,0.262-1.744,0.06-2.493c-0.056-0.209-0.178-0.479-0.439-0.575c-0.267-0.098-0.64-0.003-1.023,0.259
			c-0.251,0.173-0.436,0.428-0.669,0.75l-0.186,0.254c-0.322,0.428-0.66,0.841-0.999,1.254c-1.109,1.349-2.518,2.58-4.544,1.461
			c-1.725-0.948-2.539-3.078-1.938-5.064c0.598-1.978,1.567-3.762,2.505-5.487c0.208-0.381,0.415-0.763,0.618-1.146
			c2.907-5.48,5.626-10.898,6.938-16.931c0.645-2.955,0.735-5.944,0.27-8.884c-0.084-0.526-0.406-0.969-0.862-1.183
			c-0.243-0.113-0.736-0.258-1.289,0.074c-0.649,0.389-1.1,0.788-1.416,1.257c-0.347,0.514-0.751,0.955-1.143,1.383
			c-0.167,0.182-0.334,0.363-0.493,0.549c-0.963,1.119-2.249,1.688-3.614,1.576c-1.479-0.111-2.883-1.011-3.757-2.404
			c-0.969-1.547-1.202-3.167-1.292-4.252c-0.404-4.842-0.482-9.966-0.234-15.23c0.328-6.95,2.657-13.647,6.924-19.905
			c2.181-3.198,4.094-6.113,5.407-9.414l0.097-0.229c0.047-0.106,0.117-0.269,0.12-0.322c-0.177-0.523,0.104-1.08,0.628-1.257
			c0.521-0.178,1.091,0.113,1.27,0.637c0.252,0.743-0.011,1.345-0.185,1.742l-0.072,0.171c-1.389,3.487-3.363,6.501-5.612,9.799
			c-4.055,5.948-6.269,12.298-6.578,18.872c-0.245,5.179-0.168,10.215,0.229,14.971c0.118,1.412,0.425,2.447,0.995,3.355
			c0.537,0.858,1.364,1.409,2.212,1.473c0.714,0.045,1.401-0.251,1.947-0.886c0.173-0.202,0.354-0.399,0.535-0.597
			c0.357-0.391,0.695-0.759,0.959-1.15c0.486-0.721,1.138-1.311,2.049-1.854c0.983-0.588,2.137-0.647,3.162-0.169
			c1.059,0.496,1.803,1.498,1.989,2.682c0.505,3.186,0.407,6.423-0.289,9.622c-1.366,6.274-4.27,12.058-7.126,17.442
			c-0.207,0.39-0.418,0.777-0.628,1.165c-0.931,1.711-1.81,3.328-2.349,5.11c-0.329,1.088,0.086,2.237,0.987,2.733
			c0.469,0.26,0.845,0.467,2.034-0.979c0.32-0.39,0.642-0.781,0.946-1.186l0.163-0.224c0.292-0.403,0.621-0.859,1.16-1.229
			c0.926-0.634,1.964-0.813,2.847-0.485c0.816,0.302,1.429,1.006,1.678,1.932c0.293,1.089,0.269,2.388-0.068,3.563
			c-1.125,3.933-3.056,7.593-5.901,11.188c-5.001,6.315-11.423,11.125-18.116,15.901c-5.283,3.77-10.838,6.996-16.053,9.922
			l-0.681,0.389c-1.291,0.742-2.625,1.51-4.112,1.837c-1.215,0.268-1.99,0.933-3.034,1.917c-0.726,0.684-1.427,1.443-2.105,2.178
			l-0.414,0.447c-4.663,5.021-7.653,9.598-9.411,14.405c-1.235,3.378-1.609,6.9-1.112,10.472c0.55,3.956,2.626,7.588,6.346,11.103
			c2.709,2.559,5.676,4.808,7.957,6.48c0.623,0.457,1.29,1.291,0.931,2.666c-0.311,1.188-0.731,2.389-1.251,3.566
			c-2.314,5.238-5.873,9.779-10.88,13.884c-2.169,1.777-4.464,3.453-6.684,5.073c-4.004,2.922-8.144,5.943-11.584,9.612
			c-2.912,3.105-5.001,5.907-5.73,9.486c-0.139,0.685,0.024,1.373,0.449,1.889c0.371,0.451,0.89,0.699,1.46,0.699
			c0.006,0,0.011,0,0.017,0c0.922-0.009,1.918-0.086,3.044-0.237l0.62-0.083c2.146-0.287,4.367-0.584,6.515-0.96
			c1.126-0.196,2.256-0.354,3.386-0.513c1.332-0.186,2.71-0.379,4.041-0.635c0.956-0.185,1.922-0.315,2.856-0.442
			c1.025-0.14,2.087-0.284,3.105-0.496c2.076-0.433,3.744-0.586,5.258-0.479c0.313,0.022,0.622,0.052,0.929,0.08
			c1.087,0.104,2.109,0.198,3.166-0.061c2.118-0.521,4.294-0.879,6.397-1.224c0.85-0.14,1.7-0.279,2.547-0.429
			c1.765-0.313,3.537-0.626,5.432-0.12c1.214,0.324,2.189,1.071,2.746,2.104c0.528,0.979,0.619,2.119,0.256,3.214
			c-0.776,2.334-2.521,3.659-3.953,4.553l-0.565,0.35c-1.021,0.631-1.987,1.227-2.848,1.98c-1.01,0.885-1.545,1.845-1.549,2.774
			c-0.004,1.146,0.783,2.089,1.445,2.678c1.403,1.25,3.185,1.668,5.367,2.084l0.466,0.088c1.534,0.286,3.12,0.583,4.622,1.474
			c0.939,0.558,1.82,1.209,1.897,2.187c0.076,0.979-0.682,1.696-1.397,2.29c-2.32,1.925-4.963,3.27-7.52,4.569l-0.496,0.252
			c-6.721,3.426-12.813,7.924-18.106,13.369c-1.692,1.74-3.763,4.127-4.763,7.162c-0.729,2.208-0.715,3.757,0.047,5.177
			c0.461,0.862,1.295,1.269,2.212,1.087c0.979-0.191,1.91-0.556,2.896-0.941l0.871-0.339c0.58-0.229,1.238-0.488,1.949-0.546
			c1.336-0.105,3.247-0.263,4.336,1.563c0.835,1.397,0.803,3.024-0.094,4.835c-0.304,0.613-0.688,1.153-1.06,1.676
			c-0.228,0.319-0.456,0.64-0.659,0.973c-1.18,1.943-1.068,3.298,0.426,5.179c0.945,1.19,2.363,2.012,4.461,2.584
			c1.88,0.513,3.78,0.811,5.227,1.014c2.624,0.367,4.711,0.067,6.565-0.941c3.727-2.027,6.593-4.797,8.521-8.231l0.147-0.264
			c0.75-1.35,1.602-2.879,3.472-3.466l0.133-0.041c0.085-0.025,0.157-0.04,0.221-0.072c-0.002-0.004,0.027-0.042,0.073-0.131
			c1.404-2.688,3.327-4.721,5.714-6.042c3.059-1.693,6.114-1.827,9.084-0.398c1.47,0.707,2.84,1.572,4.164,2.409l0.322,0.204
			c2.454,1.549,4.821,1.986,7.239,1.334c2.08-0.56,3.933-1.658,5.506-3.265c4.377-4.468,8.036-8.247,11.671-12.167
			c2.893-3.118,4.988-6.102,6.406-9.119l0.126-0.276c0.235-0.524,0.526-1.177,1.165-1.666c0.439-0.334,1.066-0.252,1.402,0.186
			c0.336,0.438,0.253,1.066-0.186,1.402c-0.225,0.172-0.357,0.452-0.556,0.895l-0.143,0.313c-1.507,3.205-3.715,6.354-6.749,9.626
			c-3.65,3.938-7.32,7.728-11.708,12.207c-1.827,1.865-3.985,3.143-6.416,3.797c-2.942,0.795-5.914,0.265-8.826-1.574l-0.323-0.204
			c-1.336-0.844-2.597-1.642-3.963-2.298c-2.385-1.147-4.756-1.033-7.248,0.346c-2.038,1.128-3.689,2.883-4.909,5.218
			c-0.425,0.813-0.925,1.021-1.486,1.191l-0.115,0.035c-1.109,0.349-1.672,1.359-2.323,2.53l-0.15,0.27
			c-2.116,3.769-5.248,6.8-9.31,9.01C142.862,376.703,141.043,377.144,138.987,377.144z"/>
	</g>
	<g>
		<path d="M375.312,364.048c-2.414,0-4.285-1.177-5.859-2.291c-0.526-0.374-1.03-0.778-1.533-1.185
			c-0.9-0.727-1.751-1.413-2.724-1.892c-0.13-0.064-0.264-0.123-0.398-0.178c-0.605,0.903-1.481,1.599-2.502,1.968
			c-1.277,0.46-2.629,0.376-3.809-0.231c-0.442-0.229-0.843-0.495-1.231-0.754c-0.441-0.295-0.859-0.573-1.284-0.757
			c-0.149-0.064-0.301-0.123-0.451-0.183c-0.704-0.274-1.502-0.587-2.117-1.365c-0.342-0.434-0.268-1.063,0.165-1.405
			c0.435-0.341,1.063-0.268,1.405,0.165c0.278,0.354,0.719,0.525,1.275,0.743c0.172,0.067,0.345,0.135,0.516,0.209
			c0.591,0.255,1.104,0.598,1.601,0.929c0.358,0.238,0.696,0.464,1.039,0.641c0.68,0.352,1.466,0.396,2.213,0.127
			c0.804-0.29,1.463-0.921,1.808-1.731c0.214-0.504,0.795-0.74,1.299-0.534l0.394,0.155c0.324,0.126,0.65,0.253,0.964,0.408
			c1.171,0.576,2.148,1.366,3.095,2.129c0.471,0.38,0.941,0.76,1.434,1.109c1.761,1.247,3.202,2.007,4.974,1.916
			c1.679-0.082,2.891-1.18,3.088-2.798c0.202-1.667-0.178-3.207-1.195-4.844c-0.841-1.354-1.5-2.593-2.014-3.786
			c-0.654-1.516-0.613-3.091,0.113-4.321c0.688-1.164,1.885-1.885,3.372-2.029c3.337-0.323,6.237,0.217,8.868,1.656
			c0.801,0.438,1.579,0.908,2.357,1.378c0.597,0.361,1.193,0.722,1.8,1.066c0.771,0.437,1.088,0.276,1.326,0.095
			c0.271-0.206,0.369-0.379,0.25-1.271c-0.195-1.457-1.038-2.646-1.93-3.904c-2.805-3.96-6.762-6.901-12.111-9.01
			c-3.289-1.296-5.983-1.574-8.481-0.874c-0.92,0.258-1.219,0.509-1.308,0.674c-0.089,0.166-0.134,0.556,0.162,1.469
			c0.757,2.334,0.115,3.892-2.146,5.207c-2.262,1.315-4.551,0.951-6.491,0.422c-1.359-0.371-2.689-0.854-3.977-1.322
			c-0.685-0.249-1.37-0.499-2.06-0.731c-1.512-0.509-3.159-0.651-4.905-0.422c-0.456,0.061-0.577,0.128-0.608,0.154
			c0.087,4.13-3.142,5.595-5.575,6.34c-0.866,0.266-1.777,0.08-2.506-0.508c-1.26-1.016-2.651-1.932-3.997-2.818
			c-0.717-0.472-1.434-0.944-2.138-1.434l-0.153-0.107c-1.684-1.17-3.424-2.379-4.821-4.071c-1.936-2.345-2.732-5.14-2.184-7.668
			c0.515-2.373,2.188-4.356,4.711-5.587c2.778-1.354,5.719-1.783,8.738-2.137c2.363-0.277,4.86-0.634,7.126-1.655
			c1.251-0.564,1.969-1.194,2.133-1.871c0.165-0.682-0.187-1.576-1.046-2.658c-0.803-1.011-1.865-1.845-3.445-2.702
			c-3.091-1.678-6.475-2.021-9.959-2.247c-0.913-0.06-1.826-0.101-2.739-0.143c-1.75-0.079-3.559-0.161-5.354-0.371
			c-3.58-0.417-6.478-1.444-8.857-3.139c-4.964-3.532-6.211-9.159-3.255-14.685c0.675-1.26,1.479-1.616,2.862-1.269
			c2.23,0.558,4.646,1.065,7.157,1.019c3.286-0.064,5.787-1.157,7.645-3.343c2.273-2.675,3.092-5.465,2.5-8.532
			c-0.227-1.176-0.663-2.276-1.126-3.442c-0.234-0.59-0.469-1.18-0.676-1.78c-1.705-4.944-0.488-8.151,3.83-10.095
			c2.333-1.049,4.906-0.722,6.976-0.46c0.939,0.119,1.873,0.298,2.775,0.471c1.291,0.247,2.51,0.48,3.743,0.555
			c2.675,0.161,5.552,0.253,8.452-0.152c2.977-0.417,5.695-1.116,8.31-2.141c6.852-2.685,11.81-7.204,15.156-13.814
			c0.282-0.558,0.492-1.17,0.715-1.818c0.265-0.77,0.538-1.566,0.955-2.319c0.173-0.313,0.159-0.329-0.068-0.599
			c-3.235-3.834-6.69-6.746-10.563-8.901c-0.583-0.324-0.791-0.743-0.94-1.111c-0.942-2.328-1.924-3.97-3.181-5.323
			c-2.005-2.156-4.604-3.262-7.356-4.433c-0.446-0.19-0.892-0.38-1.336-0.574c-0.604-0.265-1.213-0.516-1.821-0.767
			c-2.758-1.138-5.609-2.314-7.95-4.733c-3.137-3.242-5.449-6.714-7.069-10.613c-1.53-3.687-2.577-7.747-3.295-12.778
			c-0.514-3.612-0.798-7.447-0.895-12.067l-0.035-1.511c-0.078-3.251-0.16-6.612,0.213-9.953c0.121-1.077,0.123-2.16,0.126-3.307
			c0.002-0.977,0.005-1.986,0.086-2.999c0.148-1.843,0.256-3.729,0.358-5.553c0.049-0.863,0.098-1.727,0.151-2.589
			c0.133-2.143,0.281-4.284,0.43-6.425c0.103-1.474,0.205-2.947,0.302-4.422l0.495-7.432c0.239-3.604,0.353-7.137,0.465-11.049
			c0.175-6.083,0.044-11.586-0.399-16.822c-0.261-3.073-0.583-6.211-0.987-9.591c-0.537-4.507-1.455-9.038-2.729-13.467
			c-1.669-5.804-3.759-11.015-6.388-15.932c-3.138-5.869-7.121-11.163-12.178-16.184c-0.201-0.2-0.491-0.37-0.798-0.551
			c-0.544-0.319-1.221-0.716-1.674-1.461c-0.338-0.558-0.889-0.998-1.472-1.464l-0.127-0.102c-4.295-3.443-8.984-6.394-13.939-8.769
			c-1.82-0.873-3.354-1.511-5.096-1.162c-0.484,0.097-0.918-0.039-1.234-0.138c-0.066-0.021-0.133-0.043-0.198-0.06
			c-2.456-0.645-4.966-1.303-7.466-1.766c-1.27-0.235-2.58-0.409-3.849-0.577c-0.781-0.104-1.563-0.208-2.343-0.326
			c-1.161-0.175-2.354-0.173-3.451,0.008l-0.141,0.023c-0.688,0.112-1.233,0.218-1.656,0.421c0.938,0.312,1.875,0.653,2.787,0.985
			c0.456,0.167,0.911,0.333,1.368,0.496c0.132,0.047,0.267,0.091,0.4,0.135c0.748,0.246,1.678,0.552,2.358,1.399
			c0.346,0.431,0.276,1.061-0.154,1.406c-0.432,0.345-1.06,0.275-1.406-0.154c-0.294-0.366-0.731-0.524-1.423-0.752
			c-0.149-0.049-0.299-0.098-0.446-0.15c-0.462-0.165-0.922-0.333-1.383-0.5c-1.095-0.399-2.227-0.813-3.345-1.168
			c-0.423-0.134-0.687-0.378-0.844-0.524c-0.028-0.027-0.056-0.056-0.087-0.078c-0.411-0.298-0.604-0.901-0.357-1.344
			c0.928-1.664,2.625-1.942,3.864-2.146l0.138-0.022c1.3-0.215,2.712-0.219,4.076-0.012c0.768,0.115,1.537,0.218,2.308,0.319
			c1.293,0.172,2.63,0.35,3.95,0.594c2.571,0.477,5.117,1.145,7.58,1.79c0.123,0.032,0.222,0.063,0.319,0.094
			c0.097,0.03,0.242,0.076,0.294,0.08c2.291-0.466,4.289,0.361,6.301,1.325c5.092,2.44,9.911,5.473,14.325,9.011l0.126,0.101
			c0.661,0.528,1.41,1.128,1.931,1.987c0.19,0.313,0.555,0.526,0.977,0.774c0.382,0.224,0.815,0.478,1.196,0.855
			c5.199,5.163,9.298,10.613,12.531,16.66c2.696,5.043,4.838,10.382,6.546,16.322c1.304,4.532,2.244,9.169,2.794,13.783
			c0.406,3.402,0.731,6.562,0.993,9.658c0.451,5.312,0.584,10.889,0.407,17.049c-0.113,3.933-0.228,7.484-0.469,11.124l-0.495,7.43
			c-0.098,1.478-0.2,2.953-0.303,4.43c-0.147,2.136-0.296,4.271-0.429,6.41c-0.053,0.858-0.102,1.719-0.15,2.578
			c-0.104,1.836-0.211,3.734-0.361,5.6c-0.076,0.936-0.078,1.905-0.08,2.844c-0.003,1.149-0.005,2.338-0.138,3.524
			c-0.358,3.205-0.278,6.498-0.201,9.683l0.035,1.518c0.095,4.537,0.372,8.295,0.875,11.826c0.692,4.86,1.697,8.767,3.162,12.293
			c1.521,3.664,3.7,6.932,6.659,9.99c2.051,2.12,4.589,3.166,7.275,4.274c0.622,0.257,1.244,0.514,1.861,0.784
			c0.438,0.191,0.877,0.379,1.315,0.565c2.824,1.201,5.744,2.443,8.039,4.912c1.431,1.54,2.531,3.369,3.569,5.934
			c0.021,0.05,0.036,0.094,0.06,0.131c4.088,2.259,7.726,5.32,11.12,9.344c0.483,0.573,1.04,1.493,0.29,2.854
			c-0.333,0.603-0.566,1.283-0.814,2.004c-0.234,0.684-0.478,1.391-0.821,2.07c-3.529,6.972-8.983,11.942-16.212,14.774
			c-2.763,1.082-5.628,1.82-8.762,2.259c-3.076,0.431-6.072,0.335-8.85,0.168c-1.362-0.082-2.703-0.338-3.999-0.586
			c-0.872-0.167-1.774-0.34-2.651-0.451c-1.916-0.243-4.086-0.519-5.903,0.3c-3.313,1.49-4.112,3.697-2.76,7.618
			c0.197,0.571,0.421,1.133,0.644,1.694c0.477,1.2,0.97,2.441,1.231,3.802c0.704,3.65-0.285,7.084-2.94,10.206
			c-2.219,2.61-5.29,3.973-9.129,4.048c-2.76,0.035-5.316-0.488-7.681-1.079c-0.271-0.067-0.386-0.065-0.424-0.067
			c0.01,0.011-0.061,0.097-0.19,0.34c-2.481,4.637-1.49,9.165,2.651,12.112c2.128,1.515,4.647,2.398,7.93,2.781
			c1.724,0.201,3.497,0.281,5.212,0.359c0.926,0.042,1.853,0.085,2.777,0.145c3.568,0.232,7.339,0.615,10.784,2.485
			c1.804,0.979,3.093,2.001,4.058,3.216c1.263,1.591,1.741,3.063,1.423,4.374c-0.321,1.325-1.386,2.38-3.254,3.222
			c-2.525,1.14-5.196,1.523-7.716,1.819c-2.95,0.346-5.595,0.731-8.094,1.949c-1.99,0.969-3.246,2.426-3.634,4.212
			c-0.417,1.926,0.229,4.102,1.772,5.971c1.222,1.48,2.775,2.56,4.42,3.702l0.154,0.107c0.69,0.48,1.393,0.943,2.096,1.406
			c1.385,0.912,2.817,1.855,4.151,2.932c0.212,0.171,0.438,0.22,0.666,0.152c3.005-0.921,4.217-2.186,4.182-4.365
			c-0.015-0.86,0.377-1.941,2.325-2.199c2.05-0.271,4.002-0.099,5.806,0.51c0.705,0.237,1.404,0.491,2.104,0.746
			c1.248,0.454,2.54,0.923,3.819,1.272c1.619,0.442,3.34,0.721,4.959-0.221c1.555-0.905,1.679-1.536,1.249-2.861
			c-0.289-0.893-0.553-2.043-0.022-3.031c0.529-0.987,1.631-1.402,2.531-1.654c2.939-0.824,6.036-0.526,9.754,0.938
			c5.723,2.256,9.974,5.428,12.998,9.697c0.958,1.354,2.03,2.867,2.292,4.813c0.1,0.745,0.284,2.131-1.018,3.126
			c-0.706,0.537-1.89,0.984-3.528,0.055c-0.623-0.354-1.234-0.724-1.847-1.094c-0.754-0.455-1.508-0.911-2.283-1.336
			c-2.268-1.24-4.788-1.704-7.715-1.42c-0.835,0.081-1.489,0.456-1.843,1.056c-0.398,0.674-0.398,1.59,0,2.513
			c0.475,1.102,1.089,2.253,1.877,3.522c1.254,2.017,1.738,4.025,1.481,6.141c-0.316,2.595-2.315,4.425-4.976,4.555
			C375.556,364.045,375.433,364.048,375.312,364.048z"/>
	</g>
	<g>
		<path d="M305.579,164.584c-0.301,0-0.599-0.136-0.796-0.393c-0.782-1.024-0.896-2.167-0.997-3.176
			c-0.034-0.345-0.067-0.688-0.133-1.022c-0.5-2.562-0.915-5.25-1.235-7.991l-0.114-0.953c-0.158-1.304-0.321-2.651-0.374-3.995
			c-0.196-5.009-1.129-10.154-2.936-16.192c-0.913-3.056-2.16-6.242-3.811-9.74c-3.3-6.996-7.143-12.554-11.75-16.99
			c-3.547-3.416-7.478-6.913-12.181-9.352c-2.741-1.42-5.64-2.413-8.613-2.951c-2.829-0.511-5.798-0.751-9.072-0.714
			c-3.242,0.031-6.286,1.179-8.886,2.252c-4.303,1.776-8.408,4.273-12.552,7.635c-5.231,4.245-9.825,9.396-14.042,15.746
			c-2.805,4.225-5.416,8.993-8.468,15.463c-3.648,7.734-6.386,15.727-9.333,24.621c-0.217,0.655-0.545,1.647-1.597,2.167
			c-0.497,0.245-1.096,0.042-1.34-0.453c-0.245-0.495-0.042-1.096,0.453-1.34c0.261-0.129,0.386-0.4,0.585-1.003
			c2.969-8.958,5.727-17.011,9.423-24.846c3.094-6.561,5.75-11.407,8.61-15.715c4.331-6.522,9.057-11.819,14.448-16.193
			c4.296-3.485,8.563-6.08,13.048-7.931c2.772-1.146,6.032-2.369,9.63-2.403c3.4-0.037,6.492,0.212,9.447,0.745
			c3.172,0.574,6.259,1.632,9.178,3.145c4.93,2.556,8.992,6.166,12.647,9.686c4.786,4.608,8.768,10.358,12.172,17.578
			c1.694,3.59,2.976,6.868,3.918,10.021c1.855,6.203,2.814,11.505,3.018,16.687c0.05,1.262,0.208,2.568,0.361,3.833l0.115,0.962
			c0.314,2.69,0.722,5.328,1.212,7.839c0.077,0.395,0.119,0.801,0.16,1.208c0.085,0.851,0.158,1.586,0.597,2.159
			c0.335,0.439,0.251,1.066-0.188,1.402C306.004,164.517,305.791,164.584,305.579,164.584z"/>
	</g>
	<g>
		<path d="M139.282,199.671c-0.527,0-0.969-0.413-0.998-0.946c-0.031-0.597,0.002-1.376,0.554-2.118
			c3.233-4.351,5.856-9.028,7.797-13.901c2.7-6.786,3.849-13.264,3.508-19.803c-0.156-3.018-0.344-6.231-0.755-9.425
			c-0.176-1.37-0.32-2.743-0.465-4.116c-0.16-1.527-0.326-3.106-0.535-4.646c-0.327-2.419-0.704-5.616-0.714-8.905l-0.002-0.525
			c-0.013-4.09-0.025-8.319,0.435-12.507l0.082-0.751c0.272-2.494,0.554-5.073,1.004-7.586c0.626-3.492,1.508-7.137,2.859-11.816
			c2.423-8.389,6.007-16.573,10.652-24.326c5.82-9.717,12.932-18.091,21.137-24.89c6.547-5.428,13.081-9.572,19.975-12.67
			c0.163-0.073,0.322-0.168,0.483-0.263c0.7-0.407,1.757-1.026,3.064-0.337c0.488,0.257,0.677,0.861,0.419,1.351
			c-0.257,0.488-0.863,0.676-1.351,0.419c-0.277-0.146-0.447-0.102-1.124,0.295c-0.225,0.131-0.447,0.259-0.672,0.359
			c-6.728,3.022-13.112,7.074-19.519,12.385c-8.03,6.655-14.993,14.856-20.698,24.378c-4.556,7.605-8.07,15.631-10.445,23.854
			c-1.332,4.611-2.199,8.193-2.813,11.615c-0.438,2.444-0.716,4.988-0.984,7.449l-0.082,0.753
			c-0.448,4.075-0.436,8.248-0.423,12.282l0.002,0.525c0.01,3.172,0.377,6.284,0.696,8.643c0.213,1.568,0.38,3.163,0.542,4.705
			c0.143,1.357,0.285,2.716,0.46,4.069c0.42,3.264,0.609,6.521,0.769,9.577c0.355,6.833-0.838,13.586-3.648,20.646
			c-2.004,5.034-4.712,9.863-8.049,14.354c-0.144,0.192-0.185,0.398-0.161,0.817c0.029,0.551-0.394,1.022-0.945,1.053
			C139.318,199.671,139.3,199.671,139.282,199.671z"/>
	</g>
	<g>
		<path d="M250.457,350.389c-4.435,0-8.509-0.236-12.378-0.718c-3.082-0.383-6.391-0.839-9.7-1.568
			c-4.157-0.915-8.422-2.141-12.676-3.641l-0.705-0.248c-2.121-0.741-4.315-1.509-6.318-2.764l-0.104-0.06
			c-0.284-0.155-0.948-0.518-0.987-1.479c-0.038-0.939-0.067-1.882-0.097-2.822c-0.039-1.253-0.077-2.506-0.138-3.755
			c-0.061-1.268-0.089-2.541-0.116-3.817c-0.033-1.542-0.068-3.136-0.165-4.688c-0.044-0.711-0.366-1.301-0.986-1.804
			c-0.257-0.208-0.578-0.315-0.949-0.439c-0.441-0.148-0.941-0.315-1.414-0.682c-1.213-0.938-2.44-1.858-3.668-2.779
			c-2.102-1.575-4.274-3.204-6.35-4.908c-2.7-2.217-4.143-5.199-4.409-9.12c-0.107-1.596-0.356-3.252-1.436-4.556
			c-1.556-1.879-3.709-2.813-6.979-3.025c-1.18-0.077-2.354,0.058-3.601,0.2c-0.857,0.098-1.745,0.199-2.638,0.228
			c-4.355,0.135-8.801,0.274-13.164-0.728c-1.907-0.438-4.037-1.092-5.173-3.309c-1.321-2.577-0.427-4.963,0.501-6.753
			c1.074-2.074,2.776-3.503,4.423-4.884c0.351-0.294,0.7-0.587,1.043-0.886c1.137-0.992,2.425-2.117,3.132-3.508
			c0.192-0.378,0.776-1.526,0.586-2.03c-0.126-0.334-0.691-0.62-1.144-0.801c-0.721-0.287-1.583-0.445-2.563-0.469
			c-2.335-0.063-4.545,0.511-6.381,1.075c-5.038,1.547-10.491,2.907-16.227,2.399c-3.858-0.344-7.025-0.956-9.965-1.927
			c-2.536-0.836-5.223-1.843-7.686-3.533c-0.455-0.313-0.57-0.935-0.258-1.391c0.313-0.455,0.934-0.57,1.391-0.258
			c2.255,1.548,4.783,2.493,7.18,3.282c2.79,0.922,5.813,1.504,9.516,1.834c5.09,0.453,9.863-0.6,15.461-2.319
			c1.874-0.575,4.375-1.227,7.018-1.163c1.218,0.029,2.313,0.235,3.256,0.611c0.778,0.311,1.859,0.852,2.274,1.954
			c0.44,1.168-0.064,2.44-0.675,3.641c-0.883,1.736-2.326,2.996-3.601,4.108c-0.352,0.307-0.712,0.608-1.071,0.911
			c-1.565,1.313-3.043,2.552-3.934,4.271c-1.063,2.054-1.212,3.525-0.497,4.921c0.675,1.316,1.92,1.83,3.841,2.271
			c4.109,0.944,8.422,0.809,12.597,0.679c0.868-0.026,1.676-0.119,2.531-0.217c1.279-0.146,2.603-0.297,3.958-0.209
			c2.399,0.156,5.879,0.715,8.39,3.746c1.444,1.745,1.766,3.858,1.891,5.696c0.229,3.386,1.399,5.836,3.683,7.709
			c2.041,1.676,4.195,3.292,6.279,4.854c1.235,0.926,2.471,1.853,3.692,2.797c0.206,0.159,0.493,0.256,0.825,0.367
			c0.462,0.154,1.035,0.347,1.573,0.782c1.065,0.864,1.645,1.952,1.724,3.233c0.1,1.592,0.135,3.206,0.168,4.769
			c0.027,1.258,0.055,2.515,0.115,3.765c0.061,1.26,0.1,2.523,0.139,3.788c0.027,0.878,0.055,1.757,0.089,2.634
			c0.055,0.03,0.108,0.062,0.162,0.095c1.813,1.137,3.807,1.834,5.917,2.571l0.711,0.249c4.177,1.474,8.362,2.677,12.439,3.574
			c3.23,0.712,6.483,1.159,9.517,1.537c4.662,0.579,9.638,0.801,15.208,0.665c2.817-0.065,5.546-0.328,8.819-0.665
			c4.81-0.494,9.176-1.299,13.348-2.46c10.074-2.806,16.638-6.717,21.281-12.68c0.504-0.646,1.079-1.422,1.53-2.269
			c0.131-0.244,0.141-0.397-0.06-0.825c-1.798-3.837-3.429-8.149-4.987-13.181c-2.277-7.349-4.182-14.175-5.823-20.867
			c-0.313-1.277,0.013-2.069,0.64-2.934c0.982-1.35,1.782-2.833,2.501-4.234c0.923-1.801,2.536-2.587,3.959-3.28l0.403-0.197
			c0.495-0.246,1.095-0.042,1.34,0.453c0.245,0.494,0.042,1.095-0.453,1.34l-0.414,0.203c-1.308,0.637-2.437,1.187-3.056,2.394
			c-0.755,1.474-1.6,3.039-2.662,4.498c-0.396,0.545-0.445,0.749-0.314,1.281c1.631,6.653,3.525,13.441,5.79,20.752
			c1.531,4.943,3.13,9.171,4.889,12.926c0.307,0.655,0.584,1.544,0.013,2.613c-0.522,0.98-1.161,1.843-1.717,2.556
			c-6.311,8.104-15.244,11.406-22.322,13.377c-4.282,1.192-8.757,2.019-13.68,2.524c-3.318,0.341-6.087,0.607-8.978,0.675
			C252.519,350.376,251.479,350.389,250.457,350.389z"/>
	</g>
	<g>
		<path d="M143.627,401.811c-0.623,0-1.237-0.096-1.849-0.285c-4.217-1.311-6.185-4.641-7.428-7.396
			c-0.862-1.91-1.331-3.925-1.719-5.76c-0.746-0.081-1.455,0.111-2.177,0.587c-0.951,0.626-1.764,1.352-2.483,2.218
			c-0.315,0.379-0.617,0.771-0.92,1.163c-0.847,1.096-1.722,2.229-2.886,3.131c-2.52,1.951-5.321,3.276-8.746-0.191
			c-0.06-0.061-0.133-0.109-0.203-0.162c-0.13-0.097-0.259-0.194-0.376-0.305c-1.062-1.004-2.334-1.301-4.125-0.962
			c-0.542,0.104-1.065-0.254-1.168-0.797s0.254-1.065,0.797-1.168c2.422-0.461,4.34,0.025,5.87,1.473
			c0.059,0.056,0.127,0.104,0.193,0.152c0.152,0.113,0.303,0.229,0.435,0.363c2.031,2.057,3.455,2.063,6.099,0.015
			c0.962-0.744,1.723-1.729,2.527-2.771c0.317-0.411,0.635-0.821,0.965-1.219c0.848-1.021,1.804-1.874,2.922-2.61
			c1.381-0.909,2.859-1.155,4.387-0.732c0.361,0.1,0.636,0.394,0.713,0.76c0.395,1.901,0.843,4.057,1.718,5.994
			c1.612,3.573,3.467,5.46,6.199,6.309c1.31,0.408,2.636,0.178,4.177-0.719c3.559-2.063,5.423-4.394,6.044-7.557
			c0.472-2.398-0.048-4.426-1.545-6.025c-1.69-1.808-3.738-3.375-5.525-4.702c-2.974-2.208-6.327-2.581-10.554-1.174
			c-2.552,0.851-4.791,2.245-7.161,3.721c-0.508,0.316-1.015,0.632-1.525,0.942c-2.419,1.47-5.272,3.083-8.529,3.621l-0.297,0.05
			c-2.068,0.344-4.205,0.701-6.452,0.122c-0.261-0.067-0.62-0.123-0.849,0.001c-0.484,0.266-1.093,0.085-1.355-0.4
			c-0.265-0.484-0.085-1.092,0.4-1.355c0.64-0.35,1.414-0.41,2.304-0.183c1.833,0.474,3.675,0.167,5.623-0.157l0.3-0.05
			c2.905-0.48,5.558-1.985,7.816-3.357c0.505-0.307,1.006-0.619,1.508-0.931c2.364-1.473,4.81-2.995,7.585-3.92
			c4.835-1.61,8.883-1.131,12.379,1.465c1.857,1.379,3.989,3.012,5.794,4.941c1.933,2.065,2.641,4.756,2.047,7.778
			c-0.732,3.727-2.958,6.555-7.003,8.9C146.191,401.417,144.893,401.811,143.627,401.811z"/>
	</g>
	<g>
		<path d="M297.904,301.642c-0.25,0-0.501-0.094-0.695-0.281c-0.396-0.384-0.407-1.017-0.023-1.414
			c0.073-0.075,0.083-0.25,0.086-0.603l0.002-0.185c0.042-2.098,0.364-4.114,0.64-5.637c0.283-1.559,0.627-3.122,0.959-4.635
			c0.206-0.94,0.413-1.881,0.606-2.824c0.6-2.927,1.004-5.337,1.272-7.584c0.25-2.101,0.185-4.24-0.202-6.541
			c-0.083-0.493-0.175-0.985-0.267-1.477c-0.356-1.91-0.725-3.886-0.576-5.953c0.188-2.616,1.212-4.5,3.132-5.76
			c0.721-0.473,1.796-1.057,2.835-0.662c1.04,0.394,1.467,1.518,1.722,2.454c0.25,0.918,0.789,1.587,1.6,1.988
			c0.914,0.449,2.099,0.503,3.021,0.126c1.996-0.812,3.555-3.955,3.031-6.115c-0.254-1.049-0.245-2.036-0.213-2.958
			c0.075-2.173,0.996-3.844,2.737-4.969c2.2-1.424,4.585-1.302,6.416-1.035c0.697,0.101,1.395,0.235,2.093,0.37
			c1.109,0.213,2.156,0.415,3.206,0.487c5.411,0.375,10.432-0.716,14.91-3.241c1.404-0.792,1.912-1.549,1.809-2.698
			c-0.049-0.55,0.356-1.035,0.907-1.085c0.558-0.063,1.035,0.356,1.085,0.907c0.231,2.584-1.498,3.873-2.818,4.618
			c-4.826,2.721-10.213,3.895-16.031,3.495c-1.17-0.081-2.327-0.305-3.445-0.52c-0.669-0.129-1.336-0.258-2.002-0.355
			c-2.237-0.321-3.744-0.104-5.043,0.736c-1.192,0.77-1.771,1.837-1.825,3.358c-0.027,0.814-0.036,1.613,0.158,2.418
			c0.763,3.146-1.29,7.247-4.222,8.439c-1.454,0.588-3.236,0.517-4.661-0.188c-1.327-0.656-2.241-1.781-2.643-3.255
			c-0.267-0.979-0.499-1.109-0.502-1.11l0,0c0-0.001-0.245-0.049-1.027,0.465c-1.383,0.907-2.093,2.252-2.235,4.23
			c-0.13,1.812,0.2,3.576,0.549,5.443c0.094,0.504,0.188,1.007,0.272,1.512c0.418,2.491,0.488,4.817,0.216,7.109
			c-0.275,2.305-0.688,4.767-1.3,7.75c-0.195,0.952-0.403,1.901-0.612,2.851c-0.328,1.495-0.668,3.041-0.943,4.563
			c-0.263,1.449-0.569,3.364-0.608,5.321l-0.002,0.161c-0.005,0.524-0.012,1.317-0.648,1.976
			C298.426,301.54,298.165,301.642,297.904,301.642z"/>
	</g>
	<g>
		<path d="M176.131,467.5c-0.25,0-0.497-0.094-0.687-0.273c-0.268-0.252-0.68-0.383-1.156-0.534
			c-0.341-0.107-0.728-0.23-1.105-0.417c-1.356-0.666-1.926-1.808-1.603-3.214c0.564-2.44,0.031-4.8-1.729-7.652
			c-2.384-3.858-5.962-6.715-11.604-9.26c-0.825-0.372-1.656-0.734-2.487-1.097c-3.507-1.531-7.133-3.114-10.362-5.447
			c-3.563-2.576-6.154-5.857-7.922-10.031c-1.575-3.722-2.421-7.638-3.218-11.656c-0.321-1.618-0.89-2.824-1.788-3.797
			c-0.483-0.522-1.1-0.748-1.697-0.616c-0.63,0.139-1.126,0.635-1.361,1.36c-0.229,0.706-0.385,1.438-0.551,2.213
			c-0.135,0.631-0.271,1.263-0.444,1.882c-0.401,1.426-1.007,3.578-3.352,4.575c-2.813,1.197-6.485-0.265-8.154-2.375
			c-1.979-2.503-2.701-5.413-3.399-8.228l-0.145-0.582c-1.155-4.605-2.225-9.334-3.18-14.054c-0.424-2.101-0.729-4.247-1.025-6.323
			c-0.152-1.072-0.305-2.146-0.474-3.215l-0.022-0.14c-0.486-3.078-0.99-6.261-1.217-9.448c-0.026-0.357-0.126-0.743-0.231-1.152
			c-0.057-0.219-0.113-0.438-0.161-0.656c-0.117-0.54,0.226-1.072,0.765-1.19c0.545-0.118,1.072,0.225,1.19,0.765
			c0.042,0.194,0.092,0.388,0.142,0.581c0.124,0.478,0.252,0.972,0.29,1.511c0.222,3.103,0.718,6.242,1.198,9.278l0.021,0.14
			c0.171,1.08,0.325,2.163,0.479,3.245c0.291,2.048,0.593,4.165,1.006,6.209c0.948,4.689,2.012,9.388,3.158,13.964l0.146,0.587
			c0.677,2.728,1.316,5.305,3.026,7.469c1.185,1.498,3.916,2.577,5.804,1.775c1.356-0.577,1.771-1.722,2.208-3.275
			c0.162-0.579,0.288-1.17,0.414-1.76c0.17-0.79,0.345-1.607,0.604-2.411c0.452-1.397,1.512-2.406,2.834-2.697
			c1.289-0.283,2.632,0.17,3.596,1.212c1.145,1.238,1.891,2.797,2.28,4.766c0.806,4.062,1.595,7.713,3.099,11.266
			c1.62,3.828,3.993,6.834,7.252,9.189c3.055,2.208,6.58,3.747,9.99,5.235c0.839,0.365,1.677,0.731,2.51,1.107
			c6.027,2.719,9.877,5.813,12.482,10.031c1.279,2.071,2.875,5.272,1.978,9.153c-0.097,0.42-0.041,0.686,0.536,0.97
			c0.244,0.12,0.527,0.21,0.827,0.305c0.414,0.131,0.864,0.274,1.297,0.522c0.306-0.184,0.651-0.369,1.069-0.437
			c4.476-0.709,4.947-5.01,4.942-6.825c-0.005-1.587-0.413-3.333-1.286-5.494c-0.709-1.757-1.629-3.466-2.519-5.118
			c-0.525-0.976-1.05-1.951-1.54-2.945c-2.051-4.155-2.673-8.747-1.851-13.649c0.631-3.759,2-7.683,4.309-12.349
			c0.773-1.563,1.569-3.115,2.365-4.667c1.909-3.722,3.883-7.569,5.473-11.489c0.933-2.3,2.07-4.032,3.58-5.453
			c0.059-0.055,0.139-0.181,0.217-0.303c0.098-0.152,0.197-0.305,0.311-0.444c3.04-3.742,5.39-8.236,7.617-14.569
			c0.117-0.334,0.246-0.665,0.375-0.997c0.417-1.077,0.812-2.095,0.797-3.161c-0.008-0.552,0.434-1.006,0.986-1.014
			c0.005,0,0.009,0,0.014,0c0.546,0,0.992,0.438,1,0.986c0.021,1.455-0.464,2.704-0.933,3.912c-0.121,0.312-0.242,0.624-0.353,0.938
			c-2.308,6.56-4.76,11.237-7.951,15.167c-0.066,0.081-0.121,0.171-0.178,0.26c-0.131,0.204-0.293,0.458-0.531,0.683
			c-1.293,1.216-2.277,2.725-3.098,4.748c-1.624,4.002-3.618,7.89-5.547,11.649c-0.791,1.544-1.583,3.088-2.352,4.642
			c-2.22,4.486-3.532,8.233-4.129,11.792c-0.752,4.48-0.189,8.664,1.671,12.435c0.48,0.973,0.994,1.928,1.509,2.882
			c0.915,1.701,1.861,3.459,2.612,5.318c0.971,2.404,1.425,4.386,1.431,6.236c0.013,4.854-2.465,8.146-6.628,8.806
			c-0.09,0.015-0.305,0.146-0.478,0.252c-0.162,0.098-0.329,0.199-0.508,0.291C176.444,467.464,176.286,467.5,176.131,467.5z"/>
	</g>
	<g>
		<path d="M357.114,401.547c-0.502,0-0.991-0.024-1.462-0.049c-0.294-0.016-0.589-0.03-0.882-0.039
			c-0.08-0.004-0.169,0.001-0.262,0.002c-0.579,0.02-1.545,0.039-2.264-0.719c-0.38-0.4-0.363-1.033,0.037-1.414
			c0.4-0.38,1.033-0.363,1.414,0.037c0.107,0.113,0.471,0.104,0.762,0.097c0.133-0.003,0.258-0.005,0.373-0.003
			c0.308,0.01,0.616,0.025,0.924,0.042c1.487,0.075,2.888,0.147,4.209-0.536c2.12-1.098,3.692-2.77,5.355-4.54
			c0.399-0.424,0.799-0.849,1.206-1.267c2.393-2.45,3.547-5.415,3.632-9.328c0.051-2.289,1.129-4.145,3.038-5.225
			c0.729-0.414,1.31-0.345,1.664-0.214c0.352,0.13,0.829,0.445,1.108,1.216c0.777,2.14,2.44,3.427,4.943,3.826
			c2.462,0.395,4.334-0.443,5.712-2.558c1.773-2.72,1.46-5.705,0.92-8.267c-0.283-1.339-0.829-2.604-1.407-3.944
			c-0.288-0.666-0.575-1.332-0.831-2.009c-0.654-1.732-0.665-3.241-0.033-4.482c0.603-1.184,1.776-2.043,3.394-2.486
			c1.863-0.511,3.992-0.195,6.51,0.965l0.155,0.072c2.343,1.079,4.557,2.1,6.963,2.65c3.91,0.896,6.383,0.278,8.261-2.07
			c0.385-0.48,0.954-0.763,1.743-0.863c0.553-0.063,1.049,0.319,1.118,0.866c0.069,0.548-0.318,1.049-0.866,1.118
			c-0.354,0.045-0.433,0.127-0.433,0.128c-3.104,3.883-7.348,3.44-10.271,2.771c-2.608-0.597-5.02-1.709-7.353-2.783l-0.156-0.072
			c-2.069-0.953-3.753-1.233-5.143-0.852c-1.075,0.294-1.796,0.787-2.141,1.464c-0.366,0.72-0.325,1.685,0.122,2.868
			c0.244,0.648,0.521,1.286,0.796,1.924c0.592,1.371,1.204,2.789,1.528,4.323c0.588,2.79,0.982,6.421-1.201,9.771
			c-1.804,2.767-4.469,3.954-7.702,3.44c-3.195-0.509-5.432-2.247-6.476-5.028c-1.578,0.925-1.94,2.406-1.964,3.493
			c-0.096,4.392-1.47,7.886-4.2,10.682c-0.399,0.409-0.79,0.825-1.18,1.239c-1.706,1.815-3.47,3.692-5.894,4.946
			C359.608,401.401,358.325,401.547,357.114,401.547z"/>
	</g>
	<g>
		<path d="M143.182,437.116c-0.365,0-0.718-0.201-0.894-0.55c-0.249-0.493-0.051-1.094,0.442-1.343
			c1.293-0.653,2.671-0.708,3.886-0.756c0.297-0.012,0.592-0.023,0.884-0.044c6.747-0.472,12.385-2.531,17.233-6.295
			c1.836-1.425,2.791-3.489,2.921-6.313c0.05-1.071-0.048-2.131-0.151-3.253c-0.039-0.419-0.078-0.838-0.108-1.258
			c-0.045-0.605-0.653-1.128-1.328-1.14c-0.585-0.011-1.168-0.008-1.748-0.006c-0.514,0.004-1.024,0.006-1.536-0.001
			c-1.206-0.015-2.377-0.599-3.212-1.603c-0.897-1.079-1.298-2.513-1.07-3.833c0.552-3.203,2.757-5.077,4.841-6.487
			c2.576-1.743,5.472-2.741,8.271-3.706c0.646-0.223,1.292-0.445,1.933-0.677c2.14-0.771,4.597-1.724,6.702-3.269
			c0.108-0.079,0.223-0.157,0.337-0.234c0.243-0.165,0.494-0.335,0.578-0.476c0.104-0.178,0.142-0.299,0.152-0.357
			c-0.015-0.005-0.043-0.023-0.086-0.044c-2.003-0.998-2.713-2.646-2.168-5.035c0.161-0.708,0.308-1.461,0.285-2.169
			c-0.019-0.583-0.185-1.017-0.468-1.22c-0.282-0.202-0.742-0.221-1.298-0.055c-0.749,0.227-1.437,0.639-2.165,1.075
			c-0.395,0.236-0.79,0.472-1.198,0.684c-1.413,0.732-2.724,0.921-4.006,0.582c-1.447-0.385-2.336-1.465-2.317-2.818
			c0.05-3.764,1.49-7.258,4.281-10.385c1.095-1.227,2.982-1.472,4.809-0.62c1.114,0.518,2.243,1.182,3.448,2.031
			c2.28,1.604,4.811,2.433,7.736,2.53c3.763,0.104,7.359-0.931,11.324-3.321c1.141-0.688,1.451-1.512,1.794-2.689
			c2.007-6.91,3.507-13.057,4.588-18.791c0.592-3.139,1.131-6.216,1.235-9.344c0.029-0.888,0.466-1.499,0.816-1.99l0.098-0.138
			c0.438-0.62,0.862-1.248,1.288-1.876l0.536-0.79c0.312-0.457,0.933-0.572,1.39-0.263c0.456,0.312,0.574,0.934,0.263,1.39
			l-0.533,0.785c-0.432,0.638-0.864,1.275-1.308,1.905l-0.106,0.149c-0.278,0.39-0.436,0.623-0.445,0.894
			c-0.108,3.27-0.662,6.429-1.269,9.648c-1.092,5.798-2.607,12.006-4.633,18.979c-0.414,1.424-0.931,2.788-2.681,3.844
			c-4.311,2.601-8.262,3.751-12.424,3.606c-3.328-0.11-6.213-1.057-8.821-2.894c-1.107-0.779-2.135-1.386-3.141-1.853
			c-1.006-0.47-1.978-0.415-2.473,0.139c-2.495,2.796-3.729,5.766-3.773,9.08c-0.006,0.421,0.273,0.71,0.831,0.857
			c0.801,0.213,1.594,0.082,2.572-0.424c0.371-0.192,0.73-0.409,1.09-0.624c0.801-0.479,1.63-0.976,2.615-1.273
			c1.164-0.353,2.243-0.229,3.042,0.344c0.8,0.575,1.262,1.563,1.3,2.781c0.03,0.935-0.143,1.839-0.334,2.677
			c-0.339,1.49-0.049,2.223,1.11,2.8c0.726,0.361,1.009,0.882,1.119,1.255c0.177,0.601,0.057,1.259-0.357,1.958
			c-0.313,0.525-0.791,0.85-1.176,1.11c-0.093,0.063-0.186,0.126-0.275,0.191c-2.32,1.703-4.937,2.719-7.207,3.537
			c-0.649,0.235-1.305,0.461-1.96,0.687c-2.8,0.966-5.445,1.877-7.802,3.472c-1.823,1.233-3.568,2.714-3.991,5.171
			c-0.129,0.751,0.108,1.579,0.638,2.214c0.459,0.553,1.079,0.874,1.699,0.882c0.501,0.006,1,0.005,1.501,0.001
			c0.6-0.001,1.196-0.004,1.794,0.006c1.722,0.031,3.166,1.346,3.286,2.993c0.03,0.407,0.067,0.813,0.105,1.221
			c0.105,1.141,0.214,2.319,0.158,3.528c-0.158,3.443-1.366,5.995-3.692,7.801c-5.172,4.015-11.165,6.209-18.32,6.71
			c-0.313,0.022-0.628,0.035-0.944,0.048c-1.109,0.044-2.158,0.085-3.064,0.542C143.487,437.081,143.333,437.116,143.182,437.116z"
			/>
	</g>
	<g>
		<path d="M205.68,322.474c-0.043,0-0.087-0.003-0.131-0.009c-0.548-0.071-0.934-0.574-0.861-1.121
			c0.027-0.214-0.078-0.373-0.458-0.811c-0.113-0.13-0.225-0.26-0.327-0.393c-3.6-4.688-4.462-10.171-4.811-14.424
			c-0.149-1.828-0.206-3.681-0.261-5.472c-0.048-1.568-0.097-3.19-0.209-4.773c-0.158-2.238-0.354-4.415-0.997-6.458
			c-0.547-1.737-1.23-2.973-2.787-3.359c-0.924-0.229-1.884-0.345-2.934-0.354c-4.6-0.037-6.735-3.631-7.167-6.696
			c-0.404-2.872,0.301-5.796,2.155-8.938c0.301-0.509,0.628-1.001,0.956-1.493c0.609-0.914,1.185-1.776,1.569-2.739
			c0.609-1.52,0.354-2.036-0.407-2.562c-1.246-0.86-2.575-1.147-3.953-0.846c-0.544,0.118-1.087,0.241-1.63,0.364
			c-0.923,0.21-1.847,0.419-2.774,0.604c-1.063,0.211-2.649,0.436-4.149-0.055c-2.248-0.737-3.652-2.751-3.757-5.385
			c-0.053-1.319,0.059-2.615,0.167-3.869c0.035-0.412,0.07-0.825,0.101-1.237c0.075-1.044-0.111-1.34-1.048-1.67
			c-1.365-0.481-2.809-0.586-4.337-0.695l-0.899-0.067c-1.965-0.161-3.92,0.043-5.986,0.258c-0.793,0.083-1.586,0.165-2.378,0.227
			c-1.063,0.081-2.157,0.257-3.215,0.427c-1.261,0.201-2.564,0.41-3.882,0.478c-0.61,0.03-1.219,0.073-1.829,0.115
			c-2.112,0.146-4.295,0.297-6.528-0.015c-1.988-0.276-4.242-0.59-6.395-1.371c-0.181-0.065-0.364-0.129-0.549-0.192
			c-1.323-0.454-2.824-0.968-3.756-2.509c-0.286-0.473-0.135-1.087,0.338-1.373c0.473-0.285,1.088-0.136,1.373,0.338
			c0.557,0.919,1.547,1.259,2.693,1.652c0.196,0.067,0.391,0.134,0.582,0.203c1.955,0.71,4.098,1.008,5.988,1.271
			c2.029,0.282,4.014,0.144,6.115,0c0.622-0.043,1.243-0.086,1.865-0.118c1.209-0.062,2.403-0.252,3.667-0.455
			c1.098-0.176,2.233-0.357,3.378-0.445c0.774-0.06,1.549-0.141,2.324-0.222c2.065-0.214,4.205-0.436,6.356-0.263l0.88,0.066
			c1.593,0.115,3.24,0.233,4.858,0.804c1.783,0.629,2.517,1.77,2.377,3.7c-0.03,0.422-0.066,0.843-0.103,1.265
			c-0.107,1.247-0.208,2.425-0.161,3.619c0.071,1.791,0.939,3.09,2.382,3.563c1.055,0.346,2.294,0.162,3.136-0.006
			c0.911-0.182,1.816-0.387,2.723-0.593c0.549-0.125,1.098-0.249,1.648-0.369c1.911-0.413,3.817-0.016,5.513,1.154
			c2.186,1.508,1.69,3.548,1.129,4.952c-0.463,1.155-1.124,2.146-1.763,3.104c-0.308,0.462-0.615,0.923-0.897,1.4
			c-1.638,2.775-2.241,5.204-1.897,7.643c0.336,2.388,1.88,4.949,5.202,4.976c1.21,0.01,2.321,0.145,3.4,0.412
			c2.627,0.652,3.631,2.854,4.213,4.699c0.709,2.251,0.917,4.557,1.083,6.918c0.116,1.623,0.166,3.266,0.214,4.854
			c0.054,1.766,0.109,3.592,0.256,5.368c0.325,3.98,1.121,9.097,4.402,13.369c0.078,0.102,0.165,0.2,0.251,0.3
			c0.431,0.495,1.08,1.244,0.931,2.382C206.605,322.108,206.174,322.474,205.68,322.474z"/>
	</g>
	<g>
		<path d="M350.944,243.487c-2.728,0-5.575-0.287-8.631-0.866c-5.027-0.953-9.392-2.492-13.342-4.705
			c-5.066-2.836-9.309-6.495-12.607-10.874c-0.216-0.286-0.443-0.57-0.672-0.857c-0.88-1.101-1.789-2.239-2.215-3.605
			c-0.878-2.815-1.231-5.715-1.571-8.941l-0.121-1.127c-0.16-1.473-0.325-2.996-0.417-4.518c-0.149-2.482-0.418-5.01-0.678-7.455
			c-0.089-0.832-0.178-1.664-0.262-2.496c-0.062-0.607-0.114-1.217-0.168-1.826c-0.138-1.586-0.281-3.225-0.58-4.779
			c-0.28-1.448-0.534-2.9-0.788-4.354c-0.338-1.933-0.688-3.932-1.094-5.879c-0.414-1.986-0.816-3.975-1.219-5.964
			c-0.551-2.725-1.102-5.449-1.683-8.168c-0.213-0.993-0.428-2.465,0.172-3.769c0.27-0.587,0.343-1.203,0.428-1.918
			c0.029-0.248,0.06-0.498,0.098-0.749c0.467-3.065,0.595-6.145,0.663-9.016c0.102-4.195-0.035-8.339-0.404-12.313
			c-0.376-4.059-0.776-7.147-1.298-10.014c-0.941-5.168-2.314-10.279-4.081-15.19c-1.374-3.82-3.095-8.195-6.114-11.783
			c-0.312-0.368-0.662-0.716-1.033-1.084c-0.667-0.66-1.356-1.343-1.868-2.215c-2.173-3.702-5.488-6.302-8.748-8.559l-0.72-0.497
			c-2.106-1.451-4.285-2.951-6.125-4.889c-1.006-1.061-1.066-1.985-0.938-2.575c0.126-0.586,0.557-1.398,1.894-1.942
			c1.755-0.716,3.698-0.905,5.773-0.562c2.36,0.389,4.584,1.192,6.734,1.97c0.691,0.25,1.383,0.5,2.078,0.736l0.293,0.101
			c1.448,0.494,2.815,0.961,4.255,0.963c0.001,0,0.001,0,0.002,0c0.375,0,0.874-0.114,1.122-0.656
			c-0.042-0.045-0.346-0.318-0.51-0.466c-0.882-0.797-1.884-1.287-2.945-1.806c-0.273-0.134-0.546-0.267-0.814-0.404
			c-4.63-2.36-9.792-3.566-14.792-4.723c-0.05,0.03-0.093,0.055-0.134,0.075c-0.494,0.245-1.095,0.048-1.342-0.447
			c-0.245-0.491-0.049-1.087,0.438-1.337c0.257-0.169,0.659-0.432,1.164-0.314l0.168,0.038c5.166,1.194,10.509,2.43,15.406,4.927
			c0.26,0.132,0.521,0.261,0.785,0.389c1.139,0.557,2.316,1.133,3.338,2.056c0.587,0.528,1.67,1.504,1.057,2.844
			c-0.521,1.143-1.621,1.825-2.94,1.825c-0.001,0-0.003,0-0.004,0c-1.771-0.002-3.361-0.545-4.899-1.07l-0.29-0.099
			c-0.707-0.241-1.411-0.495-2.114-0.75c-2.161-0.781-4.201-1.519-6.38-1.878c-1.734-0.286-3.268-0.141-4.693,0.44
			c-0.505,0.206-0.674,0.419-0.693,0.513c-0.021,0.097,0.047,0.368,0.435,0.776c1.695,1.786,3.693,3.162,5.809,4.619l0.724,0.499
			c3.448,2.388,6.965,5.154,9.334,9.191c0.38,0.646,0.948,1.21,1.551,1.806c0.387,0.383,0.786,0.778,1.155,1.217
			c3.233,3.841,5.033,8.411,6.467,12.394c1.805,5.016,3.206,10.234,4.166,15.511c0.533,2.926,0.94,6.067,1.323,10.186
			c0.376,4.053,0.515,8.274,0.412,12.548c-0.07,2.937-0.203,6.092-0.687,9.268c-0.034,0.229-0.062,0.457-0.088,0.685
			c-0.097,0.809-0.195,1.645-0.598,2.518c-0.263,0.571-0.273,1.394-0.033,2.514c0.584,2.727,1.136,5.459,1.688,8.191
			c0.401,1.984,0.802,3.969,1.215,5.951c0.413,1.979,0.766,3.994,1.106,5.942c0.252,1.441,0.504,2.883,0.781,4.319
			c0.319,1.656,0.467,3.348,0.61,4.984c0.052,0.6,0.104,1.2,0.165,1.799c0.084,0.829,0.172,1.657,0.26,2.486
			c0.263,2.467,0.534,5.019,0.686,7.546c0.089,1.474,0.252,2.973,0.409,4.422l0.121,1.134c0.329,3.118,0.669,5.914,1.493,8.555
			c0.313,1.008,1.068,1.953,1.867,2.953c0.24,0.302,0.479,0.602,0.707,0.902c3.131,4.156,7.164,7.632,11.986,10.333
			c3.76,2.105,7.927,3.572,12.738,4.484c3.997,0.758,7.614,0.995,11.055,0.722c3.986-0.315,7.87-0.711,11.563-2.076
			c2.184-0.806,4.034-1.871,5.66-3.256c0.811-0.689,1.632-1.365,2.454-2.04l1.088-0.896c0.425-0.353,1.055-0.294,1.408,0.133
			c0.352,0.426,0.293,1.056-0.133,1.408l-1.094,0.9c-0.813,0.668-1.626,1.336-2.427,2.019c-1.808,1.539-3.856,2.72-6.264,3.609
			c-3.933,1.453-7.967,1.866-12.098,2.193C352.927,243.449,351.944,243.487,350.944,243.487z"/>
	</g>
	<g>
		<path d="M247.862,281.249c-2.439,0-4.931-0.322-7.463-0.968c-4.654-1.186-9.18-3.332-14.673-6.962
			c-6.203-4.099-12.018-8.943-17.147-13.217c-6.07-5.058-10.827-9.494-14.97-13.964c-7.643-8.246-13.009-16.807-16.405-26.172
			l-0.32-0.888c-0.514-1.422-1.044-2.894-1.63-4.299c-0.444-1.065-0.435-2.024,0.031-3.016c2.003-4.254,4.003-8.511,5.968-12.783
			l0.622-1.352c1.459-3.172,2.969-6.45,4.348-9.712c1.855-4.39,3.613-8.764,5.225-13.001c0.462-1.214,0.95-2.418,1.438-3.623
			c1.219-3.009,2.479-6.12,3.269-9.298c0.109-0.438,0.247-0.873,0.387-1.31c0.392-1.226,0.729-2.283,0.397-3.401
			c-0.13-0.438-0.14-0.945-0.031-1.552c0.278-1.541,0.563-3.08,0.85-4.619c0.452-2.437,0.904-4.873,1.325-7.316
			c0.854-4.961,2.014-10.075,3.445-15.202c1.42-5.086,2.996-9.477,4.819-13.424c3.102-6.711,6.95-12.819,11.438-18.155
			c5.785-6.876,12.472-12.642,19.876-17.137c0.989-0.601,1.854-1.124,2.338-1.957c0.278-0.478,0.891-0.639,1.367-0.361
			c0.478,0.277,0.639,0.89,0.361,1.367c-0.741,1.273-1.918,1.986-2.956,2.616c-7.29,4.427-13.812,10.051-19.455,16.759
			c-4.375,5.2-8.127,11.157-11.153,17.707c-1.778,3.849-3.318,8.142-4.71,13.122c-1.413,5.063-2.557,10.11-3.4,15.005
			c-0.422,2.451-0.876,4.896-1.33,7.342c-0.285,1.535-0.57,3.071-0.847,4.608c-0.07,0.391-0.037,0.57-0.02,0.629
			c0.506,1.708,0.02,3.232-0.41,4.578c-0.126,0.395-0.253,0.787-0.351,1.184c-0.824,3.315-2.111,6.493-3.356,9.566
			c-0.482,1.191-0.965,2.383-1.422,3.583c-1.619,4.26-3.387,8.657-5.252,13.069c-1.391,3.29-2.907,6.583-4.373,9.769l-0.622,1.352
			c-1.967,4.278-3.969,8.539-5.975,12.799c-0.223,0.474-0.221,0.852,0.005,1.395c0.604,1.451,1.144,2.945,1.665,4.39l0.32,0.885
			c3.303,9.108,8.534,17.448,15.991,25.494c4.083,4.405,8.78,8.785,14.782,13.786c5.091,4.241,10.859,9.048,16.971,13.086
			c5.299,3.5,9.636,5.564,14.064,6.692c5.94,1.515,11.624,1.125,16.896-1.158c5.955-2.577,11.21-6.555,16.292-10.402l0.432-0.327
			c4.346-3.288,8.44-6.979,11.872-10.157c6.191-5.733,14.247-14.992,19.591-22.516c2.411-3.394,4.689-6.934,6.773-10.521
			c0.245-0.424,0.509-0.878,0.977-1.252c0.433-0.344,1.061-0.273,1.406,0.158c0.344,0.433,0.273,1.062-0.158,1.406
			c-0.175,0.139-0.317,0.384-0.482,0.669c-2.127,3.662-4.439,7.254-6.885,10.697c-5.414,7.623-13.582,17.009-19.862,22.824
			c-3.469,3.212-7.609,6.944-12.024,10.286l-0.432,0.326c-5.176,3.919-10.529,7.971-16.704,10.644
			C255.154,280.506,251.567,281.249,247.862,281.249z"/>
	</g>
	<g>
		<path d="M353.62,219.861c-0.664,0-1.235-0.283-1.574-0.452c-0.404-0.199-0.811-0.394-1.218-0.589
			c-0.864-0.413-1.758-0.84-2.63-1.322c-5.012-2.771-9.371-6.742-12.958-11.806c-3.777-5.335-6.627-11.689-8.71-19.428
			c-0.972-3.609-1.814-7.591-2.654-12.527l-0.081-0.474c-0.297-1.724-0.604-3.506-0.467-5.367c0.125-1.699,1.064-3.739,2.56-4.175
			c1.568-0.457,3.299,0.292,4.501,1.961c0.187,0.259,0.367,0.522,0.547,0.787c0.181,0.266,0.362,0.531,0.551,0.791l0.164,0.227
			c0.396,0.553,0.712,0.975,1.07,1.259c0.574-3.14,0.938-6.201,1.081-9.109c0.064-1.301-0.023-2.595-0.116-3.964l-0.067-1.046
			c-0.14-2.329-0.403-4.388-0.809-6.295c-0.898-4.232-2.479-8.333-4.008-12.3c-1.535-3.983-3.094-8.748-3.016-13.885
			c0.007-0.417,0.064-0.809,0.121-1.187c0.057-0.383,0.111-0.745,0.097-1.066c-0.146-3.257-0.885-6.52-1.601-9.676l-0.06-0.263
			c-1.277-5.644-3.364-10.393-6.38-14.519c-0.282-0.386-0.574-0.767-0.867-1.148c-1.057-1.376-2.149-2.799-2.826-4.534
			c-0.2-0.515,0.054-1.095,0.568-1.295c0.514-0.2,1.094,0.053,1.295,0.568c0.573,1.47,1.533,2.72,2.549,4.043
			c0.303,0.395,0.605,0.788,0.896,1.187c3.18,4.351,5.377,9.341,6.716,15.257l0.06,0.262c0.734,3.242,1.494,6.594,1.647,10.028
			c0.022,0.515-0.048,0.991-0.116,1.451c-0.049,0.328-0.096,0.638-0.1,0.923c-0.073,4.795,1.415,9.33,2.882,13.135
			c1.557,4.039,3.167,8.215,4.099,12.603c0.426,2.006,0.703,4.162,0.848,6.592l0.067,1.029c0.092,1.367,0.188,2.78,0.118,4.197
			c-0.157,3.193-0.571,6.56-1.23,10.006c-0.076,0.396-0.311,0.654-0.466,0.826c-0.032,0.034-0.066,0.07-0.096,0.109
			c-0.239,0.321-0.65,0.469-1.04,0.372c-1.485-0.365-2.259-1.442-2.941-2.394l-0.158-0.219c-0.201-0.276-0.393-0.558-0.585-0.839
			c-0.17-0.25-0.341-0.5-0.518-0.745c-0.692-0.962-1.577-1.42-2.319-1.21c-0.341,0.1-1.026,1.087-1.124,2.401
			c-0.118,1.617,0.154,3.202,0.444,4.881l0.082,0.478c0.828,4.874,1.658,8.796,2.613,12.344c2.021,7.506,4.771,13.652,8.411,18.791
			c3.458,4.884,7.479,8.551,12.292,11.212c0.821,0.453,1.688,0.867,2.525,1.269c0.415,0.198,0.83,0.396,1.243,0.601
			c0.552,0.273,0.703,0.279,0.835,0.193c0.467-0.3,1.085-0.164,1.382,0.3c0.299,0.465,0.164,1.084-0.3,1.382
			C354.427,219.764,354.008,219.861,353.62,219.861z"/>
	</g>
	<g>
		<path d="M336.524,359.754c-0.056,0-0.112-0.005-0.169-0.015c-0.545-0.093-0.911-0.609-0.817-1.153
			c-0.004-0.047-0.08-0.213-0.131-0.323c-1.008-2.198-2.326-4.303-4.183-6.691c-1.5-1.93-3.197-3.769-4.84-5.548
			c-1.134-1.228-2.306-2.498-3.415-3.798c-3.8-4.455-7.888-9.813-8.307-17.037c-0.063-1.084,0.271-2.119,0.916-2.841
			c0.556-0.621,1.292-0.973,2.13-1.017c2.598-0.136,5.092-0.986,7.411-2.527c0.264-0.175,0.906-0.602,1.139-0.865
			c-0.129-0.131-0.458-0.396-1.265-0.787c-2.615-1.267-5.398-1.925-8.346-2.622l-1.206-0.286c-3.994-0.958-8.124-1.949-11.663-4.516
			c-2.446-1.774-4.898-3.833-6.271-6.858c-0.123-0.269-0.225-0.546-0.324-0.823c-0.216-0.595-0.387-1.065-0.767-1.387
			c-0.369-0.313-0.462-0.739-0.517-0.995c-0.01-0.045-0.018-0.092-0.032-0.134c-1.55-4.109-1.954-8.103-1.2-11.865
			c0.044-0.22,0.039-0.509,0.034-0.813c-0.014-0.831-0.033-2.087,1.137-2.969c0.441-0.332,1.07-0.242,1.4,0.197
			c0.332,0.441,0.244,1.068-0.197,1.4c-0.328,0.247-0.353,0.546-0.34,1.338c0.006,0.379,0.013,0.809-0.073,1.239
			c-0.688,3.438-0.325,6.96,1.111,10.77c0.048,0.126,0.083,0.27,0.114,0.413c0.002,0.009,0.004,0.019,0.006,0.028
			c0.676,0.641,0.955,1.411,1.203,2.096c0.082,0.228,0.164,0.457,0.265,0.678c1.181,2.603,3.401,4.454,5.624,6.066
			c3.218,2.333,6.977,3.235,10.956,4.189l1.199,0.285c2.923,0.691,5.944,1.406,8.757,2.768c1.166,0.564,2.368,1.299,2.447,2.463
			c0.082,1.217-1.069,1.981-2.085,2.656c-2.623,1.742-5.453,2.704-8.414,2.859c-0.303,0.016-0.546,0.131-0.744,0.353
			c-0.289,0.322-0.442,0.843-0.41,1.391c0.384,6.606,4.244,11.647,7.832,15.854c1.084,1.271,2.243,2.526,3.363,3.74
			c1.67,1.81,3.397,3.681,4.949,5.677c1.953,2.515,3.348,4.744,4.39,7.018c0.196,0.424,0.425,0.92,0.315,1.561
			C337.425,359.41,337.002,359.754,336.524,359.754z"/>
	</g>
	<g>
		<path d="M163.239,94.436c-0.063,0-0.128-0.006-0.191-0.019c-0.671-0.131-0.945-0.569-1.063-0.757
			c-1.753-2.576-0.681-5.075,0.029-6.729c0.795-1.851,1.933-3.484,3.032-5.065l0.581-0.838c4.521-6.589,9.762-13.022,15.58-19.123
			c4.103-4.303,8.651-8.303,12.958-12.031c1.926-1.667,4.002-3.167,6.01-4.618c2.229-1.612,4.535-3.278,6.597-5.15
			c1.59-1.445,3.846-2.207,5.658-2.818c5.954-2.01,12.292-3.219,19.376-3.694c4.023-0.269,8.013,0.097,11.388,0.49
			c1.42,0.166,2.845,0.401,4.223,0.629c1.842,0.305,3.747,0.619,5.611,0.76c3.799,0.287,7.791,0.131,12.206-0.475
			c2.547-0.35,4.771-0.564,6.798-0.656c4.825-0.22,9.721,0.161,14.979,1.16c3.753,0.714,7.346,1.815,10.703,2.882
			c0.563,0.179,1.736,0.552,1.912,1.903c0.071,0.548-0.314,1.049-0.862,1.12c-0.554,0.068-1.049-0.315-1.12-0.862
			c-0.004-0.025-0.008-0.035-0.008-0.035c-0.06-0.071-0.375-0.172-0.527-0.22c-3.3-1.049-6.827-2.13-10.471-2.823
			c-5.104-0.97-9.853-1.336-14.515-1.127c-1.966,0.09-4.131,0.299-6.617,0.64c-4.555,0.624-8.686,0.786-12.628,0.487
			c-1.953-0.146-3.901-0.469-5.787-0.78c-1.354-0.225-2.756-0.456-4.129-0.616c-3.283-0.383-7.161-0.738-11.021-0.48
			c-6.91,0.464-13.083,1.639-18.872,3.593c-1.721,0.581-3.671,1.239-4.952,2.404c-2.145,1.947-4.496,3.646-6.77,5.29
			c-1.974,1.427-4.014,2.901-5.873,4.51c-4.447,3.851-8.774,7.658-12.819,11.9c-5.744,6.022-10.918,12.373-15.379,18.873
			l-0.588,0.85c-1.091,1.567-2.121,3.049-2.836,4.712c-0.653,1.521-1.115,2.825-0.597,4.112c2.459-2.819,5.285-4.307,8.607-4.537
			c0.546-0.026,1.028,0.378,1.067,0.929c0.038,0.551-0.378,1.028-0.929,1.067c-3.129,0.216-5.661,1.726-7.968,4.75
			C163.842,94.293,163.547,94.436,163.239,94.436z"/>
	</g>
	<g>
		<path d="M305.754,76.24c-2.084,0-4.064-0.404-5.895-0.843c-1.431-0.343-2.843-0.782-4.207-1.208
			c-1.787-0.558-3.636-1.134-5.483-1.471c-3.107-0.563-6.726-0.863-10.006,1.198l-0.215,0.133c-0.541,0.33-0.749,0.48-0.794,0.759
			c-0.088,0.546-0.603,0.915-1.146,0.829c-0.546-0.088-0.917-0.601-0.829-1.146c0.195-1.215,1.08-1.755,1.727-2.149l0.192-0.119
			c3.861-2.425,7.944-2.104,11.428-1.473c1.969,0.358,3.876,0.953,5.722,1.529c1.333,0.415,2.711,0.846,4.076,1.172
			c1.73,0.414,3.618,0.762,5.492,0.788c0.419-0.002,0.671-0.115,0.728-0.22c0.061-0.112,0.017-0.402-0.224-0.773
			c-0.104-0.161-0.233-0.305-0.358-0.449c-2.7-3.129-5.977-5.844-10.063-8.352c-3.96-2.432-8.121-4.218-12.368-5.31
			c-0.34-0.088-0.686-0.158-1.033-0.229c-1.048-0.215-2.133-0.437-3.155-1.073c-0.951-0.593-1.512-1.412-1.577-2.306
			c-0.062-0.848,0.333-1.678,1.109-2.335c1.151-0.976,2.322-1.413,3.603-1.361c0.96,0.046,2.078,0.083,3.156-0.007l0.229-0.019
			c0.499-0.039,0.839-0.079,1.078-0.16c-3.761-2.158-7.922-2.971-11.201-3.438c-0.306-0.044-0.574-0.226-0.728-0.494
			c-0.153-0.268-0.174-0.592-0.057-0.877c0.782-1.898,1.646-2.766,3.554-3.567c2.366-0.995,4.915-1.338,7.798-1.048
			c0.549,0.056,0.949,0.546,0.895,1.096c-0.055,0.549-0.539,0.946-1.096,0.895c-2.539-0.257-4.771,0.038-6.821,0.901
			c-0.931,0.392-1.46,0.736-1.878,1.326c3.528,0.581,7.766,1.633,11.577,4.112c0.384,0.249,0.55,0.728,0.401,1.161
			c-0.64,1.875-2.348,2.008-3.368,2.087l-0.215,0.017c-1.194,0.104-2.393,0.061-3.418,0.013c-0.765-0.038-1.46,0.247-2.217,0.889
			c-0.16,0.136-0.427,0.402-0.407,0.665c0.017,0.232,0.256,0.514,0.641,0.753c0.717,0.447,1.582,0.624,2.497,0.811
			c0.381,0.078,0.76,0.155,1.131,0.251c4.44,1.143,8.786,3.007,12.917,5.542c4.264,2.618,7.693,5.463,10.484,8.698
			c0.229,0.263,0.414,0.482,0.568,0.722c0.632,0.974,0.743,1.999,0.304,2.811c-0.433,0.801-1.335,1.263-2.477,1.269
			C305.802,76.24,305.778,76.24,305.754,76.24z"/>
	</g>
	<g>
		<path d="M376.057,310.194c-0.874,0-1.736-0.097-2.579-0.191c-0.521-0.059-1.043-0.118-1.563-0.151
			c-0.25-0.016-0.506-0.021-0.764-0.027c-1.087-0.024-2.319-0.053-3.481-0.764c-0.965-0.591-1.207-1.292-1.24-1.775
			c-0.032-0.463,0.097-1.153,0.894-1.808c0.277-0.228,0.571-0.436,0.865-0.643c0.17-0.12,0.339-0.239,0.504-0.363
			c0.8-0.603,0.878-0.923,0.441-1.802c-0.29-0.585-0.679-0.977-1.259-1.271c-0.828-0.42-1.761-0.565-2.749-0.72
			c-0.516-0.08-1.031-0.161-1.539-0.278c-2.531-0.584-4.581-1.576-6.267-3.032c-1.291-1.114-1.451-2.614-0.438-4.114
			c0.52-0.769,1.242-1.387,2.211-1.891c2.209-1.15,4.26-2.126,6.271-2.982c1.314-0.56,2.641-1.093,3.967-1.626
			c3.628-1.46,7.379-2.969,10.774-5.006c0.398-0.239,0.82-0.452,1.243-0.664c1.242-0.623,2.314-1.161,2.691-2.419
			c0.167-0.554,0.396-1.039,0.618-1.508l0.156-0.334c0.485-1.048,0.996-2.082,1.508-3.115c0.878-1.775,1.786-3.611,2.522-5.471
			c1.33-3.356,2.011-5.975,2.207-8.488c0.319-4.088-0.538-7.993-2.548-11.607c-0.132-0.237-0.259-0.479-0.386-0.723
			c-0.487-0.934-0.948-1.815-1.733-2.365c-0.452-0.317-0.562-0.94-0.245-1.394c0.317-0.452,0.94-0.562,1.394-0.245
			c1.184,0.83,1.808,2.024,2.358,3.078c0.118,0.228,0.236,0.454,0.36,0.676c2.204,3.965,3.145,8.25,2.794,12.736
			c-0.213,2.721-0.935,5.519-2.342,9.068c-0.767,1.936-1.693,3.81-2.59,5.621c-0.503,1.018-1.007,2.036-1.484,3.067l-0.164,0.351
			c-0.199,0.421-0.387,0.817-0.51,1.228c-0.625,2.084-2.264,2.906-3.711,3.632c-0.377,0.189-0.755,0.377-1.11,0.591
			c-3.531,2.119-7.357,3.658-11.058,5.146c-1.313,0.528-2.628,1.057-3.93,1.61c-1.963,0.836-3.969,1.79-6.131,2.916
			c-0.666,0.347-1.149,0.751-1.477,1.236c-0.505,0.747-0.359,1.097,0.086,1.481c1.435,1.238,3.203,2.088,5.409,2.597
			c0.461,0.106,0.93,0.179,1.398,0.252c1.099,0.171,2.235,0.348,3.346,0.912c0.962,0.488,1.664,1.196,2.145,2.164
			c0.867,1.744,0.54,3.107-1.029,4.29c-0.182,0.137-0.368,0.269-0.554,0.399c-0.255,0.18-0.51,0.358-0.749,0.555
			c-0.067,0.056-0.109,0.1-0.136,0.132c0.044,0.048,0.124,0.118,0.257,0.199c0.702,0.43,1.567,0.449,2.483,0.47
			c0.285,0.007,0.568,0.014,0.846,0.031c0.552,0.036,1.104,0.098,1.658,0.16c1.186,0.132,2.303,0.261,3.374,0.116
			c0.958-0.128,1.902-0.14,2.815-0.151c0.965-0.013,1.876-0.023,2.772-0.164c0.558-0.083,1.058,0.289,1.143,0.834
			c0.085,0.546-0.288,1.057-0.834,1.143c-1.037,0.162-2.063,0.175-3.056,0.188c-0.894,0.011-1.737,0.021-2.577,0.134
			C376.91,310.171,376.482,310.194,376.057,310.194z"/>
	</g>
	<g>
		<path d="M207.385,323.205c-0.289,0-0.576-0.125-0.774-0.365c-0.35-0.428-0.288-1.058,0.139-1.408
			c0.255-0.209,0.177-0.485,0.146-0.565c-0.245-0.651-0.248-1.245-0.251-1.77c-0.001-0.161-0.001-0.323-0.011-0.485
			c-0.029-0.474-0.039-0.946-0.048-1.419c-0.016-0.791-0.03-1.538-0.138-2.284c-0.205-1.424-0.103-2.839,0.304-4.208
			c0.645-2.169,1.189-4.465,1.618-6.823c0.436-2.405,0.731-4.786,0.986-7c0.363-3.148,0.489-6.377,0.612-9.498l0.036-0.911
			c0.188-4.752-0.109-9.541-0.403-13.657c-0.037-0.512-0.068-1.025-0.1-1.54c-0.065-1.086-0.134-2.209-0.254-3.283
			c-0.112-1.009-0.193-2.037-0.274-3.05l-0.062-0.771c-0.025-0.315-0.086-0.635-0.145-0.957c-0.182-0.991-0.388-2.116,0.139-3.3
			c0.226-0.504,0.815-0.731,1.32-0.508c0.505,0.225,0.731,0.815,0.508,1.32c-0.275,0.619-0.147,1.318,0,2.127
			c0.071,0.389,0.141,0.774,0.172,1.154l0.062,0.775c0.079,0.991,0.158,1.999,0.269,2.987c0.125,1.123,0.194,2.271,0.263,3.383
			c0.03,0.507,0.062,1.015,0.097,1.519c0.299,4.17,0.601,9.024,0.407,13.88l-0.036,0.909c-0.124,3.159-0.252,6.426-0.624,9.648
			c-0.259,2.248-0.56,4.667-1.005,7.129c-0.442,2.43-1.003,4.797-1.668,7.036c-0.324,1.09-0.406,2.218-0.242,3.353
			c0.125,0.868,0.142,1.713,0.157,2.53c0.009,0.445,0.018,0.89,0.045,1.335c0.013,0.2,0.014,0.399,0.015,0.599
			c0.002,0.407,0.004,0.759,0.123,1.075c0.379,1.006,0.077,2.138-0.749,2.816C207.832,323.131,207.608,323.205,207.385,323.205z"/>
	</g>
	<g>
		<path d="M346.492,416.371c-2.306,0-4.492-0.938-6.504-2.79c-0.406-0.374-0.432-1.006-0.058-1.413
			c0.375-0.405,1.008-0.434,1.413-0.058c1.722,1.585,3.498,2.314,5.377,2.257c1.574-0.055,3.17-0.59,4.879-1.636
			c2.313-1.415,4.207-3.255,6.268-5.337c3.286-3.321,7.475-6.621,13.614-5.944c0.812,0.095,1.746-0.307,2.774-1.181
			c1.037-0.88,1.561-2.057,2.028-3.552c0.942-3.025,2.163-4.596,5.9-4.225c0.92,0.091,1.745,0.277,2.453,0.553
			c3.143,1.224,6.051,1.451,8.891,0.695c0.188-0.051,0.376-0.121,0.563-0.19c0.707-0.26,1.677-0.619,2.771-0.14
			c0.506,0.221,0.737,0.811,0.516,1.316c-0.22,0.506-0.809,0.741-1.316,0.516c-0.339-0.147-0.689-0.032-1.279,0.185
			c-0.246,0.091-0.492,0.18-0.739,0.245c-3.263,0.873-6.577,0.62-10.133-0.764c-0.537-0.209-1.185-0.353-1.924-0.426
			c-2.477-0.243-3.031,0.383-3.794,2.83c-0.494,1.582-1.156,3.22-2.643,4.481c-1.466,1.243-2.906,1.794-4.29,1.644
			c-5.277-0.588-8.874,2.231-11.972,5.362c-2.075,2.098-4.145,4.106-6.646,5.637c-2.011,1.23-3.925,1.861-5.854,1.928
			C346.69,416.37,346.59,416.371,346.492,416.371z"/>
	</g>
	<g>
		<path d="M88.235,356.099c-0.532,0-0.976-0.42-0.998-0.958c-0.019-0.446-0.048-0.892-0.076-1.336
			c-0.091-1.431-0.185-2.91,0.03-4.455c0.441-3.153,1.354-6.198,2.711-9.051c2.192-4.603,5.494-8.815,10.095-12.878
			c5.217-4.606,11.215-8.17,17.017-11.616l2.217-1.316c2.06-1.214,4.004-2.36,5.339-4.209c1.901-2.631,0.528-3.752,0.077-4.12
			c-0.295-0.24-0.412-0.548-0.482-0.732c-0.247-0.494-0.062-1.132,0.433-1.379c0.494-0.245,1.079-0.084,1.327,0.41
			c0.04,0.079,0.074,0.166,0.108,0.254c1.969,1.7,2.03,4.147,0.158,6.739c-1.58,2.187-3.799,3.495-5.944,4.76l-2.211,1.313
			c-5.722,3.398-11.639,6.913-16.714,11.396c-4.395,3.881-7.539,7.884-9.612,12.238c-1.289,2.706-2.118,5.476-2.537,8.468
			c-0.187,1.344-0.104,2.659-0.015,4.052c0.029,0.458,0.059,0.917,0.078,1.379c0.023,0.552-0.405,1.018-0.957,1.041
			C88.264,356.099,88.249,356.099,88.235,356.099z"/>
	</g>
	<g>
		<path d="M370.341,427.237c-0.362,0-0.652-0.157-0.838-0.257l-0.095-0.049c-0.503-0.217-0.748-0.802-0.538-1.308
			s0.776-0.754,1.284-0.548c0.09,0.035,0.183,0.082,0.275,0.132c2.125-0.415,4.028-1.536,5.816-3.423
			c2.896-3.059,4.353-7.034,4.581-12.515c0.091-2.179,0.048-4.415,0.007-6.577l-0.006-0.306c-0.028-1.456,0.748-2.296,2.187-2.362
			c3.136-0.146,5.984-1.437,8.594-2.809c2.263-1.189,4.146-3.029,5.968-4.808c0.399-0.391,0.799-0.779,1.201-1.163
			c3.052-2.902,5.169-6.569,6.673-9.439c3.931-7.507,5.924-14.035,6.271-20.545c0.025-0.466,0.062-0.931,0.098-1.394
			c0.107-1.385,0.21-2.692,0-4.004c-0.108-0.675-0.184-1.355-0.259-2.037c-0.138-1.249-0.268-2.428-0.601-3.557
			c-1.055-3.575-2.998-6.946-6.116-10.608c-1.885-2.213-4.006-4.294-6.058-6.307c-1.673-1.642-3.402-3.339-5.015-5.115
			c-5.797-6.385-9.728-12.963-12.018-20.107c-1.898-5.92-2.507-11.01-1.915-16.019c0.318-2.7,0.938-5.396,1.895-8.242
			c0.106-0.315,0.241-0.623,0.378-0.931c0.246-0.553,0.458-1.029,0.439-1.509c-0.021-0.552,0.408-1.017,0.96-1.038
			c0.541-0.043,1.017,0.408,1.038,0.96c0.037,0.945-0.307,1.718-0.609,2.399c-0.111,0.249-0.224,0.498-0.31,0.755
			c-0.913,2.714-1.503,5.278-1.805,7.84c-0.557,4.714,0.025,9.535,1.833,15.173c2.201,6.868,5.994,13.205,11.594,19.375
			c1.573,1.733,3.282,3.41,4.936,5.031c2.083,2.044,4.236,4.157,6.18,6.438c3.306,3.883,5.375,7.486,6.511,11.339
			c0.384,1.299,0.529,2.623,0.671,3.904c0.071,0.648,0.143,1.297,0.245,1.939c0.248,1.547,0.132,3.035,0.02,4.476
			c-0.035,0.447-0.07,0.895-0.094,1.345c-0.364,6.808-2.428,13.597-6.497,21.366c-1.575,3.007-3.802,6.856-7.065,9.961
			c-0.396,0.377-0.789,0.761-1.183,1.145c-1.924,1.879-3.914,3.822-6.435,5.146c-2.814,1.48-5.904,2.873-9.432,3.037
			c-0.152,0.007-0.234,0.027-0.271,0.039c0.006,0.022-0.012,0.114-0.008,0.287l0.006,0.305c0.042,2.193,0.085,4.46-0.009,6.7
			c-0.25,5.99-1.879,10.377-5.128,13.806c-2.155,2.274-4.49,3.602-7.139,4.058C370.484,427.231,370.411,427.237,370.341,427.237z"/>
	</g>
	<g>
		<path d="M336.766,447.523c-2.239,0-3.386-1.746-4.245-3.057l-0.095-0.145c-2.697-4.098-2.311-10.146,0.898-14.067
			c2.716-3.319,6.47-5.045,9.785-6.295c1.781-0.672,3.619-1.218,5.396-1.744c2.21-0.656,4.495-1.334,6.628-2.249
			c4.042-1.733,6.702-3.626,8.627-6.137c0.504-0.656,0.851-1.425,1.217-2.237c0.254-0.563,0.517-1.144,0.842-1.708
			c0.265-0.459,0.839-0.632,1.315-0.394l0.18,0.086c0.17,0.079,0.317,0.152,0.454,0.241c3.984,2.591,5.848,8.078,4.429,13.046
			c-0.408,1.431-0.964,3.056-2.392,4.22c-0.429,0.351-1.058,0.283-1.407-0.144c-0.349-0.428-0.284-1.058,0.144-1.407
			c0.979-0.797,1.392-2.026,1.731-3.218c1.114-3.9-0.251-8.324-3.184-10.532c-0.097,0.206-0.191,0.417-0.289,0.632
			c-0.397,0.881-0.809,1.792-1.452,2.632c-2.749,3.585-6.481,5.495-9.426,6.758c-2.241,0.962-4.583,1.656-6.848,2.328
			c-1.743,0.517-3.545,1.052-5.26,1.698c-3.221,1.215-6.532,2.745-8.941,5.689c-2.679,3.274-3.013,8.305-0.777,11.702l0.097,0.146
			c0.958,1.461,1.614,2.345,3.021,2.115c0.545-0.085,1.06,0.281,1.148,0.826s-0.281,1.06-0.826,1.148
			C337.266,447.502,337.009,447.523,336.766,447.523z"/>
	</g>
	<g>
		<path d="M127.344,213.316c-0.029,0-0.06-0.001-0.09-0.004c-0.55-0.049-0.956-0.535-0.907-1.085
			c0.11-1.238,0.938-1.948,1.542-2.467c0.163-0.14,0.325-0.276,0.467-0.424c2.791-2.908,5.349-5.97,7.729-8.856
			c0.891-1.079,1.993-2.286,3.803-2.944c0.902-0.328,1.744-0.979,2.636-1.666c0.306-0.236,0.611-0.472,0.919-0.694
			c4.154-3.01,8.193-6.343,12.328-10.174c-0.016,0.004-0.031,0.007-0.047,0.011l-0.139,0.031c-0.159,0.035-0.352,0.122-0.557,0.213
			c-0.316,0.142-0.676,0.303-1.098,0.369c-1.124,0.172-2.03-0.188-2.689-1.079c-0.657-0.886-0.562-1.814,0.287-2.759
			c1.958-2.248,3.273-4.758,4.085-7.745c0.611-2.25,0.762-4.761,0.459-7.675c-0.017-0.168-0.056-0.242-0.068-0.264
			c-0.009,0.007-0.082,0.001-0.22,0.043c-1.638,0.503-3.179,0.154-4.417-0.125c-0.539-0.121-0.877-0.656-0.756-1.195
			s0.655-0.875,1.195-0.756c1.324,0.299,2.341,0.483,3.394,0.164c0.71-0.218,1.39-0.143,1.917,0.206
			c0.375,0.249,0.844,0.75,0.945,1.721c0.327,3.164,0.157,5.913-0.52,8.404c-0.88,3.24-2.375,6.088-4.442,8.462l-0.084,0.096
			c-0.052,0.058-0.13,0.145-0.177,0.21c0.237,0.315,0.414,0.372,0.781,0.315c0.158-0.024,0.368-0.118,0.592-0.218
			c0.272-0.122,0.583-0.261,0.938-0.34l0.125-0.028c0.766-0.176,2.195-0.504,3.324,1.111c0.162,0.231,0.219,0.521,0.155,0.796
			c-0.063,0.276-0.239,0.512-0.486,0.649c-0.095,0.054-0.192,0.102-0.29,0.149c-0.082,0.039-0.195,0.094-0.229,0.121
			c-4.407,4.127-8.705,7.695-13.135,10.904c-0.292,0.212-0.581,0.435-0.871,0.658c-0.974,0.751-1.979,1.528-3.174,1.962
			c-1.207,0.439-2.021,1.221-2.943,2.339c-2.405,2.915-4.99,6.01-7.829,8.968c-0.186,0.193-0.395,0.375-0.607,0.558
			c-0.521,0.446-0.816,0.718-0.853,1.126C128.292,212.924,127.857,213.316,127.344,213.316z"/>
	</g>
	<g>
		<path d="M128.847,247.994c-3.444,0-6.71-0.844-9.879-2.541c-1.256-0.673-2.437-1.685-3.509-3.007
			c-0.574-0.709-1.113-1.221-1.877-1.413c-0.19-0.05-0.396,0.006-0.743,0.107c-0.346,0.101-0.777,0.225-1.273,0.194
			c-0.551-0.034-0.971-0.508-0.937-1.06c0.033-0.551,0.493-0.953,1.06-0.937c0.154,0.008,0.355-0.051,0.593-0.119
			c0.45-0.131,1.068-0.306,1.791-0.126c1.379,0.349,2.26,1.254,2.94,2.094c0.903,1.114,1.88,1.956,2.899,2.502
			c4.344,2.328,8.896,2.882,13.914,1.696c3.814-0.9,7.718-2.344,11.935-4.414c2.951-1.449,5.986-3.309,9.279-5.685
			c7.318-5.283,13.533-11.963,18.473-19.852c0.094-0.15,0.185-0.304,0.274-0.455c0.354-0.598,0.755-1.273,1.379-1.827
			c0.412-0.368,1.044-0.331,1.411,0.083c0.367,0.413,0.33,1.045-0.083,1.411c-0.391,0.348-0.68,0.836-0.986,1.353
			c-0.099,0.166-0.197,0.332-0.3,0.496c-5.077,8.109-11.469,14.978-18.998,20.412c-3.385,2.443-6.515,4.359-9.568,5.858
			c-4.352,2.138-8.394,3.631-12.356,4.566C132.418,247.773,130.609,247.994,128.847,247.994z"/>
	</g>
	<g>
		<path d="M321.625,94.746c-0.379,0-0.776-0.117-1.188-0.352c-0.381-0.219-0.682-0.502-0.95-0.776
			c-0.301-0.307-0.647-0.669-0.949-1.089c-1.122-1.558-2.178-2.509-3.813-2.504c-0.526,0.005-1.003-0.438-1.01-0.99
			c-0.006-0.552,0.438-1.004,0.99-1.01c0.021,0,0.041,0,0.062,0c2.634,0,4.204,1.684,5.395,3.335
			c0.22,0.307,0.505,0.604,0.755,0.858c0.16,0.163,0.346,0.343,0.513,0.438c0.053,0.03,0.095,0.05,0.127,0.063
			c0.042-0.056,0.106-0.157,0.188-0.333c0.276-0.592,0.148-1.165-0.083-2.052c-0.052-0.2-0.104-0.4-0.148-0.6
			c-0.39-1.731-1.372-3.187-3.006-4.449l-0.191-0.146c-0.826-0.634-1.762-1.352-2.315-2.501c-0.503-1.045-0.081-1.694,0.216-1.988
			c0.235-0.234,0.766-0.597,1.639-0.411c1.848,0.403,3.225,1.443,4.217,2.306l0.23,0.199c1.08,0.94,2.1,1.827,3.372,2.332
			c1.073,0.429,1.758,0.489,2.436,0.216c1.574-0.632,2.152-3.469,1.696-4.985c-1.165-3.878-2.803-7.688-4.387-11.371l-0.305-0.709
			c-0.786-1.83-1.604-3.646-2.423-5.461c-0.922-2.044-1.875-4.157-2.766-6.262c-0.059-0.138-0.145-0.274-0.229-0.416
			c-0.352-0.587-1.007-1.679-0.223-2.927c0.293-0.466,0.911-0.607,1.379-0.314c0.468,0.294,0.608,0.911,0.314,1.379
			c-0.102,0.161-0.114,0.234,0.245,0.834c0.134,0.225,0.263,0.446,0.355,0.665c0.882,2.083,1.83,4.186,2.747,6.219
			c0.823,1.827,1.646,3.653,2.438,5.494l0.304,0.708c1.606,3.735,3.268,7.599,4.466,11.585c0.685,2.279-0.091,6.303-2.866,7.417
			c-1.484,0.597-2.813,0.229-3.921-0.213c-1.588-0.63-2.787-1.673-3.945-2.681l-0.229-0.198c-0.9-0.782-1.7-1.3-2.503-1.611
			c0.353,0.4,0.806,0.748,1.275,1.108l0.196,0.151c1.989,1.536,3.246,3.419,3.734,5.594c0.04,0.177,0.086,0.354,0.133,0.533
			c0.247,0.946,0.555,2.125-0.039,3.399c-0.23,0.497-0.627,1.187-1.395,1.432C321.988,94.719,321.809,94.746,321.625,94.746z"/>
	</g>
	<g>
		<path d="M357.842,372.546c-0.202,0-0.406-0.061-0.583-0.188c-0.809-0.581-1.271-1.433-1.609-2.054
			c-0.762-1.404-1.827-2.671-3.457-4.106c-4.197-3.697-9.611-4.862-14.847-5.988l-1.297-0.281c-0.98-0.214-1.966-0.412-2.951-0.609
			c-2.38-0.477-4.84-0.97-7.219-1.708c-5.325-1.653-8.948-4.172-11.402-7.928c-1.087-1.663-1.895-3.454-2.675-5.186
			c-0.214-0.473-0.427-0.946-0.646-1.416c-1.637-3.516-4.025-6.213-7.301-8.246c-0.954-0.593-1.962-1.044-3.027-1.521
			c-0.687-0.308-1.372-0.615-2.042-0.96c-0.491-0.253-0.685-0.856-0.433-1.347c0.253-0.491,0.858-0.685,1.347-0.433
			c0.639,0.329,1.292,0.621,1.945,0.914c1.08,0.483,2.196,0.984,3.265,1.647c3.616,2.245,6.253,5.222,8.059,9.102
			c0.223,0.478,0.439,0.957,0.655,1.438c0.784,1.739,1.524,3.381,2.526,4.914c2.186,3.344,5.466,5.604,10.322,7.111
			c2.279,0.708,4.688,1.19,7.018,1.657c0.997,0.2,1.994,0.399,2.986,0.617l1.29,0.279c5.486,1.18,11.159,2.401,15.748,6.443
			c1.813,1.598,3.015,3.032,3.893,4.652c0.272,0.501,0.582,1.07,1.02,1.385c0.448,0.322,0.551,0.946,0.228,1.396
			C358.459,372.402,358.154,372.546,357.842,372.546z"/>
	</g>
	<g>
		<path d="M180.022,341.427c-0.584,0-1.189-0.182-1.727-0.532c-0.798-0.521-1.308-1.335-1.364-2.178l-0.024-0.344
			c-0.066-0.896-0.141-1.912,0.165-2.932c0.02-0.063,0.035-0.122,0.047-0.175c-3.813,2.004-8.869,4.319-14.585,4.899
			c-2.457,0.249-5.706,0.415-9.033-0.521c-1.951-0.548-3.131-1.727-3.321-3.32c-0.12-1.007,0.189-2.479,2.347-3.78
			c1.036-0.624,2.128-0.943,3.184-1.253l0.582-0.173c0.588-0.178,1.183-0.337,1.777-0.495c1.862-0.495,3.621-0.962,5.108-2.045
			c0.487-0.354,0.958-0.731,1.43-1.108c0.847-0.678,1.722-1.378,2.69-1.954c2.69-1.593,4.726-1.374,6.809,0.737
			c0.323,0.327,0.73,0.547,1.404,0.758c1.114,0.346,2.194-0.057,3.338-0.484l0.649-0.243c1.782-0.672,3.637-1.359,5.734-1.324
			c0.541,0.011,1.06,0.07,1.561,0.128c0.475,0.055,0.923,0.106,1.361,0.114c0.537,0.011,2.166,0.042,2.653,1.861
			c0.03,0.113,0.04,0.228,0.031,0.339c0.007,0.117-0.009,0.238-0.049,0.359l-0.05,0.141c-0.015,0.038-0.031,0.075-0.04,0.115
			c-1.032,4.904-3.486,8.915-7.292,11.922c-0.689,0.544-1.482,0.969-2.493,1.335C180.631,341.377,180.329,341.427,180.022,341.427z
			 M177.718,332.938c0.252,0,0.5,0.096,0.69,0.276c0.733,0.7,0.929,1.644,0.578,2.804c-0.199,0.665-0.144,1.414-0.085,2.208
			l0.025,0.358c0.014,0.212,0.195,0.462,0.462,0.636c0.287,0.188,0.621,0.258,0.845,0.174c0.803-0.291,1.418-0.616,1.934-1.024
			c3.478-2.746,5.628-6.268,6.575-10.766c0.016-0.074,0.036-0.147,0.06-0.22c-0.075-0.116-0.232-0.173-0.686-0.182
			c-0.534-0.01-1.052-0.069-1.553-0.127c-0.477-0.055-0.926-0.106-1.371-0.115c-1.749-0.019-3.312,0.563-4.991,1.195l-0.653,0.245
			c-1.341,0.503-2.865,1.07-4.634,0.521c-0.705-0.221-1.521-0.543-2.231-1.262c-1.437-1.455-2.456-1.555-4.365-0.422
			c-0.849,0.504-1.632,1.131-2.461,1.794c-0.496,0.397-0.991,0.794-1.503,1.165c-1.789,1.303-3.813,1.841-5.771,2.361
			c-0.572,0.151-1.145,0.304-1.709,0.476l-0.602,0.178c-0.977,0.286-1.899,0.557-2.714,1.047c-0.686,0.413-1.484,1.066-1.393,1.831
			c0.09,0.758,0.722,1.307,1.876,1.631c3.006,0.846,6.011,0.688,8.291,0.456c5.472-0.555,10.206-2.746,14.115-4.816
			c0.188-0.1,0.385-0.17,0.593-0.238c0.091-0.03,0.186-0.06,0.28-0.102C177.449,332.965,177.584,332.938,177.718,332.938z"/>
	</g>
	<g>
		<path d="M104.874,378.921c-1.681,0-3.268-0.535-4.565-1.558c-1.632-1.285-2.661-3.244-2.826-5.376
			c-0.195-2.539,0.213-5.112,1.25-7.867c1.836-4.884,3.785-10.257,5.957-16.428c0.124-0.35,0.281-0.691,0.441-1.033
			c0.321-0.687,0.599-1.279,0.511-1.897c-0.078-0.547,0.303-1.053,0.85-1.131c0.547-0.08,1.053,0.303,1.131,0.85
			c0.172,1.208-0.28,2.174-0.68,3.026c-0.132,0.282-0.265,0.563-0.366,0.851c-2.177,6.184-4.131,11.569-5.973,16.466
			c-0.931,2.477-1.3,4.77-1.127,7.01c0.122,1.576,0.876,3.02,2.069,3.96c1.184,0.932,2.711,1.305,4.311,1.049
			c1.001-0.162,1.194-0.346,1.249-0.697c0.084-0.546,0.594-0.92,1.141-0.836c0.546,0.084,0.92,0.595,0.836,1.141
			c-0.3,1.945-2.194,2.252-2.908,2.367C105.738,378.887,105.303,378.921,104.874,378.921z"/>
	</g>
	<g>
		<path d="M288.523,294.576c-0.421,0-0.813-0.268-0.95-0.688c-0.016-0.048-0.073-0.139-0.129-0.227
			c-0.144-0.225-0.339-0.532-0.43-0.971c-0.301-1.456-0.541-2.918-0.735-4.469c-0.361-2.895-0.29-5.8-0.222-8.609
			c0.018-0.711,0.035-1.422,0.046-2.132c0.046-3.09,0.288-6.213,0.522-9.233c0.062-0.8,0.124-1.599,0.183-2.398
			c0.031-0.433,0.049-0.87,0.067-1.307c0.038-0.919,0.077-1.869,0.239-2.801c0.083-0.478,0.089-0.982,0.096-1.517
			c0.01-0.861,0.021-1.752,0.343-2.681c0.047-0.135,0.032-0.363-0.105-0.568c-0.307-0.459-0.185-1.08,0.274-1.388
			c0.458-0.307,1.079-0.186,1.388,0.274c0.472,0.704,0.596,1.578,0.332,2.338c-0.215,0.621-0.224,1.314-0.232,2.048
			c-0.007,0.59-0.014,1.2-0.124,1.836c-0.14,0.803-0.175,1.647-0.212,2.541c-0.019,0.457-0.038,0.915-0.071,1.369
			c-0.059,0.803-0.121,1.605-0.183,2.407c-0.231,2.99-0.472,6.081-0.517,9.108c-0.011,0.717-0.028,1.434-0.046,2.151
			c-0.067,2.736-0.137,5.566,0.206,8.313c0.188,1.498,0.42,2.908,0.71,4.313c0.016,0.075,0.067,0.16,0.158,0.302
			c0.11,0.175,0.248,0.392,0.342,0.677c0.172,0.525-0.114,1.09-0.639,1.262C288.731,294.56,288.625,294.576,288.523,294.576z"/>
	</g>
	<g>
		<path d="M184.847,128.036c-0.055,0-0.11-0.004-0.166-0.014c-0.545-0.092-0.912-0.606-0.821-1.151
			c0.519-3.097,1.225-6.13,2.098-9.018c2.413-7.979,6.154-15.497,11.119-22.345c1.638-2.258,3.029-4.334,3.475-6.897
			c0.095-0.544,0.612-0.905,1.156-0.814c0.545,0.095,0.909,0.612,0.814,1.156c-0.519,2.982-2.105,5.358-3.826,7.729
			c-4.833,6.667-8.476,13.984-10.824,21.749c-0.849,2.807-1.534,5.757-2.039,8.77C185.75,127.69,185.327,128.036,184.847,128.036z"
			/>
	</g>
	<g>
		<path d="M177.804,106.594c-0.013,0-0.024,0-0.036,0c-0.553-0.008-0.994-0.461-0.987-1.013c0.007-0.548,0.453-0.987,1-0.987
			c0.008,0,0.017,0,0.022,0c0.06,0,0.092-0.008,0.1-0.012c-0.001,0,0.059-0.066,0.106-0.292c0.119-0.569,0.356-1.041,0.565-1.457
			l0.121-0.242c1.426-2.922,3.263-5.826,5.956-9.417c5.585-7.447,12.372-13.548,20.175-18.135c1.349-0.792,3.388-1.99,5.787-1.22
			c0.525,0.169,0.815,0.732,0.646,1.258c-0.168,0.525-0.729,0.814-1.258,0.646c-1.433-0.459-2.732,0.199-4.162,1.04
			c-7.573,4.451-14.164,10.376-19.589,17.609c-2.614,3.486-4.39,6.292-5.759,9.095l-0.131,0.264
			c-0.177,0.352-0.33,0.655-0.396,0.969C179.713,105.906,178.926,106.594,177.804,106.594z"/>
	</g>
	<g>
		<path d="M333.812,446.868c-1.378,0-2.368-0.91-3.069-1.555c-0.114-0.104-0.228-0.209-0.34-0.308
			c-4.998-4.383-6.367-12.433-3.186-18.726c2.367-4.68,5.938-8.255,9.118-11.134c1.021-0.925,2.055-1.838,3.087-2.75
			c3.43-3.03,6.977-6.164,9.992-9.695c2.604-3.049,4.63-6.054,6.194-9.185c1.403-2.807,2.287-5.539,2.703-8.351
			c0.379-2.562,0.376-5.081-0.008-7.49c-0.219-1.369-0.461-2.696-1.009-3.88c-0.506-1.097-0.305-2.147-0.143-2.992
			c0.092-0.484,0.18-0.942,0.138-1.357c-0.376-3.715-1.241-6.955-2.646-9.905c-0.027-0.059-0.063-0.12-0.099-0.184
			c-0.234-0.414-0.721-1.278-0.102-2.24c0.298-0.464,0.915-0.601,1.382-0.3c0.444,0.285,0.587,0.864,0.336,1.321
			c0.03,0.067,0.086,0.166,0.126,0.237c0.059,0.104,0.114,0.205,0.162,0.304c1.505,3.162,2.431,6.617,2.831,10.565
			c0.071,0.706-0.054,1.358-0.164,1.935c-0.15,0.784-0.23,1.289-0.005,1.777c0.653,1.415,0.925,2.891,1.167,4.403
			c0.416,2.611,0.42,5.335,0.012,8.099c-0.447,3.024-1.394,5.952-2.893,8.952c-1.638,3.278-3.752,6.415-6.462,9.589
			c-3.107,3.639-6.708,6.819-10.189,9.896c-1.026,0.907-2.054,1.814-3.069,2.733c-3.044,2.757-6.456,6.166-8.675,10.554
			c-2.783,5.504-1.614,12.52,2.719,16.319c0.125,0.109,0.249,0.224,0.375,0.339c0.925,0.851,1.41,1.195,2.169,0.948
			c0.523-0.17,1.088,0.117,1.26,0.643c0.171,0.525-0.117,1.089-0.643,1.26C334.502,446.814,334.145,446.868,333.812,446.868z
			 M355.285,357.658l0.84,0.543c0-0.001,0.001-0.001,0.001-0.002L355.285,357.658z"/>
	</g>
	<g>
		<path d="M235.485,45.94c-0.115,0-0.234-0.01-0.358-0.029c-0.546-0.087-0.917-0.6-0.83-1.145s0.601-0.92,1.145-0.83
			c0.125,0.019,0.248-0.052,0.591-0.289c0.267-0.185,0.599-0.415,1.015-0.547c1.611-0.512,3.744-1.081,6.065-1.019
			c0.166,0.006,0.331,0.016,0.498,0.026c0.175,0.011,0.334,0.02,0.48,0.023c-0.438-0.336-1.107-0.515-2.072-0.718
			c-2.96-0.62-5.927-1.212-8.894-1.803c-2.312-0.461-4.624-0.922-6.933-1.396c-0.13-0.026-0.265-0.05-0.399-0.072
			c-0.939-0.161-2.359-0.403-2.909-2.037c-0.176-0.523,0.106-1.09,0.63-1.267c0.523-0.175,1.091,0.106,1.267,0.63
			c0.148,0.441,0.405,0.541,1.35,0.702c0.156,0.027,0.313,0.054,0.464,0.085c2.307,0.474,4.614,0.934,6.922,1.394
			c2.974,0.593,5.946,1.186,8.913,1.808c1.51,0.316,3.576,0.751,4.184,3.103c0.113,0.437-0.08,0.896-0.473,1.118
			c-0.935,0.534-1.889,0.476-2.653,0.427c-0.146-0.009-0.293-0.019-0.438-0.023c-1.99-0.049-3.847,0.435-5.396,0.926
			c-0.13,0.041-0.301,0.159-0.482,0.285C236.786,45.557,236.234,45.94,235.485,45.94z"/>
	</g>
	<g>
		<path d="M218.836,65.904c-0.096,0-0.193-0.014-0.29-0.043c-0.528-0.16-0.827-0.719-0.667-1.247
			c0.086-0.282,0.126-0.604,0.169-0.944c0.072-0.577,0.154-1.231,0.477-1.894c0.976-2.006,2.469-3.66,4.842-5.364
			c5.23-3.757,11.078-5.497,17.627-7.229c0.438-0.115,0.888-0.192,1.338-0.268c0.914-0.152,1.702-0.284,2.336-0.767
			c0.439-0.335,1.065-0.249,1.401,0.19c0.334,0.438,0.249,1.066-0.19,1.401c-1.026,0.782-2.19,0.977-3.217,1.147
			c-0.39,0.065-0.778,0.129-1.156,0.229c-6.354,1.681-12.018,3.362-16.973,6.921c-2.089,1.5-3.387,2.923-4.209,4.614
			c-0.178,0.365-0.23,0.783-0.291,1.268c-0.052,0.409-0.104,0.831-0.239,1.275C219.662,65.625,219.266,65.904,218.836,65.904z"/>
	</g>
	<g>
		<path d="M107.12,307.124c-0.06,0-0.12-0.005-0.182-0.017c-0.543-0.1-0.902-0.621-0.803-1.164c0.542-2.956,1.603-5.104,3.336-6.76
			c0.049-0.047,0.088-0.109,0.131-0.168c0.109-0.151,0.224-0.299,0.355-0.428c1.006-0.974,1.047-1.426,0.762-2.016
			c-0.524-1.086-1.386-1.645-2.712-1.76c-1.507-0.122-2.958,0.335-4.177,0.807c-1.77,0.686-3.581,0.721-5.279,0.65
			c-0.997-0.038-1.721-0.62-2.24-1.124c-0.396-0.384-0.406-1.018-0.021-1.414s1.018-0.406,1.414-0.021
			c0.396,0.384,0.673,0.552,0.926,0.562c1.714,0.066,3.129,0.006,4.479-0.518c1.432-0.555,3.156-1.101,5.071-0.934
			c2.014,0.175,3.515,1.171,4.341,2.882c1.051,2.172-0.563,3.733-1.17,4.321c-0.049,0.048-0.088,0.11-0.131,0.169
			c-0.112,0.154-0.229,0.305-0.364,0.436c-1.416,1.353-2.29,3.155-2.753,5.677C108.015,306.787,107.594,307.124,107.12,307.124z"/>
	</g>
	<g>
		<path d="M245.761,70.167c-0.364,0-0.716-0.199-0.892-0.546c-0.21-0.411-0.643-0.68-1.144-0.991
			c-0.303-0.188-0.616-0.383-0.919-0.63c-0.563-0.46-1.15-0.892-1.754-1.335l-0.828-0.614c-0.406-0.305-0.52-0.865-0.264-1.304
			c0.372-0.639,0.887-1.123,1.34-1.551c0.299-0.282,0.573-0.541,0.787-0.814c-0.665-0.408-1.484-0.637-2.641-0.753
			c-3.718-0.373-7.239,0.466-10.968,1.355c-0.663,0.158-1.325,0.316-1.988,0.468c-1.409,0.32-2.841,0.691-4.225,1.051
			c-0.819,0.213-1.639,0.426-2.461,0.631c-0.412,0.104-0.748-0.053-0.909-0.128c-0.523-0.176-0.813-0.747-0.637-1.271
			s0.739-0.809,1.26-0.634c0.022,0.008,0.045,0.016,0.067,0.025c0.729-0.184,1.453-0.371,2.177-0.56
			c1.398-0.363,2.845-0.738,4.284-1.066c0.656-0.148,1.312-0.306,1.967-0.462c3.727-0.889,7.576-1.806,11.634-1.4
			c1.396,0.142,3.012,0.457,4.402,1.731c0.297,0.271,0.402,0.693,0.268,1.071c-0.351,0.988-1.038,1.638-1.646,2.21
			c-0.146,0.138-0.29,0.273-0.425,0.409c0.627,0.462,1.237,0.911,1.824,1.391c0.22,0.18,0.465,0.328,0.708,0.479
			c0.627,0.39,1.408,0.874,1.87,1.782c0.251,0.492,0.056,1.095-0.437,1.345C246.069,70.132,245.913,70.167,245.761,70.167z"/>
	</g>
	<g>
		<path d="M179.243,125.112c-0.406,0-0.787-0.249-0.938-0.651c-0.276-0.743,0.092-1.319,0.271-1.599
			c-0.406-1.43-0.14-2.781,0.096-3.98c0.066-0.336,0.133-0.673,0.185-1.011c0.657-4.333,2.213-8.628,4.756-13.132
			c0.073-0.13,0.154-0.255,0.236-0.379c0.159-0.243,0.256-0.397,0.246-0.495c-0.054-0.55,0.348-1.039,0.897-1.093
			c0.556-0.048,1.039,0.349,1.093,0.897c0.079,0.808-0.293,1.375-0.564,1.789c-0.058,0.087-0.115,0.174-0.167,0.264
			c-2.421,4.288-3.899,8.36-4.521,12.448c-0.055,0.366-0.127,0.731-0.198,1.097c-0.23,1.169-0.429,2.179-0.091,3.192
			c0.229,0.685-0.117,1.223-0.283,1.48c-0.009,0.014-0.018,0.027-0.027,0.041c0.061,0.452-0.197,0.902-0.643,1.068
			C179.476,125.092,179.359,125.112,179.243,125.112z"/>
	</g>
	<g>
		<path d="M195.08,94.289c-0.369,0-0.724-0.204-0.897-0.557c-0.4-0.811-0.342-1.747,0.164-2.636
			c1.217-2.135,2.443-3.905,3.749-5.411c2.274-2.62,4.828-4.999,7.299-7.299c1.222-1.138,2.444-2.275,3.636-3.444
			c0.021-0.031,0.05-0.097,0.084-0.161c0.197-0.369,0.721-1.353,1.985-1.115c0.543,0.102,0.901,0.623,0.801,1.166
			c-0.09,0.481-0.51,0.817-0.982,0.817h-0.001c-0.013,0.025-0.025,0.051-0.039,0.075c-0.103,0.193-0.231,0.434-0.446,0.645
			c-1.205,1.182-2.439,2.331-3.674,3.481c-2.433,2.264-4.947,4.605-7.151,7.146c-1.219,1.405-2.371,3.071-3.521,5.091
			c-0.26,0.455-0.146,0.684-0.109,0.759c0.245,0.495,0.042,1.095-0.453,1.34C195.38,94.256,195.229,94.289,195.08,94.289z
			 M210.917,74.65l-0.188,0.982c0.002,0,0.004,0,0.006,0L210.917,74.65z"/>
	</g>
	<g>
		<path d="M88.359,355.002c-0.374,0-0.732-0.21-0.903-0.569c-0.238-0.498-0.026-1.096,0.472-1.333
			c0.479-0.229,0.856-0.64,1.293-1.115c0.207-0.226,0.414-0.45,0.634-0.66c2.011-1.925,4.221-3.532,6.567-4.776
			c3.628-1.923,7.107-2.959,10.64-3.168c0.551-0.035,1.024,0.389,1.057,0.939c0.033,0.551-0.388,1.024-0.939,1.057
			c-3.239,0.191-6.451,1.153-9.819,2.939c-2.185,1.157-4.244,2.656-6.122,4.454c-0.188,0.181-0.365,0.374-0.543,0.567
			c-0.505,0.55-1.077,1.173-1.905,1.567C88.65,354.971,88.503,355.002,88.359,355.002z"/>
	</g>
	<g>
		<path d="M241.495,79.67c-0.148,0-0.299-0.033-0.44-0.103c-0.406-0.199-0.903-0.248-1.4-0.134c-0.772,0.174-1.479,0.093-2.099,0.02
			c-0.209-0.024-0.417-0.05-0.626-0.063c-2.043-0.123-2.737-1.19-2.959-2.064c-0.331-1.297,0.557-2.143,1.087-2.648l0.14-0.134
			c0.149-0.145,0.297-0.232,0.404-0.297c3.364-2.41,6.954-4.342,10.062-5.966c0.486-0.259,1.094-0.067,1.349,0.423
			c0.256,0.489,0.067,1.093-0.423,1.349c-3.046,1.593-6.563,3.484-9.748,5.774c-0.067,0.048-0.139,0.092-0.21,0.135l-0.193,0.164
			c-0.402,0.383-0.564,0.566-0.529,0.707c0.042,0.163,0.128,0.5,1.143,0.562c0.246,0.015,0.491,0.043,0.737,0.072
			c0.528,0.062,0.984,0.115,1.423,0.016c0.945-0.212,1.912-0.11,2.727,0.29c0.495,0.244,0.699,0.843,0.456,1.339
			C242.22,79.465,241.865,79.67,241.495,79.67z"/>
	</g>
	<g>
		<path d="M298.184,316.4c-0.493,0-1.01-0.188-1.566-0.566c-1-0.681-1.234-0.688-1.646-0.383c-0.442,0.334-1.068,0.243-1.4-0.197
			c-0.332-0.441-0.244-1.068,0.197-1.4c1.659-1.249,3.108-0.262,3.975,0.328c0.276,0.188,0.41,0.214,0.438,0.218
			c-0.001-0.012,0.117-0.105,0.293-0.448c0.178-0.346,0.259-0.621,0.262-0.894c0.021-1.737-0.181-3.555-0.656-5.894
			c-0.033-0.162-0.082-0.329-0.131-0.501c-0.219-0.771-0.55-1.938,0.229-3.058c0.314-0.454,0.938-0.566,1.392-0.251
			s0.566,0.938,0.251,1.392c-0.216,0.312-0.149,0.656,0.053,1.371c0.063,0.222,0.124,0.438,0.166,0.648
			c0.506,2.483,0.721,4.431,0.697,6.316c-0.007,0.589-0.16,1.155-0.482,1.783c-0.427,0.829-0.947,1.312-1.593,1.476
			C298.504,316.38,298.345,316.4,298.184,316.4z"/>
	</g>
	<g>
		<path d="M246.614,49.944c-0.167,0-0.335-0.042-0.484-0.125c-0.372,0.046-0.88,0.071-1.368-0.313
			c-0.658-0.517-1.5-0.783-2.392-1.065c-0.492-0.156-1.001-0.317-1.502-0.528c-0.552-0.231-1.131-0.412-1.743-0.604
			c-1.2-0.376-2.441-0.764-3.57-1.573c-0.449-0.321-0.553-0.946-0.23-1.395c0.319-0.448,0.947-0.554,1.395-0.23
			c0.869,0.622,1.905,0.946,3.003,1.289c0.63,0.197,1.281,0.4,1.92,0.669c0.419,0.176,0.862,0.316,1.333,0.465
			c0.976,0.31,1.982,0.629,2.894,1.302c0.002,0,0.004-0.001,0.006-0.001c0.278-0.041,0.924-0.137,1.458,0.413
			c0.385,0.396,0.375,1.029-0.021,1.414C247.116,49.85,246.865,49.944,246.614,49.944z"/>
	</g>
	<g>
		<path d="M182.656,128.539c-0.151,0-0.306-0.034-0.451-0.106c-0.483-0.239-0.683-0.828-0.465-1.316
			c-0.369-2.993-0.353-5.626,0.049-8.042c0.09-0.545,0.607-0.917,1.15-0.822c0.545,0.091,0.913,0.605,0.822,1.15
			c-0.387,2.33-0.387,4.792-0.001,7.748c0.056,0.419-0.146,0.726-0.223,0.842C183.365,128.342,183.019,128.539,182.656,128.539z"/>
	</g>
	<g>
		<path d="M179.537,105.865c-0.263,0-0.482-0.084-0.612-0.134c-0.536-0.133-0.886-0.684-0.753-1.22
			c0.132-0.536,0.65-0.875,1.188-0.74c0.042,0.011,0.087,0.023,0.132,0.039c1.953-0.817,4.063-1.291,6.275-1.408
			c0.547-0.033,1.022,0.395,1.052,0.946c0.028,0.552-0.395,1.022-0.946,1.052c-2.083,0.11-4.058,0.569-5.869,1.366
			C179.841,105.838,179.683,105.865,179.537,105.865z"/>
	</g>
	<g>
		<path d="M194.104,95.873c-0.171,0-0.345-0.044-0.503-0.136c-0.477-0.278-0.638-0.891-0.36-1.368
			c0.072-0.122,0.132-0.266,0.194-0.407c0.217-0.492,0.486-1.106,1.104-1.408c0.864-0.422,1.63-1.015,2.44-1.643
			c0.742-0.575,1.51-1.169,2.384-1.646c0.017-0.012,0.046-0.038,0.078-0.063c0.944-0.744,1.673-0.465,2.12-0.099
			c0.428,0.35,0.491,0.979,0.142,1.407c-0.27,0.331-0.707,0.445-1.093,0.315c-0.098,0.074-0.193,0.141-0.286,0.192
			c-0.736,0.402-1.408,0.923-2.12,1.474c-0.836,0.647-1.699,1.316-2.718,1.824c-0.063,0.093-0.156,0.305-0.22,0.451
			c-0.094,0.213-0.189,0.425-0.297,0.609C194.783,95.696,194.448,95.873,194.104,95.873z"/>
	</g>
	<g>
		<path d="M179.729,123.772c-0.457,0-0.869-0.314-0.975-0.778c-0.122-0.539,0.216-1.074,0.754-1.197
			c0.122-0.027,0.238-0.174,0.454-0.478c0.106-0.148,0.212-0.295,0.326-0.43l0.073-0.087c0.381-0.451,0.854-1.014,1.714-1.2
			c0.535-0.119,1.072,0.226,1.189,0.766c0.117,0.539-0.226,1.072-0.766,1.189c-0.175,0.038-0.313,0.185-0.608,0.534l-0.079,0.094
			c-0.078,0.092-0.148,0.193-0.221,0.294c-0.303,0.426-0.761,1.068-1.64,1.269C179.876,123.764,179.802,123.772,179.729,123.772z"/>
	</g>
</g>
</svg>
