<?xml version="1.0" encoding="utf-8"?>
<!-- Generator: Adobe Illustrator 23.0.3, SVG Export Plug-In . SVG Version: 6.00 Build 0)  -->
<svg version="1.1" id="Capa_1" xmlns="http://www.w3.org/2000/svg" xmlns:xlink="http://www.w3.org/1999/xlink" x="0px" y="0px"
	 viewBox="0 0 1200 1200" enable-background="new 0 0 1200 1200" xml:space="preserve">
<path d="M1016.661,865.804c-1.624-12.842-4.264-25.818-9.486-38.108c-5.429-12.13-13.06-23.149-22.107-32.668
	c-9.043-9.556-19.508-17.547-30.578-24.366c-6.349-2.833-12.251-6.656-18.834-8.608c6.742-16.098,15.981-33.975,5.746-56.749
	c-13.33-29.661-6.701-26.799,0-43.969c6.703-17.17,23.346-48.182,0-80.609s-8.749-39.115,4.343-59.612
	c13.091-20.497,17.71-25.171,5.026-39.771c-12.684-14.6,18.044-8.72,17.704-30.976c-0.34-22.257-6.488-45.722-22.73-67.614
	c-16.242-21.891,22.03-20.868,10.763-56.434c-11.265-35.568-24.494-37.691-37.197-55.945c-5.315-7.64-6.839-17.345-6.811-26.047
	c0.045-14.064-3.865-27.794-11.202-39.793c-8.829-14.435-17.811-32.297-27.866-35.775c-15.47-5.35-23.067-39.971-47.885-44.123
	c-24.818-4.152-22.581-19.148-39.135-24.147c-16.554-5-55.517-9.015-55.517-9.015c-12.156-13.817-12.673-20.859-27.685-33.485
	c-4.435-3.731-12.872-6.117-18.604-5.253c-18.154,2.739-24.86,14.499-39.896,24.026c-10.244-21.019-37.319-27.165-60.698-26.744
	c-15.071,0.271-30.655,2.13-45.527,0.822c-12.861-1.132-25.345,5.4-31.352,16.827c-3.499,6.657-8.313,12.168-15.294,14.923
	c-17.366,6.858-40.763-6.911-54.143,6.111c-4.934,4.803-6.737,12.08-11.429,17.122c-16.023,17.221-53.162-1.06-64.649,19.467
	c-4.765,8.517-1.582,19.137-2.785,28.821c-1.34,10.794-8.086,20.035-14.609,28.739l-30.568,40.788
	c-7.41,9.888-8.468,22.803-3.989,34.319c1.093,2.808,1.561,5.885,1.22,8.815c-1.079,9.29-7.471,16.964-13.589,24.037
	c-3.857,4.457-7.712,8.915-11.568,13.372c-4.376,5.059-6.3,12.824-7.858,21.844c-2.724,15.771,1.068,31.733,9.189,45.525
	c9.89,16.797,5.948,32.31-9.612,43.067c-5.547,3.834-9.649,5.463-14.978,8.916c-6.829,4.424-11.379,11.853-11.465,19.99
	c-0.225,21.347,25.777,9.833,28.531,24.091c0.654,3.387-0.376,6.933-2.497,9.653c-15.178,19.465-14.103,49.305,1.743,67.996
	c2.511,2.964,5.413,5.772,6.724,9.427c6.234,17.379-21.755,26.747-15.78,44.217c4.789,14.001,21.745,13.687,33.781,22.293
	c9.04,6.461,10.864,19.203,9.705,30.253c-1.159,11.051-12.878,24.829-11.056,35.79c1.206,7.258,3.011,18.481-0.504,24.945
	c-2.103,3.865-10.4,10.251-14.119,12.603c-18.042,11.417-39.048,31.533-38.575,44.384c-1.154,0.486-2.307,0.975-3.453,1.487
	c-11.069,6.819-21.535,14.81-30.576,24.366c-9.047,9.52-16.679,20.538-22.107,32.668c-5.222,12.29-7.861,25.265-9.485,38.108
	c-2.477,25.752-1.214,51.371,1.753,76.616c1.406,12.645,3.399,25.19,5.56,37.701c3.81,12.211,7.902,24.31,12.949,36.059
	c-0.87-12.74-1.832-25.335-2.407-37.934c-2.127-12.312-4.089-24.661-5.466-37.059c-2.923-24.751-4.095-49.77-1.746-74.207
	c1.543-12.132,4.002-24.014,8.651-34.987c4.889-10.895,11.77-20.859,20.058-29.585c8.302-8.715,17.935-16.28,28.409-22.488
	c1.033-0.822,2.217-1.508,3.712-2.095c1.664,0.975,3.195,1.483,5.754,2.08c0,0,25.208-5.909,34.439,17.887
	c9.23,23.797,44.773,16.91,44.773,16.91l8.463,73.936c0,0-16.756,79.561-14.371,110.768c2.677,35.005,7.02,77.208,22.032,77.628
	c15.012,0.419,23.886-17.914,36.448-13.796c12.56,4.118-60.18,68.164-21.622,72.893c21.828,2.677,27.016-25.459,43.859-22.032
	c12.149,2.47,6.277,26.755,17.297,31.916c32.533,15.238,27.18-17.09,33.842-31.643c16.155-35.29,50.595-17.828,57.373,6.845
	c6.776,24.672,42.491-5.679,39.874-33.894c-2.619-28.217-25.512-51.249-5.481-71.926c20.031-20.678,41.847-33.707,18.778-72.978
	c-23.07-39.272-0.962-47.27-8.438-81.902c-7.478-34.633-20.355-51.796-16.063-78.985c4.292-27.189,20.031-40.078,1.431-64.397
	c-18.6-24.318,8.053-48.43-21.728-72.86c-20.746-17.018-16.711-28.208-16.917-42.457c5.204,5.427,10.803,10.289,16.741,14.76
	c12.572,9.472,26.835,16.925,42.23,21.228c7.717,1.981,15.646,3.53,23.696,3.614c4.038,0.328,7.94-0.119,11.912-0.176
	c3.944-0.388,7.916-0.684,11.828-1.413c15.692-2.62,30.963-8.695,43.999-17.859c6.547-4.521,12.579-9.716,18.138-15.222
	c2.767-2.751,5.451-5.587,8.024-8.345c1.588-1.686,3.191-3.435,4.78-5.199c-2.632,6.594-4.205,13.509-3.912,21.065
	c1.431,37.051-0.227,54.466-14.421,80.813c-14.195,26.348-15.225,34.684-0.401,57.702c14.822,23.017-32.553,41.915-12.443,68.237
	c20.111,26.321,15.592,13.444,12.844,54.938c-2.748,41.494,8.829,47.21,0,67.011c-5.61,12.579-2.381,23.966,2.259,29.093
	c11.323,12.509,22.178,6.2,19.316,25.222c-3.759,24.993,1.044,53.597,21.016,60.598c19.974,7.001,8.762-45.499,16.016-34.693
	c7.253,10.807-0.354,71.739,16.01,64.026c16.364-7.713,10.186-26.245,23.982-18.421c13.797,7.825-11.497,24.173-1.013,34.84
	c10.484,10.666,20.824,0.648,39.842-23.324c17.797-22.429,17.178,18.753,17.178,18.753s-2.449,30.602,11.028,35.48
	c13.475,4.879,34.726-44.597,30.231-75.602c-4.495-31.004,10.885-29.994,21.878-26.441c10.991,3.553,26.462-42.833,26.462-42.833
	s26.354-97.956,14.897-120.142c-11.458-22.186-9.826-73.821-6.232-92.349c0.532-2.736,0.349-2.634,1.46-5.599
	c5.908,2.249,11.955,4.325,17.002,8.338c10.474,6.208,20.106,13.773,28.408,22.488c8.288,8.726,15.169,18.69,20.059,29.585
	c4.648,10.973,7.107,22.855,8.651,34.987c2.349,24.438,1.176,49.456-1.746,74.207c-1.377,12.398-3.339,24.747-5.467,37.059
	c-0.573,12.599-1.537,25.194-2.407,37.934c5.047-11.749,9.139-23.848,12.949-36.059c2.163-12.51,4.156-25.055,5.561-37.701
	C1017.874,917.175,1019.138,891.557,1016.661,865.804z M730.389,512.531c0.307,4.267,0.145,8.317-0.37,12.202
	c-0.49,1.081-0.967,2.168-1.488,3.228c-3.315,6.628-7.185,12.93-11.617,18.87c-7.34,12.744-16.328,24.724-26.084,35.961
	c-4.841,5.538-10.111,11.145-15.273,16.354c-5.223,5.171-10.746,9.912-16.69,14.019c-11.83,8.308-25.454,13.713-39.689,16.106
	c-3.545,0.667-7.171,0.924-10.768,1.289c-3.613,0.037-7.297,0.473-10.84,0.157c-7.159-0.054-14.252-1.465-21.204-3.235
	c-13.865-3.874-26.995-10.683-38.65-19.472c-5.821-4.379-11.377-9.222-16.288-14.466c-4.712-4.911-8.843-11.505-13.222-17.595
	c-1.553-1.792-3.106-3.6-4.655-5.399c-9.106-13.249-13.311-8.363-20.463-39.352c-8.545-37.016-32.488-56.378-8.376-86.886
	c24.114-30.507,36.726-28.692,31.852-96.848c-4.876-68.157,9.794-65.099,37.514-60.189c27.72,4.909,57.768-16.899,57.768-16.899
	s28.168,17.712,45.562,16.899c17.394-0.814,52.986,14.517,59.514,39.046c6.526,24.527,4.634,49.117,23.466,62.577
	c18.832,13.46,20.753,19.847,23.694,44.938C757.023,458.926,727.296,469.606,730.389,512.531z"/>
</svg>
