<?xml version="1.0" encoding="utf-8"?>
<!-- Generator: Adobe Illustrator 23.0.3, SVG Export Plug-In . SVG Version: 6.00 Build 0)  -->
<svg version="1.1" id="Capa_1" xmlns="http://www.w3.org/2000/svg" xmlns:xlink="http://www.w3.org/1999/xlink" x="0px" y="0px"
	 viewBox="0 0 1200 1200" enable-background="new 0 0 1200 1200" xml:space="preserve">
<path d="M941.776,471.784c3.229,0.107,6.442-0.245,9.48-1c4.881-1.185,9.335-3.428,13.42-6.136c2.052-1.466,3.871-2.769,5.87-4.754
	c0.982-1,1.99-2.197,2.82-3.794c0.818-1.591,1.407-3.727,1.113-5.926c-0.257-2.243-1.374-4.171-2.674-5.554
	c-1.325-1.391-2.864-2.371-4.561-2.995c-3.577-1.27-6.823-0.742-9.483,0.04c-2.675,0.836-4.817,1.913-7.023,3.166
	c-2.161,1.272-4.235,2.719-6.094,4.433c-3.722,3.398-6.818,7.648-8.616,12.521c-0.083,0.23-0.133,0.454-0.211,0.683
	c-2.822-0.821-5.472-2.242-7.777-4.369c-1.315-1.196-2.506-2.549-3.607-4.001c1.659-2.309,2.745-5.275,2.685-9.282
	c-0.226-14.779-3.344-30.161-10.954-45.105c6.442,2.058,13.556,3.009,20.583,1.333c4.348-1.049,8.309-3.247,11.502-6.171
	c3.114-2.987,5.441-6.895,5.774-10.969c-4.646,6.601-11.783,9.32-18.492,9.784c-6.794,0.36-13.646-1.638-20.421-4.437
	c-2.533-1.066-5.02-2.198-7.463-3.385c-0.224-0.308-0.43-0.619-0.658-0.927c-9.647-13.002,2.412-16.887,8.397-27.531
	c4.537,0.564,9.222,0.772,14.039,0.279c6.475-0.609,13.108-3.012,18.549-6.834c5.481-3.817,9.959-9.024,12.888-15.037
	c1.33-2.977,2.861-6.147,2.726-10.554c-0.086-2.161-0.831-4.444-2.1-6.268c-1.289-1.832-3.008-3.147-4.736-4.027
	c-3.5-1.721-7.064-2.156-10.495-1.82c-3.533,0.419-6.491,1.522-9.388,2.962c-5.644,3.004-10.279,7.668-12.678,13.214
	c4.142-4.337,9.135-7.427,14.443-8.906c2.583-0.754,5.43-1.235,7.82-1.059c2.464,0.177,4.944,0.838,6.618,2.028
	c1.703,1.232,2.196,2.512,2.158,4.034c-0.066,1.582-1.081,4.005-2.362,6.277c-2.517,4.493-6.067,8.458-10.321,11.385
	c-4.257,2.988-9.019,4.88-14.3,5.711c-3.243,0.54-6.645,0.698-10.121,0.706c0.584-3.953,0.248-8.683-1.605-14.535
	c-9.976-31.496-21.691-33.377-32.94-49.541c-11.247-16.165-15.556-42.773-15.556-42.773c-4.522-2.826-7.252-9.426-9.603-16.841
	c8.903-4.947,19.083-7.297,29.062-7.166c5.43,0.129,10.818,0.939,15.941,2.506c1.289,0.372,2.555,0.802,3.783,1.329
	c1.256,0.457,2.47,1.004,3.651,1.617c2.456,1.113,4.545,2.453,6.27,3.987c1.733,1.504,2.854,3.172,3.144,4.676
	c0.309,1.529-0.026,3.124-1.144,5.079c-1.103,1.943-2.849,3.989-4.741,6.257c-1.912,2.239-3.968,5.059-5.422,7.923
	c-3.022,5.778-4.682,12.191-4.897,18.667c-0.106,3.238,0.151,6.496,0.799,9.69c0.641,3.128,1.681,6.496,3.833,9.655
	c0.319,0.465,0.739,0.902,1.124,1.352c-0.102,5.678,1.373,11.67,5.448,15.559c-1.755-2.327-2.747-5.07-3.116-7.858
	c-0.293-1.876-0.305-3.777-0.15-5.656c0.364,0.281,0.674,0.604,1.076,0.851c1.84,1.145,4.062,1.812,6.178,1.868
	c4.297,0.128,7.804-1.571,10.655-3.616c5.651-4.319,8.894-10.485,10.132-16.972c0.586-3.251,0.609-6.599,0.022-9.858
	c-0.164-0.849-0.38-1.878-1.031-3.065c-0.603-1.197-2.08-2.465-3.526-2.8c-2.919-0.603-4.398,0.218-6.118,0.767
	c-3.252,1.386-5.718,3.479-7.909,5.674c-2.166,2.226-4.011,4.651-5.628,7.203c-0.794,1.257-1.541,2.537-2.23,3.852
	c-0.305-2.079-0.454-4.186-0.357-6.296c0.234-5.091,1.624-10.148,4.03-14.597c1.242-2.264,2.569-4.181,4.37-6.379
	c1.766-2.205,3.832-4.569,5.575-7.682c1.755-3.025,2.996-7.406,2.001-11.585c-0.952-4.204-3.574-7.359-6.205-9.589
	c-2.689-2.214-5.647-3.844-8.501-5.021c-1.421-0.662-2.87-1.245-4.355-1.726c-1.461-0.553-2.954-0.996-4.464-1.372
	c-6.006-1.608-12.225-2.26-18.366-1.943c-10.839,0.467-21.492,3.789-30.465,9.635c-1.355-4.59-2.693-9.223-4.306-13.29
	c4.113-3.769,7.523-8.287,9.795-13.407c1.608-3.546,2.759-7.326,3.269-11.224c0.406-3.912,0.394-7.858-0.426-11.783
	c-0.786-3.899-2.441-7.88-5.41-11.07c-0.721-0.803-1.552-1.518-2.406-2.186c-1.117-0.832-2.183-1.323-3.188-1.706
	c-2.01-0.74-3.872-1.086-5.728-1.33c-1.847-0.24-3.658-0.369-5.454-0.448l-2.679-0.077c-0.857-0.005-1.766-0.048-2.86,0.024
	c-0.086,0.008-0.162,0.028-0.247,0.036c-1.778-0.994-3.71-1.741-5.77-2.111c-4.822-0.918-9.351-0.031-13.308,1.376
	c-0.084-0.243-0.147-0.495-0.235-0.737c-0.752-2.141-1.762-4.292-2.767-6.191c-0.974-1.899-2.128-3.977-3.804-6.045
	c-1.608-2.045-4.247-4.006-6.686-4.946c-2.018-0.804-3.98-1.254-5.895-1.543c0.217-2.295,0.324-4.611,0.18-6.959
	c-0.165-3.179-0.736-6.38-1.717-9.484c-0.461-1.525-1.041-3.174-2.036-4.885c-0.498-0.852-1.091-1.721-1.85-2.549
	c-0.375-0.413-0.79-0.815-1.242-1.191c-0.22-0.191-0.466-0.366-0.702-0.545c-0.323-0.22-0.705-0.449-1.069-0.647
	c-2.534-1.156-4.121-1.215-5.821-1.425c-1.644-0.144-3.201-0.181-4.725-0.175l-2.255,0.038c-0.831,0.052-1.674,0.063-2.486,0.184
	c-1.647,0.171-3.226,0.511-4.787,0.873c-4.468,1.137-8.552,2.938-12.362,5.082c-0.38-2.286-0.929-4.52-1.609-6.689
	c-0.721-2.341-1.688-4.756-3.177-7.172c-1.5-2.369-3.756-4.786-6.788-6.233c-3.03-1.411-6.141-1.702-8.915-1.532
	c-2.758,0.204-5.416,0.738-8.003,1.775c-2.592,1.019-5.033,2.546-6.978,4.202c-4.008,3.327-7.174,7.377-9.34,12.087
	c-1.066,2.299-1.87,5.025-2.076,7.518c-0.198,2.208-0.303,4.419-0.329,6.627c-5.468-7.967-8.208-17.718-12.907-26.273
	c-0.279-0.508-0.58-1.011-0.884-1.513c0.251-2.365,0.364-4.763,0.245-7.204c-0.34-5.679-2.08-11.688-5.722-16.655
	c-3.523-4.996-8.266-8.656-12.888-11.776c-2.294-1.546-4.888-3.181-8.086-4.333c-3.254-1.107-6.946-1.398-10.315-0.786
	c-6.826,1.266-12.331,5.423-16.026,10.602c-1.829,2.597-3.273,5.607-4.032,8.662c-0.357,1.343-0.596,2.703-0.758,4.062
	c-2.149-0.822-4.371-1.427-6.621-1.86c-2.406-0.386-4.835-0.546-7.258-0.517c-8.209,0.166-16.309,3.273-22.565,8.34
	c-0.468-0.749-0.981-1.51-1.63-2.313c-1.562-2.084-4.663-4.011-7.211-4.587c-2.61-0.641-4.687-0.761-6.962-0.849
	c-8.578-0.133-17.09,2.796-23.65,8.096c-3.392-4.937-7.611-9.612-12.993-13.024c-1.264-0.857-2.627-1.614-4.049-2.285
	c-0.546-1.426-1.105-2.84-1.684-4.251c-0.733-1.76-1.569-3.743-3.016-5.694c-1.467-2.005-3.556-3.579-5.52-4.621
	c-2.013-1.073-3.925-1.714-5.874-2.341c-3.915-1.214-8.05-1.932-12.316-1.898c-4.256,0.02-8.643,0.967-12.683,2.874
	c-4.026,1.925-7.395,4.701-10.24,7.61c-2.817,2.976-5.135,6.076-7.403,9.112c-2.27,3.111-4.648,6.445-6.301,10.506
	c-1.014,2.435-1.691,5.258-1.769,8.151c-3.166-0.829-6.416-1.152-9.514-1.018c-4.682,0.289-8.956,1.269-13.189,2.599
	c-4.21,1.425-8.567,3.119-12.443,6.674c-0.962,0.888-1.853,1.913-2.661,3.109c-0.84,1.28-1.453,2.688-1.816,4.045
	c-0.725,2.723-0.674,5.097-0.76,7.031c-0.047,1.955-0.236,3.471-0.666,4.505c-0.077,0.293-0.252,0.493-0.358,0.762l-0.252,0.343
	c-0.057,0.098-0.157,0.242-0.383,0.492c-0.748,0.859-1.454,1.756-2.117,2.688c-2.4,3.382-4.259,7.278-5.053,11.463
	c-11.46-3.251-23.844-4.42-36.059-2.061c-6.441,1.374-12.874,3.464-18.677,7.633c-2.843,2.104-5.476,4.763-7.384,7.99
	c-1.968,3.216-2.918,6.905-3.139,10.445c-0.462,7.118,1.926,13.817,5.376,19.265c0.333,0.511,0.708,0.973,1.055,1.468
	c-1.779,0.106-3.563,0.257-5.362,0.502c-1.5,0.197-2.989,0.509-4.482,0.833c-1.6,0.387-3.131,0.873-4.59,1.43
	c-2.911,1.137-5.658,2.433-8.285,3.955c-2.631,1.516-5.182,3.145-7.643,5.126c-2.698,2.163-4.961,4.862-6.568,8.006
	c-1.63,3.112-2.524,6.821-2.201,10.58c0.11,1.686,0.759,4.238,1.715,5.741c0.904,1.624,1.938,2.922,3.012,4.112
	c4.33,4.632,9.002,8.113,13.95,11.255c1.989,1.254,4.004,2.449,6.057,3.587c-5.487,7.322-10.974,14.644-16.461,21.966
	c-2.737,0.917-5.486,1.776-8.264,2.514c-2.511,0.638-4.943,1.248-7.537,1.776c-2.623,0.572-5.386,1.192-8.236,2.128
	c-2.827,0.968-5.807,2.291-8.554,4.51c-2.704,2.258-4.958,5.569-5.719,9.135c-0.792,3.523-0.517,6.852,0.148,9.829
	c0.644,2.995,1.681,5.711,2.951,8.365c2.63,5.624,6.561,10.522,11.24,14.321c-1.056,0.775-2.093,1.589-3.085,2.49
	c-3.019,2.8-5.686,6.261-7.295,10.3c-0.148,0.351-0.24,0.718-0.371,1.074c-4.557,1.896-8.549,4.377-12.474,7.315
	c-4.598,3.676-7.738,8.292-10.633,12.911c-1.446,2.374-2.699,4.844-3.845,7.341c-1.11,2.575-2.182,5.459-2.417,8.855
	c-0.306,3.385,0.84,7.247,2.56,9.912c1.68,2.724,3.58,4.767,5.044,6.656c2.849,3.481,4.702,7.659,6.204,12.372
	c1.384,4.625,3.014,10.071,3.616,14.218c0.092,0.732,0.082,1.385,0.09,2.052c-1.888-0.604-3.774-1.334-5.62-2.175
	c-6.312-2.844-12.869-6.676-20.636-8.607c-3.909-0.988-8.116-1.236-12.175-0.624c-4.054,0.64-8.179,2.193-11.456,5.135
	c-3.323,2.899-5.296,7.19-5.749,11.283c-0.489,4.125,0.126,8.059,1.124,11.725c2.16,7.255,5.261,13.966,9.165,20.231
	c1.927,3.074,3.891,6.047,4.579,9.441c0.669,3.262-0.074,7.336-3.223,9.364c3.421-1.594,4.916-5.809,4.633-9.554
	c-0.333-3.853-2.151-7.29-3.702-10.515c-3.104-6.41-5.597-13.209-6.942-20.019c-0.632-3.37-0.887-6.772-0.279-9.835
	c0.59-3.06,2.102-5.666,4.396-7.404c4.633-3.524,11.706-3.993,17.709-2.11c2.092,0.629,4.148,1.482,6.21,2.445
	c-0.001,0.014-0.001,0.028-0.002,0.041c-2.008-0.851-4.208-1.495-6.739-1.611c-1.79-0.063-3.792,0.211-5.618,1.088
	c-1.817,0.846-3.375,2.198-4.488,3.848c-2.19,3.335-2.416,7.001-1.859,10.211c0.262,1.59,0.894,3.305,1.497,4.567
	c0.603,1.307,1.238,2.494,1.885,3.679c1.287,2.363,2.651,4.625,4.06,6.864l4.203,6.477c1.263,2.069,2.351,4.332,3.345,6.646
	c1.981,4.632,3.672,9.532,4.992,14.457c0.478,1.43,0.422,2.794-0.13,4.107c-0.189,0.013-0.373,0.028-0.564,0.041
	c-5.315,0.403-10.886,0.851-16.606,2.307c-5.693,1.411-11.588,4.182-16.086,8.862c-4.422,4.705-7.015,10.716-7.907,16.816
	c-0.875,6.099-0.179,12.493,2.444,18.175c0.4,0.864,0.9,1.669,1.369,2.493c-4.783,4.024-8.506,9.152-10.497,14.871
	c3.009-5.123,7.206-9.349,12.006-12.436c2.415,3.501,5.443,6.559,9.037,8.885c2.613,1.655,5.501,2.953,8.566,3.662
	c1.549,0.358,3.04,0.581,4.741,0.647c1.691,0.034,3.676-0.122,5.628-1.075c1.976-0.913,3.581-2.605,4.46-4.4
	c0.902-1.805,1.23-3.683,1.21-5.479c-0.05-3.54-1.49-7.164-4.43-9.517c-2.695-2.173-5.998-3.123-9.039-3.313
	c-3.071-0.189-6.014,0.246-8.787,1.07c-1.896,0.576-3.701,1.356-5.457,2.222c-0.195-0.406-0.43-0.796-0.6-1.211
	c-3.479-8.159-1.875-18.764,4.125-24.882c2.915-3.081,6.959-5.225,11.586-6.434c4.622-1.287,9.756-1.732,15.06-2.324
	c5.29-0.601,10.888-1.197,16.467-2.812c5.501-1.608,10.776-3.903,15.558-6.944c2.365-1.534,4.657-3.173,6.834-4.938
	c2.174,1.112,3.834,2.683,4.487,5.202c1.145,4.421-2.008,8.652-4.455,12.508c-9.417,14.838-9.429,34.903-0.771,50.09
	c-0.551,2.565-1.13,5.088-1.832,7.527c-0.299,1.153-0.684,2.259-1.056,3.372c-0.713-1.838-1.812-3.979-3.653-5.738
	c-2.031-1.859-4.05-2.707-5.707-3.487l-2.44-1.08l-1.203-0.539c-0.477-0.221-0.982-0.429-1.497-0.626
	c-2.046-0.76-4.577-1.396-7.443-0.861c-2.959,0.548-5.109,2.413-6.512,3.982c-1.436,1.631-2.425,3.17-3.487,4.83
	c-8.13,13.224-7.788,30.556,0.351,42.412c-4.698-13.438-2.244-28.195,5.523-38.446c0.96-1.229,2.053-2.572,3.063-3.495
	c1.027-0.955,1.884-1.298,2.457-1.333c0.646-0.076,1.702,0.129,2.911,0.684l0.924,0.457l1.18,0.625l2.335,1.227
	c1.493,0.79,2.695,1.543,3.219,2.158c0.561,0.569,1.054,1.444,1.527,2.835c0.115,0.337,0.232,0.672,0.334,1.051l0.415,1.393
	c0.411,1.206,0.915,2.307,1.651,3.458c0.394,0.583,0.804,1.16,1.437,1.787c0.607,0.599,1.398,1.294,2.754,1.811
	c1.287,0.539,3.336,0.578,4.771-0.106c1.279-0.524,2.521-1.679,3.062-2.587c0.581-0.904,0.823-1.541,0.987-1.93l0.531-1.325
	c0.331-0.89,0.713-1.769,0.999-2.669c0.589-1.797,1.178-3.594,1.628-5.405c0.02-0.075,0.032-0.15,0.051-0.225
	c1.379,1.637,2.649,3.341,3.367,5.342c5.52,15.39-23.504,27.253-18.214,42.724c0.288,0.841,0.657,1.595,1.075,2.295
	c0.022,1.677,0.274,3.361,0.794,4.938c2.091,6.189,6.599,10.306,11.276,13.244c4.679,2.826,9.377,4.597,13.44,6.502
	c0.212,0.098,0.441,0.208,0.67,0.32c-0.538,0.461-1.062,0.935-1.667,1.328c-3.362,2.427-7.432,4.092-11.779,5.527
	c-8.68,2.884-18.628,4.292-28.037,8.833c-2.495,1.217-5.06,2.764-7.059,5.659c-0.962,1.457-1.686,3.485-1.474,5.503
	c0.136,2.004,1.178,3.869,2.367,5.085c2.43,2.427,5.184,3.334,7.615,4.049c2.449,0.721,4.935,1.29,7.453,1.577
	c10.029,1.259,20.31-0.493,28.846-5.188c-9.292,2.805-19.051,3.047-28.009,0.733c-2.235-0.577-4.431-1.263-6.538-2.149
	c-2.111-0.802-3.967-1.892-4.834-3.059c-0.407-0.576-0.52-0.998-0.468-1.426c0.021-0.411,0.179-0.776,0.572-1.303
	c0.845-1.053,2.563-2.142,4.463-2.84c8.386-3.229,17.859-4.318,27.664-7c4.897-1.314,9.922-3.286,14.482-6.436
	c1.161-0.745,2.234-1.632,3.291-2.545l0.799-0.677c0.313-0.292,0.633-0.614,0.958-0.986c0.636-0.75,1.363-1.663,1.868-3.211
	c0.542-1.513,0.42-3.865-0.579-5.468c-0.959-1.602-2.071-2.335-2.85-2.854c-1.49-0.895-2.43-1.357-3.661-1.969
	c-4.638-2.287-9.097-3.789-12.709-5.972c-1.335-0.788-2.588-1.713-3.688-2.726c6.774,1.597,14.438,2.506,19.874,6.392
	c8.005,5.722,9.62,17.005,8.594,26.791c-0.016,0.157-0.042,0.315-0.059,0.472c-0.671,1.173-1.164,2.38-1.498,3.471
	c-1.461,4.839-1.549,9.721-1.026,14.323c-0.343,3.687-0.385,7.366,0.225,11.031c1.068,6.427,4.033,13.357,0.921,19.081
	c-0.672,1.237-1.619,2.249-2.651,3.188c-0.981-0.526-1.961-1.134-2.928-1.822c-2.039-1.396-4.004-3.088-5.998-4.841
	c-2.134-1.875-4.592-3.92-7.564-5.462c-2.96-1.583-6.474-2.468-9.666-2.591c-1.61-0.094-3.16-0.046-4.659,0.068
	c-0.687,0.043-1.59,0.125-2.516,0.295c-0.894,0.178-1.757,0.423-2.593,0.717c-3.331,1.223-6.007,3.256-8.226,5.513
	c-2.214,2.303-4.01,4.768-5.429,7.723c-2.551,5.689-3.592,11.378-3.768,17.389c0.032,5.983,1.27,11.695,3.271,17.073
	c1.728,4.616,3.975,8.945,6.569,13.021c-5.654,2.228-11.21,3.576-17.666,5.306c-3.208,0.953-6.563,2.139-9.833,3.958
	c-3.273,1.798-6.377,4.532-8.528,7.363c-2.222,2.882-3.985,6.004-5.344,9.346c-0.828,2.146-1.5,4.403-1.872,6.765
	c-6.347,7.41-11.75,15.697-15.772,24.686c-4.624,10.883-6.962,22.373-8.4,33.746c-2.193,22.804-1.075,45.491,1.552,67.846
	c1.245,11.198,3.01,22.308,4.924,33.386c3.374,10.813,6.997,21.528,11.467,31.932c-0.77-11.283-1.623-22.436-2.131-33.592
	c-1.883-10.903-3.621-21.839-4.84-32.818c-2.588-21.919-3.626-44.074-1.546-65.715c1.367-10.743,3.544-21.266,7.661-30.982
	c2.33-5.191,5.205-10.119,8.475-14.791c0.081,0.264,0.149,0.534,0.234,0.795c1.098,3.239,2.467,6.148,3.634,9.063
	c2.363,6.029,5.884,12.153,10.969,16.244c-3.27-5.664-4.986-11.537-6.143-17.757c-1.325-5.698-2.83-10.91-2.802-15.885
	c1.117-1.302,2.212-2.623,3.396-3.869c7.352-7.718,15.882-14.416,25.157-19.914c2.253-1.792,4.571-3.521,6.935-5.204
	c0.694-0.266,1.37-0.572,2.055-0.861c-0.863,3.997-1.403,8.06-1.628,12.149c-1.537,1.037-3.076,2.071-4.549,3.224
	c-3.943,3.114-7.744,6.621-10.878,11.033c-3.047,4.363-5.406,9.955-5.372,15.851c-0.009,5.778,1.606,10.903,3.198,15.447
	c1.626,4.567,3.262,8.802,3.781,12.721c0.513,3.918-0.177,7.213-2.335,10.284c-2.163,3.106-5.745,5.859-9.525,8.818
	c-3.787,2.871-7.914,6.576-10.763,11.013c-2.864,4.401-4.935,9.32-5.718,14.471c-0.415,2.579-0.592,5.375,0.12,8.261
	c0.609,2.902,2.813,5.725,5.101,7.082c2.287,1.456,4.338,2.374,6.463,3.529l6.359,3.286c4.247,2.178,8.538,4.286,12.852,6.354
	c-3.805-2.901-7.634-5.762-11.507-8.553l-5.82-4.168c-1.899-1.383-4.034-2.759-5.6-4.103c-1.599-1.388-2.36-2.697-2.6-4.525
	c-0.244-1.797,0.043-3.849,0.617-5.907c1.156-4.173,3.057-8.125,5.684-11.494c2.61-3.42,5.896-5.904,9.756-8.661
	c3.786-2.75,8.132-5.552,11.722-10.105c3.772-4.488,5.128-11.226,4.358-16.704c-0.685-5.555-2.554-10.279-4.014-14.69
	c-1.518-4.407-2.823-8.532-2.834-12.318c-0.094-3.695,1.289-7.346,3.589-10.797c2.222-3.479,5.316-6.689,8.706-9.619
	c3.393-2.923,7.132-5.511,11.01-7.97c2.159-1.297,4.358-2.54,6.582-3.748c4.391,0.776,8.663,3.188,11.675,8.622
	c-1.366,1.12-2.702,2.295-3.971,3.6c-3.582,3.615-6.549,8.043-8.419,13.112c-1.903,5.055-2.308,10.878-1.325,16.162
	c1.005,5.308,3.117,10.19,5.867,14.505c2.744,4.233,6.09,8.45,10.887,11.341c2.377,1.424,5.09,2.534,7.97,2.804
	c3.053,0.27,5.922-0.426,8.37-1.754c2.391-1.398,4.503-3.408,5.49-6c0.492-1.272,0.721-2.64,0.57-3.936
	c-0.111-1.26-0.56-2.629-1.546-3.379c0.522,1.091,0.446,2.239,0.115,3.285c-0.248,1.055-0.772,1.984-1.434,2.747
	c-1.297,1.544-3.124,2.546-5.017,2.998c-1.874,0.501-3.84,0.474-5.424-0.073c-1.748-0.593-3.394-1.488-4.859-2.759
	c-2.913-2.557-5.337-6.046-7.378-9.847c-2.038-3.756-3.563-7.695-4.286-11.632c-0.735-3.95-0.586-7.8,0.522-11.657
	c1.091-3.86,3.072-7.619,5.54-11.175c0.451-0.637,0.941-1.254,1.427-1.874c6.808,11.52,21.8,12.769,30.79,12.368l-0.59,0.51
	c-1.55,1.427-3.629,3.071-5.05,6.256c-0.699,1.565-0.992,3.596-0.71,5.357c0.247,1.79,0.906,3.262,1.568,4.469
	c1.387,2.433,2.795,3.968,3.792,5.467c2.17,3.077,3.936,6.42,5.35,9.867c1.103,2.631,1.946,5.365,2.502,8.134
	c-4.238,3.022-8.131,6.603-11.47,10.751c-6.087,7.582-10.186,16.951-11.457,26.801c-2.524,0.328-5.127,0.257-7.74-0.341
	c-7.408-1.405-14.525-6.352-17.7-14.067c1.097,8.376,8.067,15.6,16.425,18.519c2.715,0.994,5.627,1.491,8.591,1.572
	c-0.028,1.942,0.031,3.891,0.241,5.843c0.229,1.919,0.551,3.831,1.018,5.759c-3.685,2.931-6.584,6.68-8.199,10.875
	c2.632-3.176,5.77-5.737,9.18-7.572c0.154,0.443,0.287,0.884,0.464,1.331c1.39,3.426,3.691,7.22,7.648,9.464
	c4.2,2.297,8.824,2.251,12.887,0.1c-0.529,3.89-1.011,7.838-1.42,11.774c-5.33-1.102-10.98-3.073-17.386-3.934
	c-1.772-0.206-3.588-0.32-5.437-0.296c-1.853,0.083-3.685,0.118-5.873,0.734c-2.094,0.509-4.68,2.015-6.077,3.956
	c-1.427,1.891-2.121,3.749-2.674,5.387c-4.648,13.27-2.403,28.361,5.557,38.802c-4.391-12.254-3.741-25.365,1.277-36.043
	c0.614-1.356,1.293-2.47,1.926-3.075c0.633-0.588,0.99-0.763,2.031-0.995c0.946-0.219,2.37-0.188,3.735-0.146
	c1.375,0.081,2.773,0.263,4.192,0.528c5.521,0.971,11.313,3.135,17.89,4.574c-0.64,9.141-0.722,17.765,0.146,24.73
	c-2.738,7.35-4.219,15.122-4.834,22.691c-0.567,6.62-0.131,13.28-1.158,18.448c-0.902,5.297-3.899,8.625-8.995,9.791
	c-2.499,0.53-5.245,0.378-7.878-0.283c-2.617-0.643-5.112-2.023-7.406-3.883c-4.663-3.645-8.138-9.066-11.19-14.724
	c1.105,6.343,3.458,12.697,7.956,18.039c2.249,2.605,5.151,4.912,8.564,6.394c3.379,1.484,7.144,2.058,10.977,1.755
	c3.805-0.357,7.853-1.799,10.896-4.763c3.087-2.862,4.871-6.722,5.795-10.302c0.944-3.617,1.093-7.095,1.277-10.344
	c0.144-3.246,0.298-6.243,0.603-9.334c0.106-1.22,0.237-2.435,0.373-3.65c5.345,17.755,12.79,38.982,17.321,51.596
	c-0.9,1.757-2.133,3.454-3.605,4.998c-5.844,6.704-15.648,9.572-25.324,14.697c-1.206,0.657-2.413,1.344-3.602,2.102
	c-1.194,0.77-2.319,1.465-3.676,2.581c-1.272,1.102-2.662,2.432-3.617,4.687c-0.461,1.115-0.725,2.502-0.598,3.853
	c0.108,1.387,0.604,2.585,1.084,3.457c1.03,1.764,1.793,2.581,2.702,3.746c0.885,1.09,1.803,2.124,2.756,3.113
	c1.904,1.974,3.874,3.788,5.824,5.546c3.904,3.495,7.742,6.814,10.992,10.422c3.267,3.618,5.987,7.713,7.346,12.216
	c0.667,2.215,1.066,4.647,0.855,6.894c-0.213,2.294-0.989,4.59-2.154,6.701c-2.365,4.119-6.792,7.626-12.123,7.239
	c2.516,0.656,5.338,0.403,7.854-0.675c2.494-1.125,4.679-2.923,6.425-5.087c1.727-2.185,2.972-4.784,3.608-7.602
	c0.626-2.879,0.504-5.709,0.042-8.531c-1.054-5.617-3.815-10.644-7.045-15.045c-3.27-4.466-7.15-8.125-10.682-11.835
	c-1.773-1.842-3.492-3.673-5.059-5.548c-0.768-0.947-1.556-1.866-2.255-2.825c-0.664-0.889-1.534-2.102-1.762-2.605
	c-0.188-0.584-0.007,0.029-0.015-0.163c0.064-0.146,0.538-0.738,1.258-1.267c0.664-0.507,1.762-1.162,2.774-1.744
	c1.022-0.593,2.094-1.143,3.188-1.679c4.372-2.141,9.166-4.047,14.069-6.396c4.854-2.29,10.037-5.435,14.074-9.796
	c0.2-0.215,0.39-0.451,0.586-0.674c0.049,0.131,0.081,0.219,0.081,0.219l22.773-21.986c0,0-8.188,11.1-14.037,25.75
	c-0.99,1.259-1.968,2.531-2.86,3.891c-1.125,1.625-2.255,3.228-3.262,5.032c-2.024,3.543-3.85,7.668-4.279,12.396
	c-0.407,4.749,0.782,9.333,2.553,13.192c1.771,3.897,4.082,7.277,6.442,10.386c0.136,0.178,0.285,0.346,0.423,0.523
	c1.818,3.146,4.195,6.126,7.288,8.852c5.259,4.634,8.402,7.604,10.175,9.257c1.816,1.813,3.421,3.668,4.579,5.557
	c1.576,2.59,1.957,4.879,1.208,7.087c-0.705,2.122-2.897,4.108-5.722,5.616c-2.793,1.5-6.235,2.646-9.587,3.491
	c-3.387,0.837-6.867,1.348-10.371,1.494c-1.752,0.076-3.509,0.065-5.263-0.033c-1.714-0.081-3.595-0.325-5.772-0.326
	c-2.134-0.002-4.709,0.364-6.912,1.729c-2.177,1.314-3.741,3.275-4.714,5.356c-2.023,4.151-1.698,9.145,0.071,12.923
	c1.732,3.859,4.4,6.913,7.242,9.541c2.858,2.647,6.054,4.888,9.458,6.675c3.411,1.777,7.021,3.111,10.712,3.997
	c3.708,0.826,7.492,1.179,11.228,1.063c-7.452-0.715-14.555-3.322-20.613-7.311c-2.999-2.04-5.797-4.346-8.194-7.002
	c-2.412-2.636-4.469-5.572-5.527-8.666c-1.112-3.089-0.988-6.226,0.458-8.771c0.694-1.249,1.674-2.23,2.753-2.764
	c1.042-0.54,2.318-0.689,3.891-0.586c1.559,0.089,3.37,0.468,5.378,0.664c1.966,0.208,3.943,0.318,5.923,0.33
	c3.96,0.03,7.928-0.351,11.832-1.113c3.915-0.802,7.688-1.8,11.587-3.623c3.752-1.815,7.88-4.76,9.881-9.722
	c0.917-2.402,1.259-5.072,0.89-7.609c-0.352-2.526-1.265-4.806-2.372-6.748c-2.242-3.893-5.067-6.881-7.836-9.613
	c-2.846-2.78-5.416-5.026-7.85-7.665c-0.049-0.053-0.095-0.109-0.144-0.162c-0.492-7.117,1.279-15.599,8.896-24.004
	c25.983-28.667-9.529,12.724,31.441,32.598c3.259,1.581,6.02,2.869,8.433,3.939c0.744,0.547,1.201,0.758,1.735,1.074l1.825,0.942
	l6.748,3.229c1.926,0.933,3.969,1.991,5.287,2.911c-0.066,0.098-0.151,0.214-0.274,0.367c-0.507,0.61-1.449,1.45-2.433,2.429
	c-0.964,0.973-1.684,1.707-2.592,2.563c-3.486,3.288-7.368,6.615-10.909,10.607c-3.527,4.007-6.702,8.738-7.991,14.335
	c-1.414,5.578-0.203,11.813,2.796,16.362c2.958,4.618,7.199,8.091,11.752,10.448c4.553,2.416,9.372,3.899,14.173,5.285
	c-4.442-2.293-8.892-4.606-12.801-7.479c-3.895-2.866-7.21-6.368-9.117-10.488c-1.987-4.08-2.339-8.456-0.891-12.483
	c1.419-4.04,4.086-7.763,7.394-10.941c3.322-3.244,7.268-6.13,11.146-9.543l2.841-2.564c0.812-0.745,1.799-1.492,2.982-2.714
	c1.151-1.143,2.617-3.305,2.846-5.697c0.089-0.586,0.077-1.124,0.071-1.666l-0.06-0.77l-0.018-0.192l-0.106-0.516
	c-0.083-0.34-0.226-0.781-0.339-1.009c-1.024-1.975-1.819-2.387-2.505-3.034c-2.684-2.06-4.904-3.09-7.236-4.315l-0.392-0.192
	c-0.89-7.163-3.475-19.384,3.683-33.487c1.004-1.979,2.124-3.738,3.333-5.307c0.178,2.076,0.53,4.172,1.227,6.282
	c1.86,5.124,5.337,8.948,8.469,12.02c3.173,3.097,6.272,5.817,8.387,8.586c2.151,2.773,3.104,5.477,2.629,8.625
	c-0.498,3.199-2.181,6.562-4.43,9.95c-2.185,3.411-4.882,6.745-7.218,10.531c-2.338,3.735-4.522,7.984-5.216,12.73
	c-0.619,4.754,0.53,9.62,2.903,13.394c2.283,3.86,5.373,6.927,8.559,9.762c-2.451-3.49-4.776-7.094-6.207-10.901
	c-1.485-3.802-1.771-7.746-0.714-11.35c1.037-3.615,3.164-6.917,5.73-10.07c2.546-3.169,5.391-6.294,8.148-9.793
	c2.726-3.435,5.536-7.568,6.6-12.78c0.58-2.586,0.479-5.499-0.165-8.169c-0.642-2.717-1.952-5.098-3.354-7.161
	c-2.87-4.143-6.31-6.972-9.105-9.896c-2.858-2.878-5.086-5.672-6.077-8.625c-1.097-2.998-1.225-6.575-0.594-10.163
	c0.049-0.293,0.135-0.584,0.194-0.877c18.426-8.49,44.028,6.934,45.983,24.282c-1.628,6.685-5.087,13.195-9.431,19.031
	c-4.032,5.792-8.918,11.253-13.585,17.175c-2.317,3.001-4.641,6.174-6.614,9.719c-1.986,3.519-3.55,7.537-4.023,11.845
	c-0.492,4.332,0.18,8.595,1.448,12.353c1.289,3.802,2.892,7.177,4.658,10.584c1.86,3.364,4,6.69,6.898,9.378
	c1.448,1.328,3.077,2.499,4.881,3.276c1.813,0.756,3.769,1.077,5.629,0.928c-3.737-0.666-6.56-3.116-8.561-5.944
	c-2.012-2.872-3.484-6.121-4.613-9.513c-2.348-6.843-4.394-13.924-3.058-19.918c1.396-6.067,5.517-11.638,10.274-17.027
	c4.726-5.519,9.769-11.084,14.369-17.338c3.509-4.979,6.689-10.503,8.78-16.536c3.744-1.666,8.358-6.804,12.23-13.536
	c0.714,2.13,1.343,4.268,1.818,6.421c1.943,7.844,1.708,15.75-1.345,22.864c-2.951,7.309-8.675,13.902-13.393,21.745
	c-2.344,3.931-4.53,8.105-5.825,12.711c-1.282,4.592-1.755,9.564-0.564,14.385c1.326,4.829,4.315,8.901,8.229,11.541
	c1.962,1.303,4.171,2.252,6.474,2.594c2.305,0.322,4.651-0.013,6.654-0.941c-4.389,0.968-8.615-0.898-11.508-3.704
	c-2.922-2.828-4.899-6.609-5.304-10.378c-0.867-7.836,3.185-15.439,7.998-22.148c4.949-6.737,11.154-13.364,15.413-22.154
	c2.128-4.398,3.272-9.377,3.62-14.25c0.333-4.904-0.19-9.758-1.212-14.378c-0.002-0.01-0.006-0.019-0.008-0.029
	c2.336,1.051,4.925,1.621,7.485,1.455c4.971-0.234,9.054-2.502,12.29-4.908c3.303-2.467,5.888-5.366,8.257-7.784
	c2.394-2.455,4.702-4.584,7.1-5.906c4.548-2.664,10.896-1.922,15.73,1.315c4.841,3.125,7.783,8.807,8.415,15.017
	c0.684,6.25-1.007,12.646-4.287,18.352c-3.255,5.705-8.111,10.788-13.437,14.887c-2.62,1.96-5.525,3.423-8.415,3.175
	c-2.873-0.2-5.588-2.261-7.349-4.986c-1.812-2.733-2.509-6.139-2.492-9.615c-0.041-3.48,0.575-7.01,1.191-10.51
	c-1.074,3.389-2.164,6.801-2.612,10.428c-0.442,3.582-0.129,7.513,1.638,10.982c1.668,3.409,4.841,6.56,9.126,7.322
	c4.285,0.75,8.313-1.006,11.497-2.955c6.252-4.085,11.789-9.109,16.101-15.459c4.291-6.286,6.82-14.194,6.388-22.17
	c-0.189-3.987-1.147-8.012-2.941-11.752c-1.8-3.707-4.672-7.127-8.105-9.529c-3.434-2.427-7.432-4.11-11.734-4.629
	c-4.252-0.596-8.958,0.166-12.886,2.204c-7.787,4.14-11.836,10.845-16.705,14.183c-2.422,1.786-4.965,2.943-7.163,2.979
	c-2.198,0.067-4.126-0.814-5.834-2.619c-1.698-1.773-2.903-4.369-3.379-6.997c-0.24-1.356-0.253-2.574-0.098-3.978
	c0.162-1.416,0.485-2.838,0.952-4.258c1.899-5.747,6.028-11.096,10.346-16.744c4.259-5.688,8.999-12.067,10.938-20.14
	c1.915-8.097,0.218-16.466-3.354-23.339c-3.575-6.896-9.01-12.761-15.319-16.871c-0.834-0.55-1.705-1.014-2.56-1.516
	c15.169-14.827,27.454-27.498,9.693-57.733c-20.429-34.777-0.851-41.859-7.473-72.529s-18.025-45.867-14.224-69.945
	c3.801-24.077,17.738-35.491,1.267-57.026c-16.472-21.535,7.131-42.887-19.242-64.521c-18.372-15.071-14.798-24.98-14.981-37.598
	c4.608,4.805,9.567,9.112,14.824,13.071c11.133,8.387,23.764,14.988,37.397,18.798c6.834,1.754,13.856,3.126,20.984,3.2
	c3.576,0.291,7.032-0.104,10.549-0.155c3.492-0.344,7.009-0.607,10.473-1.252c13.896-2.32,27.42-7.7,38.963-15.815
	c5.799-4.004,11.139-8.603,16.063-13.479c2.45-2.436,4.827-4.948,7.104-7.39c1.407-1.494,2.826-3.042,4.232-4.604
	c-2.33,5.839-3.722,11.962-3.463,18.654c1.267,32.811-0.201,48.232-12.771,71.564c-12.57,23.332-13.481,30.714-0.355,51.097
	c13.126,20.383-28.827,37.118-11.018,60.427c17.809,23.309,13.807,11.905,11.373,48.65c-2.434,36.745,7.819,41.807,0,59.341
	c-4.968,11.14-2.107,21.224,2.001,25.764c9.867,10.902,19.309,5.711,17.19,21.6c-0.997-0.543-2.042-1.057-3.215-1.54
	c-2.727-1.087-6.06-1.665-9.422-0.959c-3.361,0.699-6.332,2.691-8.334,5.008c-1.053,1.155-1.834,2.388-2.582,3.648
	c-0.83,1.501-1.452,3.189-1.637,5.151c-0.202,1.921,0.255,4.271,1.319,6.065c1.041,1.797,2.438,3.103,3.935,4.069
	c2.899,1.783,5.727,2.471,8.491,2.823c5.209,0.566,10.085-0.046,14.849-1.514c4.245,11.286,11.062,21.989,15.19,27.938
	c-0.205,0.649-0.395,1.302-0.643,1.938c-3.027,8.075-9.828,14.838-18.364,18.451c8.976-1.568,17.418-7.496,22.22-15.94
	c0.192,0.253,0.297,0.387,0.297,0.387l0.981-2.946c0.908-1.995,1.616-4.092,2.09-6.273l7.535-22.628l8.574,34.284
	c-1.271,1.692-2.929,3.235-4.943,4.563c-3.253,2.17-6.867,3.651-11.075,5.17c-2.171,0.853-5.222,2.03-7.507,5.005
	c-2.266,2.967-2.629,6.987-1.825,9.871c0.738,2.993,2.171,5.434,3.957,7.509c0.87,1.026,1.945,2.012,2.948,2.788
	c0.985,0.778,1.976,1.458,2.951,2.106c3.898,2.541,7.585,4.593,9.964,7.298c2.357,2.54,3.213,6.408,2.272,10.031
	c-1.608,7.506-11.558,11.962-20.051,9.448c3.915,2.199,8.862,2.759,13.47,1.505c4.622-1.112,9.041-4.605,10.968-9.47
	c1.961-4.771,1.467-10.773-1.735-15.258c-3.097-4.412-7.324-6.885-10.581-9.536c-0.826-0.654-1.62-1.303-2.327-1.968
	c-0.701-0.65-1.221-1.228-1.734-1.944c-1.012-1.358-1.785-2.93-2.007-4.282c-0.27-1.418,0.066-2.215,0.533-2.805
	c0.489-0.6,1.739-1.247,3.708-1.864c4.219-1.274,8.921-3.163,13.133-5.854c0.846-0.535,1.687-1.139,2.514-1.781l1.879,7.513
	c-0.558,0.54-1.137,1.058-1.69,1.603c-1.158,1.155-2.499,2.449-3.748,4.283c-0.619,0.912-1.21,1.98-1.635,3.222
	c-0.429,1.149-0.71,2.896-0.541,4.298c0.269,2.862,1.757,5.863,4.772,7.594c0.718,0.419,1.566,0.723,2.305,0.91l1.133,0.276
	l2.262,0.569c3.011,0.776,6.003,1.623,8.976,2.537c2.972,0.915,5.923,1.899,8.85,2.951c1.537,0.559,3.043,1.116,4.486,1.691
	c-0.817,0.545-1.614,1.073-2.452,1.639c-3.229,2.252-6.53,4.767-9.445,7.977c-2.99,3.279-5.254,7.194-6.584,11.376
	c-2.455,7.587-2.043,16.034,1.338,23.298c-0.644,5.108-0.248,10.341,1.308,15.164c4.198,12.967,14.999,22.822,27.246,26.422
	c-11.452-5.53-20.257-15.903-22.773-27.623c-0.475-2.099-0.636-4.216-0.655-6.328c1.45,1.544,3.053,2.936,4.781,4.11
	c3.571,2.406,7.361,3.971,10.985,5.337c7.254,2.686,14.229,4.779,19.194,9.276c5.022,4.482,8.269,11.169,8.346,18.067
	c0.277,6.918-3.205,13.724-8.676,18.506c-5.415,4.853-12.635,7.893-20.2,8.365c7.565,0.526,15.477-1.652,21.837-6.328
	c6.411-4.485,11.247-12.07,11.667-20.423c0.509-8.288-2.825-16.62-8.683-22.639c-2.928-3.046-6.593-5.334-10.158-7.055
	c-3.59-1.777-7.196-3.133-10.571-4.604c-3.381-1.457-6.56-3.006-9.179-4.978c-2.568-1.944-4.685-4.321-6.155-7.135
	c-0.392-0.736-0.732-1.499-1.033-2.278c2.063-5.125,5.149-9.857,9.217-13.591c2.129-1.972,4.453-3.721,6.943-5.175
	c1.276-0.669,2.511-1.409,3.84-1.958l0.978-0.446c0.346-0.161,1.084-0.506,1.583-0.804c1.088-0.681,2.091-1.542,2.878-2.559
	c0.694-0.93,1.209-1.912,1.606-2.916c0.25,0.566,0.529,1.112,0.849,1.616c1.36,2.169,3.047,3.8,4.713,5.22
	c3.327,2.704,6.728,5.442,10.713,7.368c1.985,0.944,4.097,1.693,6.279,2.003c2.184,0.286,4.407,0.106,6.402-0.589
	c-4.267,0.447-8.131-1.323-11.346-3.661c-3.237-2.388-6.081-5.359-8.814-8.436c-1.332-1.501-2.515-3.001-3.196-4.514
	c-0.679-1.5-0.839-2.962-0.547-4.448c0.537-2.96,2.804-5.962,5.583-8.296c2.245-1.885,5.041-3.441,7.994-5.093
	c1.183,1.147,2.394,2.263,3.517,3.477c3.717,3.942,7.199,8.202,10.164,12.63c2.906,4.357,4.814,8.866,4.196,12.7
	c-0.455,3.941-3.348,8.045-7.098,11.653c-1.88,1.852-3.891,3.506-6.145,5.35c-2.255,1.881-4.578,3.847-6.702,6.292
	c-2.096,2.414-4.214,5.28-5.222,9.087c-1.096,3.749-0.351,8.289,1.675,11.455c1.98,3.204,4.586,5.42,7.251,7.196
	c2.679,1.729,5.419,3.069,8.183,4.231c10.973,4.587,22.185,6.39,30.216,13.456c3.93,3.384,6.783,8.141,5.747,13.357
	c-0.84,5.078-4.916,10.098-10.752,10.67c2.835,0.159,5.861-0.705,8.21-2.597c2.391-1.843,4.103-4.508,5.077-7.441
	c0.952-2.929,0.967-6.348-0.149-9.362c-1.026-2.983-2.798-5.67-4.888-7.93c-4.24-4.528-9.567-7.573-14.889-10.076
	c-5.309-2.483-10.684-4.353-15.511-6.782c-4.749-2.37-9.408-5.41-11.341-8.902c-0.914-1.7-1.05-3.258-0.523-4.973
	c0.501-1.709,1.839-3.596,3.537-5.363c1.698-1.774,3.725-3.503,5.859-5.229c2.169-1.728,4.587-3.656,6.785-5.77
	c2.225-2.124,4.39-4.468,6.229-7.278c1.846-2.765,3.332-6.125,3.844-9.8c0.516-3.71-0.172-7.446-1.354-10.6
	c-0.336-0.901-0.772-1.699-1.171-2.537c0.563-0.813,1.161-1.687,1.804-2.648c0.68,0.442,1.367,0.831,2.037,1.121
	c1.908,0.838,3.766,1.26,5.591,1.435c3.748,0.342,6.749-0.137,9.424-0.164c2.711-0.037,4.678,0.179,6.608,1.205
	c3.86,2.007,6.59,6.935,4.67,11.241c-1.893,4.477-7.459,7.922-13.441,7.719c5.664,2.234,13.195,0.418,17.458-5.414
	c2.109-2.987,2.678-7.175,1.672-10.764c-0.951-3.645-3.297-6.78-6.373-8.983c-1.544-1.101-3.299-1.96-5.169-2.509
	c-1.814-0.51-3.602-0.685-5.251-0.78c-3.274-0.166-6.249-0.009-8.425-0.427c-1.641-0.257-3.096-0.862-3.884-1.427
	c2.467-4.096,5.057-8.762,7.438-13.717c0.434,1.022,0.933,2.031,1.562,3.004c1.568,2.429,3.893,4.523,6.266,5.87
	c2.352,1.372,4.607,2.196,6.592,2.985c2.024,0.787,3.636,1.483,5.212,2.437c1.575,0.94,3.026,2.077,4.379,3.312
	c2.685,2.494,4.79,5.617,5.939,9.017c1.114,3.383,1.318,7.119,0.575,10.764c-0.746,3.661-2.543,7.084-5.013,10.044
	c-2.526,3.016-5.955,5.676-9.24,8.742c-1.627,1.559-3.226,3.235-4.624,5.112c-1.418,1.966-2.488,4.131-3.022,6.438
	c-0.522,2.293-0.658,4.72,0.019,6.98c0.628,2.271,2.205,4.16,4.073,5.269c-3.362-3.083-3.238-7.855-1.61-11.433
	c0.822-1.831,1.963-3.504,3.323-4.884c1.441-1.426,3.069-2.697,4.792-3.913c3.416-2.476,7.224-4.758,10.752-8.029
	c3.556-3.314,6.234-7.682,7.679-12.455c1.449-4.771,1.648-10.061,0.231-15.022c-1.384-4.941-4.087-9.39-7.589-13.005
	c-1.745-1.821-3.736-3.395-5.875-4.727c-2.126-1.349-4.516-2.41-6.535-3.229c-2.045-0.841-3.871-1.589-5.265-2.45
	c-1.391-0.839-2.347-1.78-3.134-3.019c-1.629-2.364-2.226-5.863-1.776-9.342c0.371-3.392,1.979-7.12,3.723-10.918
	c1.731-3.842,3.86-7.876,5.303-12.461c1.5-4.516,2.245-9.248,2.293-13.947c0.074-3.678-0.299-7.333-1.052-10.889
	c2.267-0.814,4.537-1.083,6.338-1.129c4.354,1.199,8.592-0.648,12.078-3.471c0.318,0.283,0.619,0.571,0.927,0.856
	c-0.404,0.679-0.813,1.357-1.29,1.996c-2.299,3.327-5.553,6.06-10.104,6.811c2.178,0.685,4.672,0.617,7.02-0.077
	c2.375-0.668,4.486-2.02,6.419-3.52c0.566-0.464,1.066-0.994,1.59-1.503c1.993,2.287,3.753,4.753,5.231,7.341
	c1.039,1.773,1.897,3.622,2.572,5.516c-0.363,0.207-0.702,0.44-1.069,0.642c-1.763,1.039-3.391,1.929-5.135,2.377
	c-1.676,0.405-3.771,0.347-5.289-1.143c0.615,2.144,3.037,3.483,5.365,3.755c2.382,0.317,4.673-0.248,6.721-0.667
	c0.221-0.055,0.442-0.123,0.663-0.18c0.718,4.019,0.598,8.137-0.552,12.119c-1.087,3.742-3.042,7.245-5.673,10.19
	c-2.635,2.886-6.07,5.511-9.57,6.183c-1.735,0.358-3.435,0.144-4.873-0.802c-1.447-0.938-2.536-2.608-3.077-4.471
	c-1.046-3.809,0.66-8.285,2.3-12.352c-2.431,3.628-5.269,7.592-4.874,12.8c0.229,2.492,1.326,5.017,3.36,6.872
	c2.029,1.889,4.993,2.729,7.658,2.558c2.693-0.152,5.136-1.045,7.354-2.185c2.171-1.165,4.206-2.553,6.063-4.196
	c3.729-3.277,6.493-7.576,8.31-12.22c1.806-4.647,2.504-9.836,1.949-14.85c-0.076-0.77-0.226-1.525-0.353-2.284
	c1.161-0.479,2.313-0.987,3.441-1.554c3.841-1.994,7.624-4.057,11.161-7.804c1.721-1.852,3.239-4.344,4-7.035
	c0.762-2.685,0.867-5.49,0.443-8.084c-0.872-5.211-3.556-9.715-7.056-13.094c-3.45-3.328-7.442-5.617-11.436-7.334
	c-2.036-0.867-4.053-1.586-6.091-2.214c-0.218-2.162-0.624-4.321-1.277-6.438l0.165-0.267c0,0,1.679-6.252,3.935-15.738
	c0.91-1.023,1.838-2.023,2.675-3.14c0.549-0.741,1.07-1.528,1.573-2.334c-0.197,2.012-0.344,4.06-0.377,6.161
	c-0.079,4.596,0.488,9.561,2.371,14.163c0.872,2.34,2.223,4.677,4.042,6.724c1.811,2.035,4.345,3.909,7.466,4.635
	c3.107,0.754,6.396,0.157,8.863-1.15c2.514-1.29,4.48-3.072,6.088-5.061c6.215-8.211,6.237-17.166,10.667-23.524
	c2.02-3.19,5.108-5.877,8.816-6.146c1.87-0.159,3.879,0.248,5.588,1.221c1.749,0.915,3.166,2.584,3.591,4.702
	c0.063-2.143-1.023-4.366-2.779-5.84c-1.739-1.498-3.979-2.404-6.337-2.654c-4.986-0.556-9.49,2.506-12.5,5.941
	c-3.086,3.522-4.977,7.792-6.737,11.601c-1.78,3.803-3.463,7.477-5.837,9.941c-2.344,2.512-5.488,3.705-7.402,2.994
	c-2.039-0.553-4.232-3.261-5.219-6.524c-2.379-6.673-1.435-14.602-0.095-22.901c0.114-0.733,0.203-1.506,0.311-2.251
	c3.09,0.879,6.337,1.288,9.506,1.078c1.924-0.158,3.779-0.505,5.587-0.959c1.025,2.327,2.349,4.489,4.03,6.331
	c-1.089-2.197-1.831-4.491-2.305-6.806c5.956-1.817,11.241-5.072,15.725-8.922c3.039-2.758,6.646-6.425,7.422-12.111
	c0.283-2.712-0.123-5.519-1.709-8.08c-1.568-2.595-4.621-4.452-7.608-4.626c-3.028-0.231-5.5,0.83-7.526,2.032
	c-1.997,1.264-3.715,2.834-5.006,4.667c-2.516,3.486-4.199,7.441-4.901,11.505c-0.406,2.291-0.494,4.614-0.338,6.905
	c-1.33,0.313-2.664,0.537-3.994,0.608c-2.698,0.227-5.344-0.178-7.865-1.061c0.03-0.472,0.094-0.922,0.117-1.398
	c0.232-4.552-0.135-9.386-1.266-13.902c-1.084-4.218-2.73-8.263-4.842-12.03c0.309-2.23,0.595-4.438,0.843-6.604
	c3.817-2.957,7.062-6.802,9.522-11.109c3.245-5.701,5.193-12.18,5.793-18.826c0.682-6.674-0.308-13.482-2.214-19.857
	c-1.969-6.401-5.124-12.337-8.832-17.792c-3.809-5.399-8.317-10.246-13.326-14.435c-0.065-0.053-0.13-0.101-0.196-0.154
	c-0.08-13.651,0.971-26.314,2.354-33.441c0.471-2.423,1.293-4.958,2.278-7.583c2.804,1.791,5.54,3.652,8.206,5.582
	c1.002,1.077,2.025,2.155,2.983,3.235c6.525,7.234,11.767,14.812,13.316,23.902c1.551,9.069,0.069,18.989-4.891,28.037
	c8.118-6.551,12.701-17.652,12.254-28.764c-0.066-3.62-0.823-7.262-1.999-10.741c3.273,2.738,6.432,5.599,9.358,8.671
	c7.34,7.728,13.433,16.551,17.762,26.199c4.117,9.717,6.294,20.239,7.661,30.982c2.08,21.641,1.042,43.796-1.546,65.715
	c-1.218,10.979-2.957,21.915-4.84,32.818c-0.509,11.157-1.361,22.31-2.131,33.592c4.469-10.404,8.093-21.119,11.467-31.932
	c1.914-11.078,3.68-22.188,4.925-33.386c2.627-22.356,3.745-45.042,1.552-67.846c-1.438-11.373-3.776-22.863-8.4-33.746
	c-4.807-10.742-11.565-20.499-19.576-28.93c-8.007-8.463-17.275-15.538-27.078-21.578c-0.802-0.358-1.611-0.696-2.418-1.041
	c-3.991-4.268-8.091-8.14-11.973-12.002c5.377-12.831,10.501-27.699,2.801-44.833c-1.931-4.295-3.347-7.761-4.409-10.72
	c0.077,0.081,0.137,0.161,0.219,0.243c0.583,0.547,1.211,1.05,1.827,1.398c1.246,0.763,2.472,1.21,3.644,1.532
	c2.357,0.654,4.555,0.855,6.707,0.932c1.097,0.024,2.129-0.006,3.188-0.013c-0.133,0.898-0.221,1.808-0.225,2.739
	c-0.039,3.208,0.978,6.788,3.337,9.369c2.299,2.609,5.459,3.96,8.324,4.57c2.908,0.615,5.706,0.679,8.404,0.592
	c0.554-0.025,1.105-0.075,1.658-0.104c-2.227,0.778-4.416,1.724-6.479,2.888c-4.871,2.87-9.331,6.52-12.439,11.832
	c-1.474,2.631-2.465,5.726-2.401,8.772c0.062,3.01,1.006,6.065,3.049,8.012c-0.167-5.549,2.347-9.396,5.365-12.418
	c3.076-3.009,7.122-5.639,11.123-7.964c2.019-1.165,4.087-2.201,6.239-3.183c2.195-1.024,4.919-2.085,7.493-4.088
	c1.801-1.34,3.259-3.269,4.171-5.326c4.546-0.605,9.067-1.35,13.539-2.335c-4.276,0.075-8.54,0.085-12.793,0.038
	c0.039-0.192,0.125-0.383,0.153-0.575c0.489-3.08-0.12-6.249-1.914-8.42c-0.343,4.079-2.178,7.09-4.487,8.862
	c-4.074-0.123-8.138-0.305-12.18-0.62c-4.962-0.319-10.022-1.433-12.058-4.473c-1.573-2.13-1.648-5.316-0.641-8.316
	c0.629-0.022,1.249-0.04,1.886-0.061c8.131-0.455,16.242-1.084,24.286-2.394l-23.481-2.284c2.236-2.873,5.333-5.564,8.493-8.689
	c4.003-3.895,7.5-8.605,10.041-13.702c1.309-2.545,2.326-5.236,3.139-7.986c0.8-2.714,1.435-5.612,1.637-8.663
	c0.135-2.088,0.081-4.243-0.266-6.435c1.017-2.331,1.705-4.868,1.905-7.631c0.241-5.299-2.022-10.612-5.456-14.134
	c-3.408-3.603-7.669-5.894-12.125-7.124c-0.602-0.164-1.184-0.247-1.776-0.368c3.003-2.94,5.802-6.249,7.883-10.419
	c0.806-1.569,1.431-3.327,1.887-5.17c0.431-1.831,0.594-4.002,0.491-5.746c-0.127-3.668-1.154-7.417-2.769-10.656
	c-0.804-1.612-1.703-3.126-2.528-4.375c-1.096-1.631-2.291-3.148-3.664-4.368c-2.684-2.523-5.718-4.282-8.786-5.655
	c-3.6-1.531-7.331-2.508-11.098-2.983c-0.737-0.957-1.509-1.888-2.36-2.755c-2.582-2.726-5.836-4.786-8.825-6.274
	c-1.499-0.76-2.982-1.423-4.437-2.064c2.889-4.97,7.202-9.901,11.352-16.399c3.833-6.003,6.823-10.458,8.733-14.22
	c4.244,1.73,8.71,3.143,13.389,3.827c2.732,0.37,4.762,0.559,5.929,1.098c1.18,0.507,2.624,1.848,3.628,3.511
	c4.07,6.518,2.729,17.716-5.382,23.789c10.157-2.474,16.878-15.78,11.95-27.137c-0.183-0.427-0.411-0.846-0.626-1.269
	c1.857,0.688,3.763,1.083,5.655,1.253c9.776,1.057,20.665-5.01,21.438-15.518l-1.637,0.47c0.191,1.518-1.31,3.376-2.712,4.816
	c-0.735,0.749-1.531,1.454-2.341,2.146c-0.799,0.647-1.589,1.152-2.469,1.607c-3.533,1.741-7.77,1.999-11.569,1.278
	c-3.757-0.712-7.362-2.836-8.543-5.534c-1.485-2.966-1.722-7.128-1.37-11.099C941.214,474.929,941.468,473.348,941.776,471.784z
	 M950.574,456.037c2.847-2.4,6.498-4.473,9.81-5.48c1.548-0.47,2.954-0.431,3.575-0.144c0.839,0.293,1.244,1.072,1.126,0.95
	c0.019,0.009,0.039,0.12-0.126,0.499c-0.182,0.376-0.569,0.934-1.132,1.516c-1.116,1.171-2.864,2.531-4.399,3.653
	c-3.237,2.267-6.828,4.008-10.515,5.127c-1.402,0.44-2.813,0.715-4.222,0.904C946.151,460.407,948.168,458.016,950.574,456.037z
	 M933.763,265.693c-0.034,0.049-0.176-0.046-0.238-0.071C933.682,265.628,933.78,265.65,933.763,265.693z M919.419,275.98
	c3.381-4.274,7.545-8.475,11.977-9.996c0.704-0.247,1.624-0.368,2.08-0.36c0.028,0.11,0.118,0.504,0.171,1.066
	c0.275,2.471,0.093,4.991-0.509,7.408c-1.163,4.806-4.215,9.257-7.92,11.813c-1.843,1.25-3.975,1.964-5.511,1.788
	c-1.52-0.136-2.614-0.902-3.701-2.573c-0.411-0.646-0.748-1.404-1.052-2.209C916.172,280.48,917.7,278.177,919.419,275.98z
	 M249.933,506.118c4.765-0.917,9.97-0.355,12.684,2.423c1.151,1.142,1.766,2.983,1.656,4.751c-0.114,1.814-0.99,3.011-1.874,3.243
	c-0.884,0.441-3.233,0.139-5.347-0.515c-2.103-0.638-4.13-1.603-5.971-2.892c-2.212-1.565-4.108-3.582-5.676-5.82
	C246.894,506.814,248.401,506.39,249.933,506.118z M304.05,719.559c-0.78,0.35-1.574,0.666-2.365,0.99
	c-2.091-4.308-3.825-8.741-5.025-13.294c-1.289-5.16-2.01-10.485-1.613-15.573c0.492-5.005,2.005-10.299,4.213-14.591
	c2.237-4.006,6.212-7.754,10.067-8.857c0.481-0.129,0.956-0.229,1.424-0.291c0.44-0.037,0.914-0.082,1.609-0.09
	c1.26-0.038,2.48-0.012,3.627,0.113c2.325,0.221,4.265,0.845,6.143,1.946c3.445,2.12,7.415,6.591,12.478,10.256
	C320.632,689.661,309.905,703.717,304.05,719.559z M480.04,1076.827c0,0.011,0.002,0.016,0.002,0.028l-0.015-0.097L480.04,1076.827z
	 M715.335,124.02c0.533-2.159,1.132-4.292,1.826-6.392c0.613-1.983,1.395-3.571,2.498-5.269c2.135-3.305,5.062-6.269,8.22-8.524
	c1.635-1.139,3.131-1.989,4.812-2.544c1.671-0.558,3.513-0.955,5.291-1.034c3.685-0.125,5.52,0.571,7.641,3.371
	c2.036,2.745,3.725,7.084,5.052,10.946c0.218,0.704,0.404,1.415,0.593,2.125c-5.261,3.766-10.087,8.051-14.272,12.841
	c-10.037-1.41-19.135-2.425-22.301-2.767C714.912,125.859,715.086,124.926,715.335,124.02z M697.991,137.428
	c3.462,4.48,5.955,9.074,8.888,13.071c2.904,4.039,6.044,7.776,9.615,10.54c3.615,2.82,7.33,4.451,11.913,4.822
	c2.349,0.263,4.989,0.264,7.846,0.572c2.82,0.254,6.025,0.894,8.868,2.295c2.804,1.359,5.166,3.075,7.236,4.872
	c2.039,1.802,4.024,3.565,5.971,5.561c1.872,2.038,3.703,4.215,5.001,6.746c1.315,2.504,2.03,5.37,1.71,8.053
	c-1.521-5.234-5.523-8.477-9.719-11.246c-2.089-1.4-4.353-2.768-6.581-4.061c-2.208-1.268-4.309-2.443-6.401-3.069
	c-3.983-1.269-8.685-0.605-14.526-0.75c-2.889-0.074-6.182-0.624-9.112-1.741c-2.949-1.126-5.642-2.73-8.028-4.573
	c-4.752-3.753-8.311-8.345-11.262-13.047c-2.982-4.746-5.164-9.652-7.551-13.953c-2.469-4.241-5.25-8.203-9.299-10.428
	c-4.009-2.295-9.335-3.31-14.03-0.534c1.606-2.17,4.246-3.688,7.089-4.236c2.851-0.596,5.849-0.322,8.699,0.485
	C690.171,128.579,694.656,132.998,697.991,137.428z M730.356,369.687c-2.918-1.607-5.749-3.779-7.994-6.622
	c-2.184-2.857-3.821-6.259-4.553-9.711c-1.513-6.964-0.493-13.381,0.082-19.182c0.821-5.838,0.84-10.973-0.03-16.426
	c-0.746-5.409-2.636-10.645-5.021-15.673c-4.969-9.983-12.74-18.809-23.063-25.063c11.877,2.575,22.604,10.76,29.462,21.404
	c3.542,5.294,5.976,11.339,7.415,17.645c1.404,6.256,1.344,13.175,0.658,19.143c-0.677,5.983-1.488,11.579-0.698,16.391
	c0.319,2.432,1.193,4.559,2.454,6.566c1.357,1.917,3.1,3.672,5.209,5.252c4.33,3.048,9.804,5.353,15.252,7.911
	c2.712,1.343,5.456,2.738,8.043,4.397c2.569,1.71,4.975,3.684,6.917,6.001C754.058,375.461,742.162,375.941,730.356,369.687z
	 M733.906,446.685c-6.486-2.925-12.154-7.092-14.03-12.545c-1.23-3.226-1.584-7.409-1.741-11.575
	c-0.136-4.157,0.076-8.356,0.667-12.551c0.661-5.029,1.915-10.007,3.569-14.981c11.048,9.148,12.646,16.004,14.889,35.141
	C737.986,436.373,736.424,441.576,733.906,446.685z M648.083,76.176c0.793-2.116,1.832-3.988,3.238-5.712
	c2.739-3.413,6.626-6.012,10.499-6.656c1.946-0.371,3.784-0.224,5.667,0.322c1.935,0.572,4.013,1.744,6.28,3.062
	c4.491,2.61,8.632,5.383,11.931,8.813c3.482,3.6,5.667,8.335,7.075,13.582c-5.776-6.572-13.751-11.128-21.934-9.025
	c-6.659,1.711-10.843,6.915-14.596,12.881c-1.218-2.556-2.755-4.984-4.646-7.123c-1.436-1.646-3.099-3.122-4.89-4.442
	C647.003,79.901,647.436,77.979,648.083,76.176z M625.703,84.904c4.785-0.12,9.527,0.711,13.855,2.586
	c0.675,4.269,2.054,8.309,3.751,12.077c1.255,2.534,2.473,4.992,4.164,7.345c0.037,0.052,0.086,0.101,0.123,0.153
	c-2.065,2.702-4.374,5.12-7.191,6.905c-6.194-12.709-19.339-19.271-33.643-22.041c-0.114-0.312-0.226-0.624-0.346-0.934
	C612.285,87.161,618.918,85.082,625.703,84.904z M586.926,85.497c1.677,0.021,3.58,0.163,4.825,0.452
	c1.327,0.303,1.768,0.529,2.775,1.475c0.68,0.635,1.414,1.664,2.161,2.752c-0.102,0.132-0.198,0.267-0.299,0.4
	c-3.277-0.245-6.544-0.346-9.732-0.289c-6.29,0.113-12.681,0.537-19.059,0.834c-0.091-0.171-0.182-0.342-0.274-0.512
	C573.357,87.142,580.185,85.402,586.926,85.497z M571.834,167.585c-10.051-5.889-22.373-5.821-30.659-0.513
	c-2.004,1.368-3.597,2.985-4.73,4.886c-1.151,1.946-2.037,4.307-2.873,6.982c-1.685,5.18-3.61,12.338-10.181,17.069
	c-1.652,1.135-3.632,2.031-5.73,2.427c-2.095,0.392-4.128,0.32-5.872,0.039c-3.54-0.587-6.13-1.622-8.523-1.974
	c-4.948-1.032-10.197-0.688-15.338,0.422c-10.257,2.482-19.938,8.821-26.255,18.704c1.296-5.731,4.421-11.152,8.605-15.625
	c4.284-4.361,9.528-8.005,15.476-10.121c5.893-2.2,12.436-3.153,18.907-2.242c3.359,0.347,6.238,1.375,8.431,1.578
	c2.257,0.264,3.44,0.004,4.919-1.011c1.458-0.977,2.888-2.762,3.997-4.875c1.144-2.035,2.007-4.622,3.09-7.402
	c1.087-2.758,2.33-5.832,4.437-8.676c2.081-2.917,4.993-5.16,8.011-6.628C549.724,154.746,564.266,158.545,571.834,167.585z
	 M518.07,353.687c-0.041-0.563-0.069-1.083-0.106-1.635c0.796,1.018,1.565,2.038,2.256,3.077c4.359,5.951,6.304,13.093,7.158,20.871
	c1.013,7.72,0.87,15.585-0.225,23.304c-0.992,7.745-3.252,15.312-6.283,22.518c-1.537,3.554-3.433,6.814-5.84,9.526
	c-2.395,2.645-5.52,4.802-9.071,6.096c-4.755,1.889-10.189,2.327-15.462,1.22C511.435,412.478,522.344,413.438,518.07,353.687z
	 M508.015,276.591c-3.198,3.742-5.926,7.801-8.339,12.239c-4.858,8.826-8.559,18.18-8.817,27.835
	c-0.11,9.42,3.414,19.682,12.181,26.091c-5.315-1.273-10.038-4.991-13.432-9.582c-3.343-4.657-5.518-10.258-6.138-16.118
	c-1.355-11.74,2.585-23.164,7.91-32.813c2.689-4.876,6.031-9.626,10.02-13.716c3.997-4.066,8.523-7.578,13.452-10.3
	c9.745-5.58,21.116-8.206,31.871-7.021c-10.426,2.759-19.832,7.129-27.857,13.202C514.898,269.485,511.226,272.853,508.015,276.591z
	 M543.036,75.96c1.063,2.065,2.096,4.138,3.054,6.238c1.388,2.933,2.578,5.948,3.579,9.035c-8.426-0.456-16.637-1.883-24.352-5.395
	c-0.682,2.948-1.451,5.989-2.361,8.993c-1.633-0.565-3.189-1.145-4.552-1.818c-2.129-1.082-4.011-2.688-4.972-4.345
	c-0.969-1.681-1.116-3.047-0.536-4.722c0.584-1.706,1.902-3.352,3.737-4.56c3.603-2.529,9.794-4.069,14.903-4.727
	C535.437,74.112,539.261,74.659,543.036,75.96z M489.604,83.642c1.314-2.798,3.242-5.631,5.446-8.465
	c2.243-2.896,4.486-5.716,6.836-8.122c2.307-2.457,4.778-4.509,7.469-5.862c2.677-1.36,5.735-2.02,8.921-2.244
	c3.191-0.225,6.526,0.126,9.784,0.929c3.364,0.863,6.309,1.847,7.895,3.616c0.63,0.67,1.242,1.597,1.85,2.645
	c-2.303-0.385-4.648-0.546-6.966-0.407c-3.434,0.155-6.689,0.872-9.823,1.689c-3.16,0.856-6.536,2.015-9.729,4.138
	c-3.179,2.161-5.988,5.399-7.295,9.481c-1.418,4.084-0.546,9.329,1.979,12.623c2.451,3.385,5.654,5.487,9.012,6.92
	c1.801,0.755,3.578,1.264,5.307,1.672c-1.475,3.458-3.253,6.696-5.477,9.465c-1.218-0.759-2.458-1.469-3.699-2.108
	c-4.337-2.058-8.683-3.825-12.441-5.962c-1.113-1.621-2.271-3.24-3.539-4.832c-1.762-2.199-4.017-4.464-6.623-6.362
	c-0.066-0.231-0.166-0.461-0.215-0.691C487.765,89.169,488.258,86.439,489.604,83.642z M441.25,124.004
	c0.589-0.687,1.213-1.347,1.87-1.975c0.263-0.232,0.933-0.999,1.36-1.497c0.411-0.609,0.884-1.222,1.188-1.882
	c1.379-2.672,1.6-5.325,1.804-7.432c0.18-2.136,0.327-3.901,0.759-5.119c0.206-0.61,0.473-1.07,0.777-1.488
	c0.373-0.472,0.848-0.988,1.424-1.449c4.673-3.816,13.188-6.046,20.084-6.459c3.524-0.188,6.872,0.265,9.821,1.583
	c1.009,0.427,1.931,0.993,2.829,1.619c1.327,1.891,2.916,3.532,4.619,4.911c0.533,0.43,1.083,0.794,1.629,1.176
	c3.693,4.328,6.942,9.409,10.696,14.444c-14.645,2.468-32.396-6.235-43.023,4.107c-3.766,3.665-5.479,8.951-8.537,13.202
	c-3.956-1.834-8.008-3.496-12.182-4.93C437.325,129.609,438.992,126.598,441.25,124.004z M437.662,169.582
	c4.908-0.405,9.627-0.153,13.97-0.085c4.265,0,8.59-0.28,12.628-1.511c4.056-1.131,7.859-3.351,10.341-7.401
	c-0.398,4.809-4.147,9.1-8.404,11.634c-4.34,2.54-9.161,3.999-14.011,4.712c-4.8,0.682-9.269,0.896-13.47,1.582
	c-4.175,0.652-7.97,1.714-10.811,3.676c-2.835,1.944-4.911,4.818-6.431,8.524c-1.539,3.684-2.526,7.986-3.619,12.426
	c-1.084,4.443-2.314,9.108-4.402,13.568c-2.117,4.385-5.547,8.594-10.054,10.195c3.302-3.408,4.9-7.471,5.678-11.71
	c0.88-4.226,1.027-8.675,1.447-13.26c0.408-4.587,0.92-9.388,2.533-14.325c0.342-1.238,0.884-2.46,1.48-3.679
	c0.505-1.236,1.289-2.405,2.055-3.575c1.584-2.288,3.654-4.405,5.998-6.012C427.383,171.121,432.789,169.998,437.662,169.582z
	 M372.468,155.797c1.552-10.466,12.642-15.357,23.72-17.621c5.553-1.228,11.346-1.535,17.163-1.359
	c5.517,0.066,11.028,0.842,16.586,1.782c0.13,2.252,0.414,4.432,0.702,6.557c0.076,0.497,0.181,0.988,0.261,1.483
	c-15.3,1.808-33.964-2.599-41.184,10.305c-3.232,5.777-2.344,12.644-2.225,19.397c-2.347-0.314-4.712-0.541-7.094-0.67v-0.13h-4.261
	c-0.538-1.142-1.059-2.287-1.503-3.449C372.42,166.679,371.576,160.962,372.468,155.797z M375.447,182.812
	c0.021,0.057,0.055,0.107,0.077,0.162c-0.759,0.061-1.485,0.119-2.172,0.175c0.276-0.056,0.552-0.11,0.83-0.164v0.097
	L375.447,182.812z M354.57,222.513c-4.144-3.662-8.412-7.378-11.409-11.478c-0.727-1.009-1.369-2.028-1.786-2.925
	c-0.451-0.989-0.438-1.277-0.443-2.43c0.018-1.936,0.677-3.927,1.762-5.8c1.102-1.862,2.616-3.567,4.363-4.95
	c2.013-1.535,4.219-3.054,6.504-4.397c2.288-1.339,4.622-2.636,6.98-3.648c1.178-0.51,2.328-0.986,3.473-1.346
	c1.264-0.383,2.535-0.758,3.829-1.102c1.054-0.293,2.125-0.546,3.199-0.793c5.236,0.793,13.943,8.934,9.011,16.217
	c-1.811,2.761-3.781,5.439-5.741,8.055c-4.747,6.335-9.495,12.669-14.242,19.004C358.206,225.488,356.349,224.04,354.57,222.513z
	 M313.825,323.13c-0.354,1.646-0.572,3.352-0.606,5.14c-0.01,0.02-0.02,0.04-0.029,0.06
	C313.178,326.539,313.387,324.799,313.825,323.13z M291.178,366.472c-1.84-2.128-3.549-3.88-4.673-5.558
	c-1.121-1.696-1.58-3.042-1.57-4.882c0.024-1.826,0.617-3.967,1.478-6.192c0.86-2.307,1.821-4.56,2.959-6.71
	c2.316-4.345,4.986-8.599,8.336-11.719c2.055-1.961,4.357-3.848,6.753-5.522c-0.161,1.606-0.237,3.211-0.166,4.78
	c0.472,8.344,3.572,15.602,6.576,22.343c3.04,6.651,6.091,13.004,7.818,19.421c1.835,6.397,2.139,12.732,0.012,18.54
	c-1.029,2.842-2.559,5.449-4.578,7.363c-1.99,1.964-4.438,3.166-7.204,3.78c-1.095,0.221-2.235,0.304-3.394,0.319
	c0.135-1.658,0.078-3.275-0.122-4.753c-0.335-3.054-1.136-5.788-1.845-8.314c-0.719-2.513-1.449-5.081-2.328-7.688
	C297.51,376.528,295.071,370.992,291.178,366.472z M322.729,420.714c-6.225,4.303-14.362,4.459-21.395,7.251
	c-7.033,2.792-13.388,11.068-9.412,17.506c2.366,3.831,7.155,5.093,11.935,6.206c-0.666,0.392-1.325,0.795-2.003,1.161
	c-4.439,2.374-9.163,4.059-13.942,5.303c-3.759,0.928-7.735,1.345-11.866,1.664c0.619-1.447,0.721-3.077,0.519-4.515
	c-0.791-5.269-1.843-10.448-3.486-15.582c-0.834-2.559-1.776-5.106-3.003-7.612c-1.307-2.63-2.599-4.611-3.815-6.928
	c-1.215-2.257-2.419-4.527-3.536-6.784c-0.551-1.126-1.091-2.264-1.53-3.344c-0.468-1.11-0.682-1.882-0.774-2.878
	c-0.211-1.896,0.261-3.782,1.098-4.744c0.831-0.969,1.933-1.369,3.492-1.244c1.602,0.134,3.605,0.917,5.469,2.054
	c0.938,0.564,1.864,1.201,2.744,1.902l3.202,2.471c2.258,1.636,4.778,3.371,8.093,4.408c3.267,1.107,7.665,1.04,11.178-1.022
	c2.184-1.31,3.78-3.027,4.991-4.917c2.535,0.263,5.151,0.272,7.863-0.153c4.342-0.723,8.682-2.849,11.877-5.959
	c3.27-3.064,5.499-6.885,6.97-10.819c0.803-2.19,1.354-4.438,1.708-6.711C333.02,399.899,332.91,413.675,322.729,420.714z
	 M320.408,302.943c-3.617-4.481-6.371-9.442-8.069-14.675c-1.416-4.621-2.358-9.767-1.252-13.176
	c0.505-1.678,1.474-2.979,2.911-4.112c1.461-1.135,3.435-2.069,5.684-2.8c2.233-0.78,4.706-1.362,7.306-1.998
	c1.507-0.383,3.05-0.802,4.592-1.246c-0.103,0.138-0.207,0.276-0.31,0.415c8.234-0.878,14.477,8.656,13.521,16.882
	c-0.621,5.349-3.242,10.087-6.483,14.473c-1.203,0.23-2.408,0.472-3.617,0.749C329.805,298.6,324.925,300.33,320.408,302.943z
	 M356.388,545.733c-0.423-1.183-0.871-2.385-1.311-3.611c-0.049-0.129-0.095-0.253-0.144-0.382
	c-1.919-5.065-3.675-10.063-5.849-14.709c-2.097-4.767-5.047-8.986-7.839-14.443c-1.33-2.704-2.553-5.717-3.181-9.034
	c-0.623-3.361-0.502-6.78,0.042-9.849c0.554-3.094,1.36-5.938,2.418-8.753c1.006-2.817,2.293-5.519,3.78-8.084
	c0.147-0.26,0.319-0.503,0.469-0.76c0.491-0.841,0.997-1.671,1.531-2.483c5.79-8.802,14.037-15.864,23.488-19.514
	c-8.484,7.448-14.875,16.318-18.869,26c-1.941,4.816-3.332,9.951-3.935,14.861c-0.249,2.432-0.252,4.666,0.248,6.77
	c0.468,2.15,1.33,4.356,2.495,6.622c1.112,2.283,2.492,4.626,3.87,7.137c1.357,2.521,2.711,5.283,3.759,8.01
	c2.06,5.309,3.509,10.663,4.683,15.958c0.04,0.182,0.087,0.364,0.127,0.546c0.189,0.872,0.393,1.783,0.593,2.685
	c0.423,1.898,0.828,3.844,1.012,5.919c0.267,3.032,0.178,6.353-0.995,9.443c-1.211,3.22-3.791,5.709-6.699,6.853
	c-1.466,0.576-3.051,0.864-4.592,0.695c-1.532-0.192-2.982-0.861-3.927-1.929c2.61,1.279,5.348,0.415,7.256-1.071
	c1.952-1.533,3.268-3.624,3.482-5.815C358.854,553.251,357.768,549.597,356.388,545.733z M367.443,868.853
	c-0.253,0.415-0.5,0.753-1.17,1.074c-1.287,0.696-3.602,0.531-4.637-0.319c-1.743-1.127-3.057-3.398-3.966-6.164
	c1.798-0.279,3.553-0.351,5.094-0.013c2.403,0.511,3.997,1.761,4.648,3.489C367.711,867.736,367.659,868.413,367.443,868.853z
	 M372.329,861.423c-2.378-2.615-5.859-4.073-8.922-4.066c-2.492-0.079-4.759,0.38-6.882,1.078c-0.095-0.684-0.171-1.376-0.225-2.07
	c-0.195-2.085-0.203-4.19-0.12-6.297c2.855-0.981,5.571-2.371,8.049-4.07c6.039-4.237,10.536-10.351,13.16-17.251l0.478,4.175
	C377.867,832.921,375.067,845.206,372.329,861.423z M381.087,678.132c-0.947,3.54-2.843,7.124-5.568,9.88
	c-2.808,2.757-5.594,4.248-7.348,5.879c-1.897,1.605-3.525,3.575-4.896,5.807c-2.849,4.433-4.36,9.897-5.381,15.488
	c-0.382,2.534-0.665,5.081-0.698,7.573c-0.008,0.59,0.002,1.175,0.027,1.758c0.103,2.441,0.492,4.812,1.383,7.028
	c1.808,4.774,6.886,9.223,13.099,8.448c-2.75,1.492-6.344,1.395-9.427,0.168c-3.113-1.197-5.868-3.507-7.782-6.43
	c-1.466-2.334-2.422-4.841-3.042-7.406c-0.215-0.893-0.385-1.792-0.522-2.695c-0.469-3.094-0.53-6.219-0.399-9.186
	c0.24-6.466,1.746-13.057,4.954-19.211c1.607-3.067,3.829-5.906,6.468-8.345c2.743-2.467,5.354-3.972,6.839-5.552
	c3.234-3.019,4.35-7.905,4.417-13.467c0.202-5.569-0.769-11.535-0.94-17.844c-0.468-11.508,2.17-23.027,7.637-32.735
	c0.611-1.085,1.232-2.164,1.914-3.201c-0.105,0.394-0.186,0.789-0.285,1.184c-2.901,11.49-3.622,23.025-1.928,34.063
	c0.978,5.787,2.206,11.834,2.553,18.442C382.308,671.085,382.044,674.576,381.087,678.132z M380.431,309.43
	c-4.169,3.444-8.83,5.962-13.558,7.974c-4.782,1.976-9.243,3.307-12.839,5.303c-0.884,0.495-1.791,1.008-2.481,1.62l-1.116,0.876
	l-1.015,1.019c-1.275,1.434-2.498,3.046-3.335,4.931c-3.383,7.447-3.29,17.571,3.002,25.281c-4.459-2.257-7.904-6.692-9.635-11.724
	c-1.681-5.044-1.96-10.742-0.28-16.115c0.735-2.716,2.068-5.321,3.81-7.667c1.7-2.38,4.098-4.384,6.402-5.896
	c4.746-3.042,9.662-4.569,13.809-6.365c8.357-3.527,16.135-8.233,20.258-15.443c1.276-2.31,2.055-5.071,2.293-7.936
	c0.115-1.39,0.143-2.795-0.038-4.201c-0.025-0.234-0.073-0.467-0.108-0.7c-0.603-4.079-2.588-8.113-6.468-10.829
	c4.086,0.703,7.575,3.794,9.764,7.621c0.504,0.881,0.961,1.788,1.316,2.729c0.05,0.136,0.085,0.278,0.133,0.416
	c1.731,4.991,1.867,10.649-0.147,15.942C388.253,301.58,384.564,305.997,380.431,309.43z M416.611,944.735
	c-2.387,8.096-8.206,13.691-14.251,18.028c4.661-5.782,9.029-12.207,9.706-18.914c0.878-6.728-2.979-12.21-7.986-17.246
	c-1.834-1.858-3.803-3.769-5.758-5.797c-0.726-0.753-1.458-1.466-2.168-2.279c-0.405-0.443-0.794-0.932-1.188-1.407
	c-2.199-2.65-4.204-5.736-5.653-8.965c-0.522-1.169-0.959-2.356-1.358-3.552c-0.695-2.082-1.212-4.197-1.585-6.328
	c-0.061-0.348-0.117-0.697-0.171-1.046c-0.67-4.391-0.765-8.823-0.509-13.121c1.211-14.381,6.618-26.941,10.726-39.267
	c0.505-1.515,1-3.028,1.455-4.539c4.209-13.769,5.509-28.454,4.105-43.427c5.291,14.104,6.236,30.073,3.073,45.218
	c-1.439,7.571-3.856,14.739-5.736,21.832c-1.999,7.067-3.763,13.974-4.175,20.892c-0.252,2.956-0.232,5.907,0.001,8.805
	c0.117,1.46,0.321,2.891,0.581,4.309c0.427,2.323,0.982,4.601,1.841,6.748c0.799,2.067,1.791,3.978,3.013,5.845
	c0.59,0.901,1.218,1.796,1.935,2.686c0.134,0.169,0.29,0.344,0.427,0.513c2.065,2.557,4.38,5.15,6.661,7.993
	c2.393,3.034,4.918,6.351,6.361,10.413C417.463,936.132,417.745,940.716,416.611,944.735z M421.066,323.172
	c-2.431,2.763-4.176,5.907-4.33,8.546c-0.086,1.324,0.099,2.48,0.704,3.824c0.567,1.342,1.499,2.829,2.647,4.426
	c1.114,1.625,2.427,3.368,3.675,5.441c1.199,2.088,2.384,4.616,2.753,7.525c0.235,1.437,0.066,2.908-0.036,4.328
	c-0.287,1.408-0.603,2.822-1.221,4.035c-1.079,2.541-2.678,4.506-4.28,6.177c-3.229,3.37-6.743,5.677-9.818,8.285
	c-3.191,2.517-5.937,5.265-7.522,9.32c-0.599-4.367,1.6-8.91,4.075-12.449c2.547-3.589,5.394-6.785,7.496-9.879
	c2.184-3.159,3.03-5.92,2.424-8.404c-0.477-2.471-2.725-5.363-5.312-8.944c-1.242-1.827-2.601-3.882-3.581-6.435
	c-0.975-2.528-1.421-5.648-0.892-8.473c1.044-5.746,4.54-9.771,8.108-12.713c7.32-5.661,15.985-8.697,24.638-8.647
	C432.944,312.877,426.124,317.556,421.066,323.172z M443.422,457.799c-0.846-6.163-0.123-12.699,2.482-18.655
	c1.303-2.987,3.14-5.855,5.557-8.339c2.487-2.531,5.482-4.235,7.92-5.6c2.528-1.366,4.559-2.505,6.132-3.958
	c1.664-1.451,3.079-3.331,4.371-5.442c2.581-4.237,4.429-9.47,6.701-14.688c4.353-10.414,9.017-20.719,14.564-30.718
	c-1.841,11.286-4.565,22.264-7.601,33.135c-1.488,5.38-2.923,11.012-5.833,16.649c-1.455,2.798-3.375,5.542-5.851,7.924
	c-2.535,2.436-5.499,4.037-7.888,5.387c-2.477,1.349-4.432,2.486-5.933,3.97c-1.59,1.485-2.911,3.386-3.996,5.493
	c-2.219,4.26-3.178,9.229-3.249,14.278c0.136,10.134,4.416,20.691,12.889,28.36C452.929,481.285,444.993,470.088,443.422,457.799z
	 M481.814,454.368c2.037,5.299,3.178,10.673,3.579,16.098c0.339,4.135,0.23,8.243-0.186,12.341
	C481.4,473.01,479.057,464.082,481.814,454.368z M448.286,869.231c-0.416-4.151-0.019-7.908,0.455-11.518
	c0.51-3.599,1.184-7.02,1.859-10.349c0.671-3.335,1.365-6.56,1.955-9.892c0.615-3.35,1.079-6.76,1.583-10.899
	c3.205,2.717,5.026,6.651,5.868,10.652c0.828,4.03,0.681,8.166-0.12,12.036c-0.8,3.883-2.229,7.533-4.126,10.885
	C453.824,863.491,451.497,866.575,448.286,869.231z M484.222,956.014c-0.505,2.853-1.526,5.828-2.854,8.332
	c-1.31,2.456-2.777,4.726-4.335,6.821c-0.927,1.251-1.865,2.445-2.802,3.618c-0.953,1.193-1.894,2.355-2.822,3.5
	c-1.221,1.505-2.418,2.991-3.531,4.483c-5.569,7.274-8.306,16.513-7.225,26.667c-2.494-4.449-3.589-9.746-3.464-15.087
	c0.15-5.334,1.853-10.818,4.42-15.457c1.298-2.502,2.763-4.816,4.23-7.039c0.623-0.944,1.246-1.875,1.857-2.791
	c0.668-1.002,1.323-1.992,1.944-2.976c1.261-2.004,2.45-3.955,3.378-5.945c0.937-1.926,1.522-3.714,1.867-5.765
	c0.724-3.969,0.329-8.297-1.329-11.26c-0.815-1.492-1.914-2.568-3.33-3.321c-1.232-0.829-3.828-0.978-7.043-2.527
	c-1.998-1.019-3.595-2.666-4.726-4.452c-0.677-1.07-1.229-2.178-1.485-3.263c-0.792-2.895-0.884-5.53-0.965-8.047
	c0-0.01,0-0.02-0.001-0.029c-0.116-4.994,0.367-9.838-2.681-14.018c2.284,1.211,3.912,3.588,4.96,6.006
	c1.083,2.439,1.664,4.995,2.335,7.386c0.6,2.392,1.211,4.719,2.159,6.489c0.928,1.828,2.061,2.698,3.414,3.169
	c1.357,0.499,3.955,0.313,7.273,1.58c3.191,1.142,5.959,3.552,7.738,6.296C484.754,944,485.159,950.263,484.222,956.014z
	 M581.324,959.897c2.619,5.854,3.472,12.316,1.951,18.097c-1.566,5.844-5.562,11.192-9.965,16.64
	c-2.049,2.563-4.202,5.25-6.202,8.169c-4.489-22.258-20.222-40.824-3.94-57.631c0.857-0.884,1.716-1.749,2.576-2.605
	C572.525,947.014,578.151,952.716,581.324,959.897z M536.178,909.489c3.671-3.424,8.261-6.198,13.022-7.693
	c2.207-0.708,4.136-1.292,5.435-2.017c1.323-0.78,1.717-1.23,2.027-2.306c0.317-1.143,0.163-3.19-0.029-5.405
	c-0.133-2.16-0.364-4.314-0.61-6.469c-2.135-17.235-7.382-34.154-15.221-50.274c11.191,14.046,18.852,31.119,22.494,49.079
	c0.448,2.248,0.878,4.504,1.209,6.777c0.306,2.192,0.801,4.643,0.283,7.908c-0.265,1.605-1.001,3.387-2.065,4.793
	c-1.061,1.438-2.387,2.497-3.646,3.281c-2.546,1.561-4.918,2.296-6.902,3.074c-7.295,2.576-13.058,8.349-16.565,15.445
	c-0.266,0.498-0.487,1.01-0.727,1.516c-0.436,0.923-0.83,1.859-1.181,2.808c-3.204,8.685-2.867,18.338-0.16,27.646
	c0.242,0.833,0.511,1.66,0.789,2.486c1.425,4.224,3.303,8.351,5.549,12.25c2.097,3.74,4.525,7.189,7.164,10.746
	c2.613,3.603,5.696,7.654,6.594,12.915c0.357,2.563,0.124,5.159-0.835,7.561c-0.014,0.035-0.02,0.071-0.035,0.106
	c-0.976,2.409-2.842,4.642-5.422,5.557c-0.239,0.082-0.475,0.08-0.714,0.135c-2.452,0.565-4.853-0.197-6.575-1.558
	c-1.907-1.47-3.072-4.212-1.998-6.317c-0.552,2.286,1.013,4.256,2.799,5.129c1.478,0.795,3.23,0.975,4.615,0.524
	c0.282-0.092,0.572-0.171,0.815-0.319c2.933-1.739,3.761-5.758,2.975-9.114c-0.059-0.251-0.105-0.507-0.182-0.749
	c-0.88-2.969-2.97-5.651-5.376-8.317c-0.478-0.531-0.952-1.061-1.451-1.593c-3.084-3.276-6.033-6.963-8.653-10.792
	c-2.013-2.932-3.823-6.042-5.385-9.296c-2.529-5.27-4.401-10.924-5.378-16.846c-0.753-4.766-0.859-9.748-0.118-14.661
	c0.399-2.596,1.019-5.153,1.829-7.652c0.208-0.643,0.446-1.277,0.682-1.912c0.572-1.538,1.194-3.06,1.926-4.536
	C529.4,916.973,532.463,912.919,536.178,909.489z M529.831,666.569c1.51,13.979-2.193,27.011-6.544,39.305
	c0.548-13.106,1.913-26.194-0.756-38.102c-1.424-5.869-3.533-11.573-6.973-16.199c-1.682-2.317-3.574-4.423-5.743-6.139
	c-2.068-1.73-4.631-3.107-7.602-4.844c-2.856-1.788-6.232-3.837-8.848-7.602c-1.265-1.851-2.203-4.161-2.519-6.384
	c-0.326-2.196-0.235-4.13-0.093-5.803c0.63-6.208,0.231-12.228-0.715-18.348c-0.506-3.041-1.274-6.039-2.161-9.02
	c-0.838-2.948-2.026-5.659-3.641-8.245c-1.533-2.618-3.553-4.923-5.976-6.716c-2.435-1.762-5.509-2.717-8.81-2.235
	c1.483-0.701,3.161-1.127,4.911-1.148c1.732,0.051,3.489,0.418,5.132,1.08c3.273,1.359,6.077,3.642,8.431,6.22
	c2.333,2.59,4.253,5.663,5.716,8.8c1.495,3.073,2.602,6.321,3.58,9.612c1.964,6.561,2.632,13.636,2.475,20.414
	c-0.006,1.571-0.012,2.909,0.177,3.932c0.178,0.995,0.539,1.757,1.107,2.583c1.13,1.624,3.401,3.186,6.081,4.72
	c2.617,1.572,5.82,3.297,8.732,5.779c2.835,2.441,5.28,5.268,7.222,8.348C526.858,652.764,529.115,659.638,529.831,666.569z
	 M678.433,943.474c-1.806-0.225-3.533-0.819-4.563-1.493c-0.438-0.289-0.736-0.647-0.843-0.859c-0.094-0.212-0.093-0.233-0.083-0.61
	c0.015-0.344,0.164-0.886,0.444-1.406c0.426-0.723,0.867-1.468,1.375-2.024c1.002-1.181,2.086-1.848,3.256-2.138
	c1.177-0.267,2.604-0.141,4.165,0.445c1.585,0.609,3.523,1.687,5.216,2.748c0.477,0.306,0.934,0.65,1.401,0.978
	c0.177,1.137,0.389,2.28,0.654,3.432C685.846,943.51,681.897,943.958,678.433,943.474z M681.247,562.081
	c-4.286,4.904-8.953,9.869-13.524,14.482c-4.626,4.579-9.516,8.778-14.781,12.414c-10.475,7.357-22.541,12.144-35.146,14.263
	c-3.138,0.591-6.351,0.819-9.535,1.142c-3.199,0.032-6.462,0.419-9.6,0.139c-6.34-0.048-12.62-1.297-18.776-2.865
	c-12.279-3.431-23.906-9.46-34.227-17.243c-5.155-3.877-10.075-8.166-14.424-12.811c-4.173-4.349-7.83-10.188-11.708-15.581
	c-1.377-1.587-2.752-3.188-4.124-4.782c-8.062-11.731-11.785-7.407-18.119-34.847c-1.46-6.324-3.428-12.061-5.499-17.405
	c0.306-1.124,0.654-2.23,0.908-3.375c1.941-8.511,2.25-17.753,0.026-26.401c-1.701-6.741-5.017-13.238-9.809-18.075
	c1.397-3.526,3.503-7.179,6.462-11.027c5.415,2.48,11.842,3.164,17.911,1.771c4.364-0.955,8.537-3.08,12.078-6.116
	c3.5-3.04,6.009-6.878,8.116-10.671c4.185-7.575,6.884-15.872,8.517-24.36c1.536-8.514,1.732-17.252,0.796-25.864
	c-0.545-4.299-1.417-8.66-2.887-12.95c-1.451-4.252-3.655-8.563-6.415-12.068c-3.32-4.253-6.907-7.853-10.174-11.39
	c-1.046-44.612,11.711-42.022,33.98-38.078c24.547,4.348,51.156-14.965,51.156-14.965s24.944,15.685,40.347,14.965
	c15.403-0.72,46.922,12.856,52.703,34.577c5.78,21.721,4.104,43.496,20.78,55.416c1.069,0.764,2.072,1.5,3.022,2.219
	c-3.411,4.722-6.016,10.122-7.75,15.798c-1.404,4.543-2.177,9.301-2.387,14.102c-0.15,4.754-0.038,9.689,1.82,14.925
	c1.909,5.307,5.954,9.602,10.258,12.303c2.823,1.773,5.727,3.056,8.71,4.041c-6.722,11.072-15.298,23.56-13.674,46.095
	c0.272,3.779,0.128,7.365-0.326,10.805c-0.434,0.957-0.857,1.92-1.319,2.858c-2.935,5.869-6.363,11.451-10.287,16.711
	C697.845,541.521,689.886,552.13,681.247,562.081z M725.185,844.223c-0.354,3.423-1.836,6.469-3.509,8.873
	c-3.487,4.717-7.487,7.7-10.738,10.821c-3.29,3.089-5.681,6.039-6.067,9.39c-0.444,3.389,1.424,7.684,3.512,12.059
	c0.969,2.245,2.051,4.549,2.712,7.044c0.674,2.471,0.929,5.154,0.277,7.562c-0.89-4.921-3.944-8.399-6.961-12.178
	c-1.489-1.917-3.024-3.909-4.385-6.249c-1.35-2.322-2.392-5.17-2.553-8.317c-0.133-3.104,0.63-6.41,2.124-8.949
	c1.399-2.601,3.181-4.774,4.932-6.674c3.511-3.772,7.19-6.859,9.418-9.999c2.153-3.155,2.648-5.554,1.191-8.94
	c-1.414-3.463-5.003-7.323-7.017-12.676c-4.08-10.238-1.762-22.233,5.268-29.306c-3.579,9.159-2.732,18.883,1.414,26.194
	c1.944,3.544,5.517,6.615,8.399,11.855C724.613,837.332,725.551,840.827,725.185,844.223z M719.553,593.397
	c-3.786,12.497-4.957,25.969-5.829,39.652c-3.048-13.346-4.06-27.438-1.357-41.415c2.692-13.877,9.312-27.682,20.649-37.414
	c5.79-4.82,11.751-7.873,15.135-12.154c3.489-4.237,4.82-10.065,5.003-16.509c0.191-6.409-0.451-13.253-0.38-20.223
	c0.071-6.896,1.175-14.338,4.984-20.139c-1.836,6.665-1.515,13.25-0.363,19.828c0.982,6.59,2.649,13.194,3.128,20.386
	c0.727,7.032-0.48,15.373-5.267,22.104c-2.411,3.33-5.469,5.75-8.274,7.89c-2.841,2.135-5.525,3.965-7.791,6.005
	C729.818,569.504,723.303,580.994,719.553,593.397z M749.257,991.167c-3.193,2.651-6.341,5.358-9.412,8.152
	c-0.718,0.657-1.407,1.345-2.118,2.01l6.736-23.343c0.142,1,0.315,1.992,0.549,2.966c0.576,2.4,1.566,4.592,2.785,6.657
	C748.192,988.858,748.681,990.045,749.257,991.167z M749.094,1020.866c-3.098-0.993-6.219-1.914-9.359-2.763l-2.359-0.623
	l-1.001-0.256c-0.024-0.052-0.066-0.141-0.066-0.273c0.015-0.183-0.048-0.047,0.06-0.396c0.083-0.268,0.248-0.615,0.518-1.021
	c0.524-0.816,1.439-1.796,2.526-2.886c2.198-2.218,4.442-4.392,6.723-6.527c2.36-2.217,4.774-4.375,7.222-6.496l2.552,23.602
	C753.646,1022.415,751.383,1021.6,749.094,1020.866z M756.413,1023.402c-0.028-0.01-0.056-0.019-0.083-0.029
	c0.023,0.003,0.063,0.007,0.087,0.011C756.415,1023.389,756.414,1023.395,756.413,1023.402z M768.656,1044.905
	c-0.172,0.257-0.392,0.444-0.632,0.634l-0.532,0.297l-1.174,0.581c-1.583,0.74-3.077,1.649-4.553,2.571
	c-2.904,1.928-5.566,4.184-7.961,6.681c-1.968,2.056-3.678,4.341-5.211,6.737c0.23-1.437,0.573-2.853,1.063-4.215
	c2.382-8.105,10.196-12.922,18.593-18.415c0.13,0.181,0.296,0.365,0.391,0.541C769.514,1041.768,769.389,1043.951,768.656,1044.905z
	 M774.971,882.044c-0.454,3.937-1.377,7.796-2.72,11.48c-0.044,0.122-0.079,0.248-0.125,0.37c-1.466,3.786-3.502,7.307-5.82,10.536
	c-2.499,3.128-5.296,5.961-8.581,8.083c1.714-3.531,3.304-6.863,4.497-10.317c0.224-0.635,0.38-1.274,0.579-1.911
	c0.372-1.181,0.752-2.362,1.053-3.546c0.417-1.635,0.785-3.271,1.105-4.902c0.568-3.482,0.96-6.936,1.038-10.395
	c0.015-3.455-0.15-6.889-0.659-10.273c-0.542-3.372-1.32-6.7-2.422-9.933c-1.114-3.168-2.618-6.391-4.235-9.877
	c-1.576-3.466-3.095-7.203-3.92-11.235c-0.779-4.003-0.531-8.512,1.59-11.856c-0.046,3.94,1.032,7.281,2.79,10.352
	c1.637,3.111,3.859,5.976,5.995,9.059c2.174,3.031,4.358,6.403,6.108,10.219c0.634,1.42,1.161,2.881,1.637,4.357
	c0.686,2.125,1.225,4.293,1.632,6.486c0.063,0.339,0.141,0.675,0.198,1.015c0.299,2.073,0.459,4.158,0.495,6.242
	C775.244,878.019,775.163,880.038,774.971,882.044z M774.194,286.898c-2.531-2.841-4.702-5.995-6.472-9.272
	c-3.566-6.589-5.885-13.318-8.771-19.273c-2.894-5.942-6.189-11.286-11.229-14.589c-2.54-1.67-5.43-3.048-8.565-3.589
	c-3.139-0.644-6.482-0.376-9.921,1.071c2.095-3.113,5.925-5.103,9.913-5.701c4.009-0.532,8.172,0.051,11.974,1.614
	c3.804,1.506,7.33,4.238,9.95,7.226c2.685,3.024,4.746,6.428,6.418,9.857c3.328,6.904,5.03,13.928,7.083,20.447
	c2.054,6.577,4.314,12.84,8.77,18.743C779.853,292.108,776.816,289.661,774.194,286.898z M788.879,143.543
	c-0.511,2.623-1.195,5.25-1.992,7.881c-4.984-3.222-7.749-7.222-11.292-10.636c3.026-0.13,6.04-0.198,9.02-0.153
	c1.58,0.046,3.15,0.13,4.702,0.248C789.179,141.769,789.052,142.656,788.879,143.543z M789.962,133.816
	c-1.941,0.109-3.857,0.302-5.749,0.579c-4.288,0.678-8.481,1.588-12.555,2.91c-0.117,0.036-0.232,0.079-0.349,0.117
	c-1.549-0.957-3.296-1.799-5.42-2.441c-2.992-0.904-6.954-1.785-11.352-2.616c0.85-1.38,1.683-2.842,2.333-4.554
	c0.836-2.303,1.296-4.718,1.477-7.145c4.549-2.143,9.22-3.862,13.815-4.743c1.246-0.204,2.489-0.396,3.701-0.439
	c0.612-0.051,1.204-0.037,1.803-0.055l2.042,0.027c1.34,0.034,2.65,0.111,3.856,0.254c1.05,0.108,2.211,0.395,2.432,0.495
	l0.067,0.056c0.097,0.084,0.198,0.183,0.3,0.302c0.208,0.231,0.427,0.553,0.644,0.94c0.427,0.778,0.87,1.827,1.243,3.039
	c0.765,2.353,1.269,4.82,1.536,7.354C789.989,129.837,790.016,131.819,789.962,133.816z M922.19,878.456
	c1.079-3.311,2.89-6.292,5.171-8.675c2.036-2.232,5.27-3.784,6.935-3.312c0.796,0.213,1.262,0.618,1.583,1.333
	c0.365,0.711,0.521,1.872,0.315,2.9c-0.34,1.982-2.303,4.32-4.965,6.356c-3.123,2.515-6.6,4.618-10.193,6.012
	C921.288,881.489,921.66,879.94,922.19,878.456z M896.847,787.701c3.399,4.697,6.149,9.822,8.1,15.198
	c2.093,5.365,3.101,10.998,3.333,16.729c0.164,9.356-2.196,19.016-7.645,27.335c1.375-13.521,1.308-25.168-1.685-30.962
	c-4.323-8.37-6.528-21.481-7.405-35.035C893.435,783.122,895.214,785.364,896.847,787.701z M846.017,179.4
	c0.418-1.185,0.839-2.32,1.173-3.728c0.174-0.583,0.323-1.698,0.377-2.351c0.07-0.737,0.132-1.482,0.078-2.22
	c-0.08-2.971-0.905-5.868-2.281-8.457c-0.445-0.856-0.98-1.671-1.552-2.464c1.189,0.221,2.384,0.436,3.518,0.728
	c1.549,0.417,3.09,0.866,4.296,1.449c0.597,0.286,1.074,0.617,1.33,0.853c0.455,0.471,0.9,0.944,1.273,1.492
	c1.536,2.139,2.39,4.913,2.808,7.819c0.681,5.914-0.511,12.123-3.171,17.587c-1.534,3.252-3.582,6.264-6.009,8.917
	c-1.414-1.658-3.012-2.933-4.907-3.589c-1.192-0.412-2.317-1.079-3.418-1.849c0.192-0.371,0.382-0.741,0.584-1.123
	C842.287,188.243,844.327,184.011,846.017,179.4z M820.249,163.139c1.907-0.73,3.838-1.376,5.789-1.939
	c1.265-0.034,2.492,0.012,3.617,0.256c3.117,0.636,6.04,2.722,7.953,5.646c0.954,1.445,1.666,3.065,1.982,4.747
	c0.093,0.422,0.151,0.843,0.203,1.272c0.059,0.511,0.047,0.562-0.021,1.116c-0.1,0.883-0.366,1.983-0.617,3.03
	c-1.086,4.098-2.458,8.337-3.837,12.529c-4.918-5.446-9.416-13.507-15.085-20.413c0.09-0.967,0.164-1.936,0.159-2.903
	C820.401,165.361,820.346,164.247,820.249,163.139z M796.411,145.547c0.367-1.117,0.671-2.263,0.97-3.411
	c1.381,0.36,2.696,0.793,3.766,1.355c1.412,0.694,2.123,1.438,3.035,2.721c0.898,1.228,1.677,2.88,2.592,4.695
	c0.894,1.817,1.636,3.462,2.335,5.235c0.184,0.489,0.347,0.984,0.519,1.476c-0.218,0.123-0.449,0.245-0.666,0.367
	c-0.426,0.233-0.834,0.504-1.256,0.744c-2.205-1.097-4.569-1.932-7.161-2.365c-3.035-0.508-5.578-1.212-7.806-2.037
	C794.143,151.519,795.393,148.602,796.411,145.547z M796.683,1017.678c-0.89-0.711-1.792-1.407-2.703-2.09
	c0.925-1.302,1.843-2.609,2.696-3.961c2.12-3.423,4.026-6.852,5.665-10.685c0.877-2.095,1.637-4.378,2.134-6.783
	c1.294,1.025,2.489,2.412,3.543,3.905c-0.518,5.843-2.179,11.13-5.773,14.961C800.753,1014.705,798.814,1016.212,796.683,1017.678z
	 M805.421,1025.419c-0.661-0.653-1.344-1.284-2.022-1.921c1.816-1.219,3.614-2.595,5.308-4.276c1.789-1.76,3.276-3.804,4.477-5.982
	l1.875,23.447C812.104,1032.671,808.938,1028.902,805.421,1025.419z M821.838,997.528c0.565-5.179-0.82-9.891-3.066-14.101
	c-0.575-1.124-1.211-2.213-1.886-3.282c-1.883-2.983-4.101-5.784-6.409-8.577c-1.487-1.748-2.995-3.545-4.472-5.422
	c-1.749-2.223-3.453-4.562-5.006-7.128c-1.154-1.901-2.201-3.989-3.049-6.204c-1.24-3.236-2.046-6.749-2.046-10.405
	c-0.008-6.118,1.975-11.73,4.408-16.543c1.914-3.752,4.09-7.183,6.262-10.452c0.627-0.944,1.254-1.879,1.874-2.8
	c2.626-4.099,5.102-8.274,6.71-12.771c1.693-4.462,2.408-9.32,1.201-14.386c3.197,4.189,3.968,10.069,3.337,15.424
	c-0.696,5.41-2.507,10.552-4.778,15.321c-4.415,9.325-9.617,17.894-9.535,26.175c-0.125,8.172,5.646,16.2,11.074,24.88
	c2.806,4.413,5.273,9.297,6.657,14.557C824.429,987.031,824.476,992.962,821.838,997.528z M812.592,768.924
	c1.193,6.653,4.28,13.378,5.597,21.487c0.66,3.997,0.526,8.372-0.603,12.34c-1.188,3.948-3.583,7.74-7.058,9.596
	c1.935-3.374,2.6-6.849,2.451-10.272c-0.056-3.447-0.887-6.658-2.036-9.906c-1.167-3.252-2.629-6.517-4.077-10.023
	c-1.449-3.474-2.77-7.371-3.563-11.32c-1.597-7.895-1.469-16.113,0.447-23.824c1.948-7.682,5.508-14.968,10.896-20.549
	c-1.908,7.484-3.201,14.586-3.552,21.678C810.693,755.198,811.224,762.167,812.592,768.924z M830.582,573.862
	c-0.081,2.809-1.169,6.056-2.845,8.463c-1.634,2.428-3.549,4.163-5.141,5.737c-1.573,1.544-2.995,2.918-4.329,4.546
	c-5.438,6.255-9.696,13.622-12.54,21.661c-2.901,8.044-4.378,16.683-4.557,25.935c-3.752-8.516-4.404-18.427-2.644-27.864
	c1.774-9.463,6.129-18.563,12.59-25.954c1.57-1.842,3.421-3.619,5.128-5.185c1.722-1.495,3.178-2.832,4.192-4.092
	c1.005-1.252,1.521-2.402,1.854-4.104c0.292-1.663,0.289-3.647,0.131-5.765c-0.789-8.865-1.493-18.077-1.145-27.297
	c3.553,8.599,6.147,17.191,8.487,26.159C830.294,568.449,830.748,571.011,830.582,573.862z M839.415,284.44
	c-5.746-3.147-9.658-8.439-11.71-13.923c-2.205-5.512-2.594-11.391-2.153-16.822c0.523-5.485,1.741-10.677,3.356-15.782
	c0.729,10.597,0.856,21.397,5.494,29.524c2.289,4.038,5.417,7.338,9.095,9.012c1.74,0.863,4.857,1.599,7.93,4.057
	c2.83,2.37,4.417,5.111,5.824,7.316c5.51,8.959,10.781,18.065,15.654,27.416c2.493,4.715,4.794,9.231,7.118,14.313
	c1.013,2.648,1.826,5.425,1.795,8.361c-0.028,1.452-0.262,2.952-0.921,4.279c-0.096,0.188-0.219,0.356-0.333,0.532
	c-0.161,0.251-0.336,0.487-0.526,0.71c-0.612,0.714-1.348,1.288-2.16,1.619c0.71-0.71,1.163-1.506,1.428-2.338
	c0.058-0.181,0.096-0.364,0.136-0.547c0.285-1.312,0.147-2.685-0.235-3.95c-0.674-2.297-1.856-4.49-3.293-6.476
	c-1.357-1.909-3.127-4.155-4.671-6.216c-1.6-2.103-3.089-4.274-4.639-6.407c-6.153-8.563-11.908-17.371-17.425-26.325
	c-1.339-2.251-2.549-4.078-3.763-5.123C844.447,286.656,842.331,285.971,839.415,284.44z M857.612,783.4
	c0.538,3.163,1.714,6.199,4.083,8.968c-3.568-0.964-6.498-3.982-8.422-7.282c-1.871-3.371-3.03-7.049-3.69-10.693
	c-1.269-7.174-1.465-14.413-0.783-21.621c0.731-7.188,2.345-14.293,4.945-21.014c0.086-0.221,0.192-0.434,0.28-0.654
	c0.124-0.312,0.268-0.616,0.397-0.927c2.527-6.123,5.79-11.944,10.149-16.968c-1.157,7.136-2.624,13.807-3.664,20.525
	c-0.441,2.579-0.807,5.147-1.169,7.715c-0.302,2.136-0.572,4.273-0.825,6.407c-0.232,1.946-0.483,3.891-0.679,5.838
	c-0.613,6.636-1.059,13.358-1.223,20.052C856.97,777.017,856.982,780.269,857.612,783.4z M875.434,889.061
	c-0.318,1.482-0.915,3.086-1.879,4.55c-0.955,1.476-2.312,2.729-3.553,3.511c-0.769,0.5-1.482,0.875-2.163,1.211
	c-0.427,0.211-0.853,0.416-1.235,0.594l-2.664,1.267c-0.789,0.424-1.537,0.955-2.309,1.426c-0.886,0.541-1.792,1.031-2.651,1.637
	c-1.333,0.958-2.584,2.047-3.815,3.167c-3,2.731-5.682,5.923-7.983,9.551c-1.29,2.033-2.492,4.163-3.53,6.454
	c-0.155-5.039,1.107-10.128,3.398-14.827c1.772-3.635,4.142-7.043,7.046-9.976c0.458-0.452,0.953-0.87,1.431-1.303
	c0.854-0.772,1.744-1.507,2.668-2.207c0.469-0.356,0.92-0.733,1.407-1.068c0.987-0.684,2.027-1.288,2.95-1.825
	c0.957-0.557,1.786-1.043,2.286-1.464c0.534-0.447,0.766-0.721,0.959-1.084c0.193-0.364,0.361-0.821,0.456-1.46
	c0.232-1.27,0.163-3.053-0.069-5.051c-0.931-8.533-1.565-17.211-1.819-25.869c-0.137-6.045-0.14-12.105,0.199-18.203
	c0.091-1.647,0.228-3.299,0.379-4.952c0.092-1.014,0.154-2.024,0.272-3.04c0.368,1.059,0.678,2.125,1.016,3.188
	c0.618,1.942,1.198,3.888,1.729,5.839c1.48,5.428,2.698,10.884,3.79,16.355c1.639,8.534,2.907,17.048,3.862,25.709
	C875.82,883.48,876.029,886.07,875.434,889.061z M886.754,937.428c0.051-0.376,0.056-0.763,0.095-1.142
	c0.88,0.54,1.786,1.079,2.627,1.615c3.229,2.128,6.198,4.382,8.443,6.982c2.198,2.489,3.718,5.458,4.176,8.368
	c0.279,1.445,0.194,2.832-0.103,4.105c-0.266,1.291-0.88,2.424-1.813,3.686c-1.873,2.461-5.074,4.94-8.168,7.258
	c-0.468,0.342-0.967,0.66-1.442,0.997c-0.623-1.706-1.316-3.382-2.127-4.986c-1.959-3.889-4.563-7.345-7.424-10.521
	c0.489-0.847,0.968-1.699,1.397-2.554C884.533,946.983,886.081,942.343,886.754,937.428z M897.68,601.263
	c-0.89,3.054-2.473,5.818-4.257,8.138c-0.086,0.112-0.167,0.238-0.254,0.348c-1.907,2.399-3.993,4.387-5.969,6.247
	c-4.026,3.658-7.641,6.799-9.811,10.495c-2.238,3.775-3.425,8.311-3.41,12.904c0.014,2.306,0.388,4.586,1.07,6.842
	c0.691,2.331,1.731,4.74,2.722,7.268c0.912,2.559,1.924,5.204,2.241,8.083c0.399,2.835-0.134,5.904-1.717,8.115
	c1.185-5.447-1.814-9.766-4.666-14.073c-1.431-2.193-2.958-4.443-4.32-7.012c-1.404-2.632-2.227-5.591-2.699-8.566
	c-0.973-5.983,0.087-12.29,2.88-17.861c2.935-5.719,7.536-9.671,11.281-13.162c0.452-0.411,0.86-0.813,1.292-1.219
	c2.407-2.259,4.486-4.469,5.866-6.795c0.479-0.807,0.902-1.624,1.201-2.47c1.406-3.747,1.167-8.595,0.461-13.592
	c-1.563-9.854-4.651-19.841-12.699-27.156c5.129,1.855,9.491,5.8,12.795,10.339c2.798,3.966,4.878,8.394,6.38,12.988
	c0.245,0.749,0.512,1.492,0.724,2.249c0.234,0.797,0.452,1.618,0.659,2.452c1.109,4.463,1.683,9.425,0.411,14.646
	C897.795,600.735,897.755,600.997,897.68,601.263z M934.708,632.8c-1.948,4.336-4.582,8.261-7.913,11.799
	c-3.357,3.633-7.631,7.387-10.477,12.978c-0.105,0.214-0.184,0.439-0.283,0.656c-1.475-0.157-2.959-0.311-4.357-0.499
	c-1.86-0.306-3.695-0.63-5.19-1.207c-0.755-0.273-1.412-0.612-1.853-0.961c-0.499-0.419-0.587-0.5-0.88-1.071
	c-0.468-0.961-0.594-2.161-0.368-3.562c0.228-1.346,0.782-3.023,1.489-4.152c1.511-2.526,4.309-4.926,7.354-6.985
	c3.072-2.033,6.478-4.012,9.91-5.754c3.481-1.774,7.236-3.474,11.004-5.666c1.373-0.792,2.755-1.732,4.114-2.746
	C936.606,628.073,935.729,630.518,934.708,632.8z M937.511,597.405c0.917,1.089,1.563,2.259,2.011,3.463
	c-2.593-1.649-5.454-2.49-8.033-2.867c-3.093-0.448-5.96-0.377-8.619-0.312c-3.142,0.097-6.279,0.304-9.409,0.583
	c0.282-2.677,0.388-5.426,0.28-8.234c5.786,0.196,11.205-0.002,15.597,1.778C932.542,593.08,935.477,595.012,937.511,597.405z
	 M915.392,541.978c1.141,0.76,2.256,1.533,3.33,2.336c2.306,1.701,4.383,3.557,6.035,5.473c0.828,0.968,1.49,1.95,2.062,2.931
	c0.774,1.405,1.471,2.554,2.016,3.734c1.096,2.334,1.776,4.663,2.046,7.188c0.129,1.349,0.126,2.291,0.045,3.518
	c-0.18,1.186-0.356,2.438-0.766,3.725c-1.154,4.076-3.292,8.277-5.325,12.791c-4.092-0.172-7.937,0.36-11.608,0.728
	c-0.149-1.014-0.321-2.032-0.537-3.058c2.916-5.821,5.036-12.165,5.732-18.949C919.132,555.683,918.265,548.474,915.392,541.978z
	 M911.814,607.577c3.745-0.327,7.497-0.583,11.255-0.625c5.074-0.147,9.652,0.269,11.949,2.261c1,0.733,1.772,1.875,2.33,3.257
	c-0.301,0.424-0.587,0.855-0.929,1.26c-2.104,2.584-4.885,4.581-8.102,6.526c-6.348,3.807-14.373,7.062-21.264,12.338
	c-3.171,2.448-6.347,5.248-8.766,9.217c1.295-2.633,3.067-5.595,4.854-10.175C905.569,625.417,909.467,617.145,911.814,607.577z
	 M896.213,531.894c2.465,2.006,4.482,3.867,6.14,6.08c1.693,2.185,3.066,4.632,4.184,7.222c2.241,5.214,3.328,10.916,3.62,16.943
	c0.177,3.452,0.096,7.003-0.086,10.627c-1.648-4.122-3.9-8.303-6.931-12.513c-10.59-14.709-12.352-23.435-10.005-30.89
	C894.179,530.23,895.224,531.08,896.213,531.894z M897.602,441.66c-0.931,2.022-2.157,3.256-3.086,4.219
	c-1.874,1.781-3.587,3.664-5.214,5.603c-2.028,2.416-3.84,4.979-5.505,7.647c-1.639,2.628-3.169,5.336-4.477,8.217
	c-1.757,4.024-3.153,8.249-3.649,12.642c-0.582,4.385-0.188,8.942,1.762,13.393c-3.716-3.215-5.738-8.289-6.418-13.326
	c-0.61-5.087-0.064-10.281,1.326-15.17c2.586-9.713,8.249-18.871,15.478-25.716c0.737-0.704,1.14-1.251,1.197-1.395
	c0.03-0.083,0.079,0.037,0.004-0.679c-0.073-0.6-0.426-1.765-0.748-2.921l-0.945-3.424c-1.221-4.577-2.412-9.164-3.414-13.808
	c-0.503-2.322-1.081-4.62-1.523-6.961c-0.432-2.303-0.924-4.51-1.55-6.67c-1.218-4.275-3.033-8.477-7.265-10.989
	c2.416,0.233,4.838,1.42,6.752,3.145c1.98,1.691,3.424,3.846,4.759,5.994c2.485,4.466,4.124,8.926,5.873,13.311
	c1.784,4.404,3.38,8.866,4.945,13.337l1.144,3.362c0.352,1.111,0.795,2.185,1.166,3.913
	C898.593,436.979,898.595,439.583,897.602,441.66z M930.694,488.24c-4.31-0.937-8.544-2.459-12.731-4.31
	c-0.416-3.465-2.451-6.996-6.525-11.685c-7.014-8.075,0.965-9.076,7.872-13.49c1.058,1.589,2.213,3.136,3.57,4.584
	c2.908,3.143,6.795,5.701,11.078,7.081c-0.254,1.878-0.423,3.763-0.464,5.686c-0.004,4.361,0.329,8.949,2.506,13.414
	C933.969,488.848,932.108,488.601,930.694,488.24z"/>
</svg>
