<?xml version="1.0" standalone="no"?>
<!DOCTYPE svg PUBLIC "-//W3C//DTD SVG 20010904//EN"
 "http://www.w3.org/TR/2001/REC-SVG-20010904/DTD/svg10.dtd">
<svg version="1.0" xmlns="http://www.w3.org/2000/svg"
 width="445.000000pt" height="409.000000pt" viewBox="0 0 445.000000 409.000000"
 preserveAspectRatio="xMidYMid meet">
<metadata>
Created by potrace 1.16, written by Peter Selinger 2001-2019
</metadata>
<g transform="translate(0.000000,409.000000) scale(0.100000,-0.100000)"
fill="#000000" stroke="none">
<path d="M2712 3614 c-4 -7 -18 -14 -32 -16 -22 -3 -25 -9 -28 -45 -3 -42 12
-60 21 -25 3 15 5 15 12 -3 4 -11 15 -28 23 -37 9 -11 12 -24 7 -35 -6 -15 -9
-14 -20 12 -12 27 -14 28 -21 11 -4 -10 -2 -33 5 -50 7 -17 15 -41 18 -53 6
-25 14 -28 30 -12 7 7 13 0 18 -28 4 -21 16 -47 28 -58 l22 -20 -23 -3 c-27
-4 -29 -23 -2 -40 22 -14 27 -48 8 -55 -10 -4 -10 -6 0 -6 18 -1 47 28 48 48
3 45 5 51 19 51 8 0 15 4 15 10 0 5 12 13 27 16 33 9 53 27 53 49 0 8 7 18 15
21 20 8 21 136 1 153 -8 6 -19 24 -26 40 -6 16 -23 33 -36 40 -33 14 -33 14
-27 -9 4 -14 0 -20 -12 -20 -13 0 -16 6 -13 25 6 28 -18 36 -28 10 -4 -8 -10
-15 -15 -15 -5 0 -9 7 -9 15 0 8 5 15 10 15 6 0 10 4 10 9 0 14 -91 18 -98 5z"/>
<path d="M1075 3282 c-39 -13 -81 -45 -117 -90 -34 -42 -38 -53 -38 -103 0
-55 0 -56 38 -71 96 -40 154 -45 260 -23 21 5 38 3 48 -5 8 -7 32 -13 54 -12
36 2 40 -1 60 -43 20 -41 101 -125 121 -125 27 0 -20 86 -67 122 -13 11 -24
26 -24 34 0 17 33 18 60 2 10 -7 22 -9 26 -5 14 14 -16 31 -56 32 -29 0 -42 5
-50 21 -7 11 -25 28 -41 38 -19 11 -30 26 -31 44 -2 29 -4 61 -7 78 -2 19 -66
84 -83 84 -8 0 -32 7 -51 15 -38 16 -68 18 -102 7z"/>
<path d="M1365 1304 c-16 -8 -47 -31 -67 -51 -44 -43 -55 -39 -37 11 14 39 10
50 -15 40 -10 -4 -16 -18 -16 -39 0 -21 -11 -46 -31 -71 -43 -56 -57 -64 -108
-64 -61 -1 -105 -38 -131 -111 -40 -108 -23 -169 67 -246 52 -45 59 -47 111
-47 61 1 74 11 93 74 17 56 23 186 10 218 -10 23 -8 34 8 67 14 29 16 44 9 53
-13 15 -15 12 42 47 103 64 160 169 65 119z"/>
<path d="M2920 1208 c0 -21 37 -76 59 -87 11 -6 32 -36 47 -67 16 -32 36 -59
47 -62 23 -6 37 -41 37 -91 0 -28 8 -47 35 -78 38 -45 67 -55 161 -57 56 -1
64 2 101 34 69 61 93 102 93 158 0 55 8 49 -110 83 -81 23 -120 24 -165 2 -34
-16 -38 -16 -69 1 -18 10 -42 17 -52 16 -41 -5 -52 2 -70 43 -26 58 -114 139
-114 105z"/>
<path d="M2126 938 c-11 -15 -16 -46 -16 -98 l0 -75 -20 25 c-11 14 -23 38
-27 53 -4 21 -8 25 -14 15 -14 -21 -10 -55 6 -72 12 -12 34 -97 35 -133 0 -2
-16 -20 -35 -42 -32 -35 -36 -45 -36 -99 -1 -55 3 -67 37 -119 44 -65 76 -85
152 -91 74 -6 138 14 168 53 33 44 31 66 -20 144 -49 77 -93 121 -118 121 -19
0 -48 36 -48 61 0 10 -12 26 -27 37 -24 18 -26 23 -16 43 19 38 22 199 4 199
-6 0 -17 -10 -25 -22z"/>
</g>
</svg>
